<ttFont>
    <TTGlyph name=".notdef" xMin="34" yMin="-192" xMax="414" yMax="832">
      <contour>
        <pt x="34" y="832" on="1"/>
        <pt x="414" y="832" on="1"/>
        <pt x="414" y="-192" on="1"/>
        <pt x="34" y="-192" on="1"/>
      </contour>
      <contour>
        <pt x="169" y="559" on="0"/>
        <pt x="257" y="533" on="0"/>
        <pt x="282" y="502" on="0"/>
        <pt x="282" y="481" on="1"/>
        <pt x="282" y="460" on="0"/>
        <pt x="263" y="429" on="0"/>
        <pt x="241" y="403" on="1"/>
        <pt x="216" y="375" on="0"/>
        <pt x="185" y="326" on="0"/>
        <pt x="164" y="249" on="0"/>
        <pt x="167" y="195" on="1"/>
        <pt x="273" y="192" on="1"/>
        <pt x="274" y="248" on="0"/>
        <pt x="307" y="314" on="0"/>
        <pt x="340" y="353" on="1"/>
        <pt x="369" y="387" on="0"/>
        <pt x="398" y="442" on="0"/>
        <pt x="398" y="485" on="1"/>
        <pt x="398" y="563" on="0"/>
        <pt x="257" y="645" on="0"/>
        <pt x="86" y="645" on="1"/>
        <pt x="81" y="565" on="1"/>
      </contour>
      <contour>
        <pt x="140" y="29" on="0"/>
        <pt x="188" y="-10" on="0"/>
        <pt x="224" y="-10" on="1"/>
        <pt x="260" y="-10" on="0"/>
        <pt x="308" y="29" on="0"/>
        <pt x="308" y="64" on="1"/>
        <pt x="308" y="98" on="0"/>
        <pt x="260" y="138" on="0"/>
        <pt x="224" y="138" on="1"/>
        <pt x="188" y="138" on="0"/>
        <pt x="140" y="98" on="0"/>
        <pt x="140" y="64" on="1"/>
      </contour>
    </TTGlyph>
    <TTGlyph name="A" xMin="25" yMin="0" xMax="423" yMax="640">
      <contour>
        <pt x="40" y="187" on="0"/>
        <pt x="114" y="519" on="0"/>
        <pt x="172" y="640" on="1"/>
        <pt x="276" y="640" on="1"/>
        <pt x="334" y="519" on="0"/>
        <pt x="408" y="187" on="0"/>
        <pt x="423" y="0" on="1"/>
        <pt x="308" y="0" on="1"/>
        <pt x="302" y="85" on="0"/>
        <pt x="293" y="160" on="1"/>
        <pt x="155" y="160" on="1"/>
        <pt x="146" y="85" on="0"/>
        <pt x="140" y="0" on="1"/>
        <pt x="25" y="0" on="1"/>
      </contour>
      <contour>
        <pt x="282" y="240" on="1"/>
        <pt x="260" y="396" on="0"/>
        <pt x="224" y="518" on="1"/>
        <pt x="188" y="396" on="0"/>
        <pt x="166" y="240" on="1"/>
      </contour>
    </TTGlyph>
    <TTGlyph name="A.hex" xMin="25" yMin="0" xMax="423" yMax="576">
      <contour>
        <pt x="40" y="168" on="0"/>
        <pt x="114" y="467" on="0"/>
        <pt x="172" y="576" on="1"/>
        <pt x="276" y="576" on="1"/>
        <pt x="334" y="467" on="0"/>
        <pt x="408" y="168" on="0"/>
        <pt x="423" y="0" on="1"/>
        <pt x="308" y="0" on="1"/>
        <pt x="300" y="78" on="0"/>
        <pt x="295" y="120" on="1"/>
        <pt x="153" y="120" on="1"/>
        <pt x="148" y="78" on="0"/>
        <pt x="140" y="0" on="1"/>
        <pt x="25" y="0" on="1"/>
      </contour>
      <contour>
        <pt x="284" y="200" on="1"/>
        <pt x="260" y="350" on="0"/>
        <pt x="224" y="461" on="1"/>
        <pt x="188" y="350" on="0"/>
        <pt x="164" y="200" on="1"/>
      </contour>
    </TTGlyph>
    <TTGlyph name="A.short" xMin="25" yMin="0" xMax="423" yMax="576">
      <component glyphName="A.hex" x="0" y="0" flags="0x400"/>
    </TTGlyph>
    <TTGlyph name="A.sups" xMin="90" yMin="320" xMax="358" yMax="640">
      <contour>
        <pt x="95" y="411" on="0"/>
        <pt x="137" y="566" on="0"/>
        <pt x="176" y="640" on="1"/>
        <pt x="272" y="640" on="1"/>
        <pt x="347" y="503" on="0"/>
        <pt x="358" y="320" on="1"/>
        <pt x="253" y="320" on="1"/>
        <pt x="253" y="355" on="0"/>
        <pt x="249" y="380" on="1"/>
        <pt x="197" y="380" on="1"/>
        <pt x="193" y="340" on="0"/>
        <pt x="193" y="320" on="1"/>
        <pt x="90" y="320" on="1"/>
      </contour>
      <contour>
        <pt x="239" y="448" on="1"/>
        <pt x="236" y="474" on="0"/>
        <pt x="224" y="510" on="1"/>
        <pt x="212" y="466" on="0"/>
        <pt x="210" y="448" on="1"/>
      </contour>
    </TTGlyph>
    <TTGlyph name="AE" xMin="25" yMin="0" xMax="632" yMax="640">
      <contour>
        <pt x="632" y="80" on="1"/>
        <pt x="632" y="0" on="1"/>
        <pt x="291" y="0" on="1"/>
        <pt x="291" y="160" on="1"/>
        <pt x="153" y="160" on="1"/>
        <pt x="144" y="63" on="0"/>
        <pt x="139" y="0" on="1"/>
        <pt x="25" y="0" on="1"/>
        <pt x="38" y="185" on="0"/>
        <pt x="103" y="517" on="0"/>
        <pt x="153" y="640" on="1"/>
        <pt x="622" y="640" on="1"/>
        <pt x="622" y="560" on="1"/>
        <pt x="403" y="560" on="1"/>
        <pt x="403" y="327" on="1"/>
        <pt x="573" y="327" on="1"/>
        <pt x="573" y="248" on="1"/>
        <pt x="403" y="248" on="1"/>
        <pt x="403" y="80" on="1"/>
      </contour>
      <contour>
        <pt x="291" y="240" on="1"/>
        <pt x="291" y="560" on="1"/>
        <pt x="224" y="560" on="1"/>
        <pt x="186" y="417" on="0"/>
        <pt x="163" y="240" on="1"/>
      </contour>
    </TTGlyph>
    <TTGlyph name="AEacute" xMin="25" yMin="0" xMax="632" yMax="832">
      <component glyphName="AE" x="0" y="0" flags="0x400"/>
      <component glyphName="acutecomb.case" x="152" y="0" flags="0x400"/>
    </TTGlyph>
    <TTGlyph name="Aacute" xMin="25" yMin="0" xMax="423" yMax="832">
      <component glyphName="A" x="0" y="0" flags="0x400"/>
      <component glyphName="acutecomb.case" x="0" y="0" flags="0x400"/>
    </TTGlyph>
    <TTGlyph name="Abreve" xMin="25" yMin="0" xMax="423" yMax="846">
      <component glyphName="A" x="0" y="0" flags="0x400"/>
      <component glyphName="uni0306.case" x="0" y="0" flags="0x400"/>
    </TTGlyph>
    <TTGlyph name="Acircumflex" xMin="25" yMin="0" xMax="423" yMax="842">
      <component glyphName="A" x="0" y="0" flags="0x400"/>
      <component glyphName="uni0302.case" x="0" y="0" flags="0x400"/>
    </TTGlyph>
    <TTGlyph name="Adieresis" xMin="25" yMin="0" xMax="423" yMax="830">
      <component glyphName="A" x="0" y="0" flags="0x400"/>
      <component glyphName="uni0308.case" x="0" y="0" flags="0x400"/>
    </TTGlyph>
    <TTGlyph name="Agrave" xMin="25" yMin="0" xMax="423" yMax="832">
      <component glyphName="A" x="0" y="0" flags="0x400"/>
      <component glyphName="gravecomb.case" x="0" y="0" flags="0x400"/>
    </TTGlyph>
    <TTGlyph name="Alpha" xMin="25" yMin="0" xMax="423" yMax="640">
      <component glyphName="A" x="0" y="0" flags="0x400"/>
    </TTGlyph>
    <TTGlyph name="Alphatonos" xMin="-27" yMin="0" xMax="423" yMax="704">
      <component glyphName="tonos" x="-192" y="0" flags="0x400"/>
      <component glyphName="Alpha" x="0" y="0" flags="0x400"/>
    </TTGlyph>
    <TTGlyph name="Amacron" xMin="25" yMin="0" xMax="423" yMax="776">
      <component glyphName="A" x="0" y="0" flags="0x400"/>
      <component glyphName="uni0304.case" x="0" y="0" flags="0x400"/>
    </TTGlyph>
    <TTGlyph name="Aogonek" xMin="25" yMin="-197" xMax="444" yMax="640">
      <component glyphName="A" x="0" y="0" flags="0x400"/>
      <component glyphName="uni0328" x="29" y="0" flags="0x400"/>
    </TTGlyph>
    <TTGlyph name="Aring" xMin="25" yMin="0" xMax="423" yMax="899">
      <component glyphName="A" x="0" y="0" flags="0x400"/>
      <component glyphName="uni030A.case" x="0" y="64" flags="0x404"/>
    </TTGlyph>
    <TTGlyph name="Aringacute" xMin="25" yMin="0" xMax="423" yMax="818">
      <component glyphName="A.short" x="0" y="0" flags="0x400"/>
      <component glyphName="uni030A.case" x="0" y="-97" flags="0x404"/>
      <component glyphName="acutecomb.case" x="0" y="-14" flags="0x404"/>
    </TTGlyph>
    <TTGlyph name="Atilde" xMin="25" yMin="0" xMax="423" yMax="842">
      <component glyphName="A" x="0" y="0" flags="0x400"/>
      <component glyphName="tildecomb.case" x="0" y="0" flags="0x400"/>
    </TTGlyph>
    <TTGlyph name="B" xMin="50" yMin="0" xMax="421" yMax="640">
      <contour>
        <pt x="50" y="640" on="1"/>
        <pt x="195" y="640" on="1"/>
        <pt x="292" y="640" on="0"/>
        <pt x="400" y="557" on="0"/>
        <pt x="400" y="476" on="1"/>
        <pt x="400" y="388" on="0"/>
        <pt x="321" y="315" on="1"/>
        <pt x="369" y="300" on="0"/>
        <pt x="421" y="225" on="0"/>
        <pt x="421" y="172" on="1"/>
        <pt x="421" y="90" on="0"/>
        <pt x="309" y="0" on="0"/>
        <pt x="215" y="0" on="1"/>
        <pt x="50" y="0" on="1"/>
      </contour>
      <contour>
        <pt x="201" y="80" on="1"/>
        <pt x="257" y="80" on="0"/>
        <pt x="305" y="126" on="0"/>
        <pt x="305" y="174" on="1"/>
        <pt x="305" y="218" on="0"/>
        <pt x="252" y="264" on="0"/>
        <pt x="191" y="264" on="1"/>
        <pt x="162" y="264" on="1"/>
        <pt x="162" y="80" on="1"/>
      </contour>
      <contour>
        <pt x="233" y="344" on="1"/>
        <pt x="256" y="367" on="0"/>
        <pt x="282" y="433" on="0"/>
        <pt x="282" y="466" on="1"/>
        <pt x="282" y="513" on="0"/>
        <pt x="236" y="560" on="0"/>
        <pt x="184" y="560" on="1"/>
        <pt x="162" y="560" on="1"/>
        <pt x="162" y="344" on="1"/>
      </contour>
    </TTGlyph>
    <TTGlyph name="B.hex" xMin="50" yMin="0" xMax="421" yMax="576">
      <contour>
        <pt x="50" y="576" on="1"/>
        <pt x="195" y="576" on="1"/>
        <pt x="292" y="576" on="0"/>
        <pt x="400" y="501" on="0"/>
        <pt x="400" y="428" on="1"/>
        <pt x="400" y="349" on="0"/>
        <pt x="324" y="283" on="1"/>
        <pt x="370" y="267" on="0"/>
        <pt x="421" y="204" on="0"/>
        <pt x="421" y="156" on="1"/>
        <pt x="421" y="82" on="0"/>
        <pt x="309" y="0" on="0"/>
        <pt x="215" y="0" on="1"/>
        <pt x="50" y="0" on="1"/>
      </contour>
      <contour>
        <pt x="191" y="80" on="1"/>
        <pt x="253" y="80" on="0"/>
        <pt x="305" y="118" on="0"/>
        <pt x="305" y="158" on="1"/>
        <pt x="305" y="194" on="0"/>
        <pt x="252" y="232" on="0"/>
        <pt x="191" y="232" on="1"/>
        <pt x="162" y="232" on="1"/>
        <pt x="162" y="80" on="1"/>
      </contour>
      <contour>
        <pt x="234" y="312" on="1"/>
        <pt x="257" y="332" on="0"/>
        <pt x="282" y="389" on="0"/>
        <pt x="282" y="418" on="1"/>
        <pt x="282" y="458" on="0"/>
        <pt x="233" y="496" on="0"/>
        <pt x="175" y="496" on="1"/>
        <pt x="162" y="496" on="1"/>
        <pt x="162" y="312" on="1"/>
      </contour>
    </TTGlyph>
    <TTGlyph name="B.short" xMin="50" yMin="0" xMax="421" yMax="576">
      <component glyphName="B.hex" x="0" y="0" flags="0x400"/>
    </TTGlyph>
    <TTGlyph name="B.sups" xMin="98" yMin="320" xMax="354" yMax="640">
      <contour>
        <pt x="98" y="640" on="1"/>
        <pt x="214" y="640" on="1"/>
        <pt x="273" y="640" on="0"/>
        <pt x="343" y="594" on="0"/>
        <pt x="343" y="558" on="1"/>
        <pt x="343" y="517" on="0"/>
        <pt x="305" y="482" on="1"/>
        <pt x="354" y="457" on="0"/>
        <pt x="354" y="410" on="1"/>
        <pt x="354" y="371" on="0"/>
        <pt x="283" y="320" on="0"/>
        <pt x="224" y="320" on="1"/>
        <pt x="98" y="320" on="1"/>
      </contour>
      <contour>
        <pt x="219" y="386" on="1"/>
        <pt x="236" y="386" on="0"/>
        <pt x="247" y="396" on="0"/>
        <pt x="247" y="410" on="1"/>
        <pt x="247" y="427" on="0"/>
        <pt x="235" y="439" on="0"/>
        <pt x="219" y="439" on="1"/>
        <pt x="202" y="439" on="1"/>
        <pt x="202" y="386" on="1"/>
      </contour>
      <contour>
        <pt x="222" y="505" on="1"/>
        <pt x="236" y="524" on="0"/>
        <pt x="236" y="548" on="1"/>
        <pt x="236" y="564" on="0"/>
        <pt x="226" y="574" on="0"/>
        <pt x="210" y="574" on="1"/>
        <pt x="202" y="574" on="1"/>
        <pt x="202" y="505" on="1"/>
      </contour>
    </TTGlyph>
    <TTGlyph name="Beta" xMin="50" yMin="0" xMax="421" yMax="640">
      <component glyphName="B" x="0" y="0" flags="0x400"/>
    </TTGlyph>
    <TTGlyph name="C" xMin="34" yMin="-9" xMax="362" yMax="647">
      <contour>
        <pt x="167" y="-9" on="0"/>
        <pt x="76" y="55" on="0"/>
        <pt x="34" y="197" on="0"/>
        <pt x="34" y="319" on="1"/>
        <pt x="34" y="441" on="0"/>
        <pt x="76" y="583" on="0"/>
        <pt x="167" y="647" on="0"/>
        <pt x="245" y="647" on="1"/>
        <pt x="304" y="647" on="0"/>
        <pt x="356" y="632" on="1"/>
        <pt x="342" y="558" on="1"/>
        <pt x="303" y="567" on="0"/>
        <pt x="265" y="567" on="1"/>
        <pt x="214" y="567" on="0"/>
        <pt x="166" y="518" on="0"/>
        <pt x="152" y="418" on="0"/>
        <pt x="152" y="319" on="1"/>
        <pt x="152" y="220" on="0"/>
        <pt x="166" y="120" on="0"/>
        <pt x="214" y="71" on="0"/>
        <pt x="266" y="71" on="1"/>
        <pt x="307" y="71" on="0"/>
        <pt x="348" y="82" on="1"/>
        <pt x="362" y="8" on="1"/>
        <pt x="308" y="-9" on="0"/>
        <pt x="245" y="-9" on="1"/>
      </contour>
    </TTGlyph>
    <TTGlyph name="C.hex" xMin="50" yMin="-9" xMax="394" yMax="583">
      <contour>
        <pt x="193" y="-9" on="0"/>
        <pt x="95" y="49" on="0"/>
        <pt x="50" y="177" on="0"/>
        <pt x="50" y="287" on="1"/>
        <pt x="50" y="397" on="0"/>
        <pt x="95" y="525" on="0"/>
        <pt x="193" y="583" on="0"/>
        <pt x="277" y="583" on="1"/>
        <pt x="336" y="583" on="0"/>
        <pt x="388" y="568" on="1"/>
        <pt x="374" y="494" on="1"/>
        <pt x="335" y="503" on="0"/>
        <pt x="297" y="503" on="1"/>
        <pt x="239" y="503" on="0"/>
        <pt x="184" y="460" on="0"/>
        <pt x="168" y="373" on="0"/>
        <pt x="168" y="287" on="1"/>
        <pt x="168" y="201" on="0"/>
        <pt x="184" y="114" on="0"/>
        <pt x="239" y="71" on="0"/>
        <pt x="298" y="71" on="1"/>
        <pt x="339" y="71" on="0"/>
        <pt x="380" y="82" on="1"/>
        <pt x="394" y="8" on="1"/>
        <pt x="340" y="-9" on="0"/>
        <pt x="277" y="-9" on="1"/>
      </contour>
    </TTGlyph>
    <TTGlyph name="C.short" xMin="50" yMin="-9" xMax="394" yMax="583">
      <component glyphName="C.hex" x="0" y="0" flags="0x400"/>
    </TTGlyph>
    <TTGlyph name="C.sups" xMin="106" yMin="316" xMax="346" yMax="644">
      <contour>
        <pt x="182" y="316" on="0"/>
        <pt x="106" y="402" on="0"/>
        <pt x="106" y="480" on="1"/>
        <pt x="106" y="558" on="0"/>
        <pt x="182" y="644" on="0"/>
        <pt x="252" y="644" on="1"/>
        <pt x="280" y="644" on="0"/>
        <pt x="333" y="635" on="0"/>
        <pt x="346" y="629" on="1"/>
        <pt x="334" y="563" on="1"/>
        <pt x="282" y="574" on="0"/>
        <pt x="256" y="574" on="1"/>
        <pt x="240" y="574" on="0"/>
        <pt x="223" y="562" on="0"/>
        <pt x="214" y="522" on="0"/>
        <pt x="214" y="480" on="1"/>
        <pt x="214" y="425" on="0"/>
        <pt x="237" y="386" on="0"/>
        <pt x="260" y="386" on="1"/>
        <pt x="282" y="386" on="0"/>
        <pt x="334" y="397" on="1"/>
        <pt x="346" y="331" on="1"/>
        <pt x="333" y="325" on="0"/>
        <pt x="280" y="316" on="0"/>
        <pt x="252" y="316" on="1"/>
      </contour>
    </TTGlyph>
    <TTGlyph name="Cacute" xMin="34" yMin="-9" xMax="369" yMax="832">
      <component glyphName="C" x="0" y="0" flags="0x400"/>
      <component glyphName="acutecomb.case" x="0" y="0" flags="0x400"/>
    </TTGlyph>
    <TTGlyph name="Ccaron" xMin="34" yMin="-9" xMax="382" yMax="846">
      <component glyphName="C" x="0" y="0" flags="0x400"/>
      <component glyphName="uni030C.case" x="0" y="0" flags="0x400"/>
    </TTGlyph>
    <TTGlyph name="Ccedilla" xMin="34" yMin="-192" xMax="362" yMax="647">
      <component glyphName="C" x="0" y="0" flags="0x400"/>
      <component glyphName="uni0327" x="-52" y="0" flags="0x400"/>
    </TTGlyph>
    <TTGlyph name="Ccircumflex" xMin="34" yMin="-9" xMax="382" yMax="842">
      <component glyphName="C" x="0" y="0" flags="0x400"/>
      <component glyphName="uni0302.case" x="0" y="0" flags="0x400"/>
    </TTGlyph>
    <TTGlyph name="Cdotaccent" xMin="34" yMin="-9" xMax="362" yMax="826">
      <component glyphName="C" x="0" y="0" flags="0x400"/>
      <component glyphName="uni0307.case" x="0" y="0" flags="0x400"/>
    </TTGlyph>
    <TTGlyph name="Chi" xMin="37" yMin="0" xMax="410" yMax="640">
      <component glyphName="X" x="0" y="0" flags="0x400"/>
    </TTGlyph>
    <TTGlyph name="D" xMin="50" yMin="0" xMax="436" yMax="640">
      <contour>
        <pt x="294" y="640" on="0"/>
        <pt x="391" y="574" on="0"/>
        <pt x="436" y="433" on="0"/>
        <pt x="436" y="317" on="1"/>
        <pt x="436" y="201" on="0"/>
        <pt x="391" y="63" on="0"/>
        <pt x="295" y="0" on="0"/>
        <pt x="215" y="0" on="1"/>
        <pt x="50" y="0" on="1"/>
        <pt x="50" y="640" on="1"/>
        <pt x="214" y="640" on="1"/>
      </contour>
      <contour>
        <pt x="208" y="80" on="1"/>
        <pt x="257" y="80" on="0"/>
        <pt x="303" y="128" on="0"/>
        <pt x="318" y="225" on="0"/>
        <pt x="318" y="317" on="1"/>
        <pt x="318" y="411" on="0"/>
        <pt x="303" y="511" on="0"/>
        <pt x="256" y="560" on="0"/>
        <pt x="208" y="560" on="1"/>
        <pt x="162" y="560" on="1"/>
        <pt x="162" y="80" on="1"/>
      </contour>
    </TTGlyph>
    <TTGlyph name="D.hex" xMin="50" yMin="0" xMax="404" yMax="576">
      <contour>
        <pt x="262" y="576" on="0"/>
        <pt x="359" y="517" on="0"/>
        <pt x="404" y="390" on="0"/>
        <pt x="404" y="285" on="1"/>
        <pt x="404" y="180" on="0"/>
        <pt x="359" y="56" on="0"/>
        <pt x="263" y="0" on="0"/>
        <pt x="183" y="0" on="1"/>
        <pt x="50" y="0" on="1"/>
        <pt x="50" y="576" on="1"/>
        <pt x="182" y="576" on="1"/>
      </contour>
      <contour>
        <pt x="176" y="80" on="1"/>
        <pt x="225" y="80" on="0"/>
        <pt x="271" y="121" on="0"/>
        <pt x="286" y="205" on="0"/>
        <pt x="286" y="285" on="1"/>
        <pt x="286" y="366" on="0"/>
        <pt x="271" y="454" on="0"/>
        <pt x="224" y="496" on="0"/>
        <pt x="176" y="496" on="1"/>
        <pt x="162" y="496" on="1"/>
        <pt x="162" y="80" on="1"/>
      </contour>
    </TTGlyph>
    <TTGlyph name="D.short" xMin="50" yMin="0" xMax="404" yMax="576">
      <component glyphName="D.hex" x="0" y="0" flags="0x400"/>
    </TTGlyph>
    <TTGlyph name="D.sups" xMin="95" yMin="320" xMax="358" yMax="640">
      <contour>
        <pt x="95" y="640" on="1"/>
        <pt x="209" y="640" on="1"/>
        <pt x="286" y="640" on="0"/>
        <pt x="358" y="561" on="0"/>
        <pt x="358" y="478" on="1"/>
        <pt x="358" y="397" on="0"/>
        <pt x="284" y="320" on="0"/>
        <pt x="210" y="320" on="1"/>
        <pt x="95" y="320" on="1"/>
      </contour>
      <contour>
        <pt x="206" y="388" on="1"/>
        <pt x="225" y="388" on="0"/>
        <pt x="243" y="402" on="0"/>
        <pt x="250" y="440" on="0"/>
        <pt x="250" y="478" on="1"/>
        <pt x="250" y="518" on="0"/>
        <pt x="243" y="557" on="0"/>
        <pt x="225" y="572" on="0"/>
        <pt x="206" y="572" on="1"/>
        <pt x="199" y="572" on="1"/>
        <pt x="199" y="388" on="1"/>
      </contour>
    </TTGlyph>
    <TTGlyph name="Dcaron" xMin="50" yMin="0" xMax="436" yMax="846">
      <component glyphName="D" x="0" y="0" flags="0x400"/>
      <component glyphName="uni030C.case" x="4" y="0" flags="0x400"/>
    </TTGlyph>
    <TTGlyph name="Dcroat" xMin="-5" yMin="0" xMax="436" yMax="640">
      <component glyphName="Eth" x="0" y="0" flags="0x400"/>
    </TTGlyph>
    <TTGlyph name="E" xMin="50" yMin="0" xMax="392" yMax="640">
      <contour>
        <pt x="50" y="640" on="1"/>
        <pt x="382" y="640" on="1"/>
        <pt x="382" y="560" on="1"/>
        <pt x="162" y="560" on="1"/>
        <pt x="162" y="328" on="1"/>
        <pt x="328" y="328" on="1"/>
        <pt x="328" y="248" on="1"/>
        <pt x="162" y="248" on="1"/>
        <pt x="162" y="80" on="1"/>
        <pt x="392" y="80" on="1"/>
        <pt x="392" y="0" on="1"/>
        <pt x="50" y="0" on="1"/>
      </contour>
    </TTGlyph>
    <TTGlyph name="E.hex" xMin="50" yMin="0" xMax="404" yMax="576">
      <contour>
        <pt x="50" y="576" on="1"/>
        <pt x="394" y="576" on="1"/>
        <pt x="394" y="496" on="1"/>
        <pt x="162" y="496" on="1"/>
        <pt x="162" y="312" on="1"/>
        <pt x="340" y="312" on="1"/>
        <pt x="340" y="232" on="1"/>
        <pt x="162" y="232" on="1"/>
        <pt x="162" y="80" on="1"/>
        <pt x="404" y="80" on="1"/>
        <pt x="404" y="0" on="1"/>
        <pt x="50" y="0" on="1"/>
      </contour>
    </TTGlyph>
    <TTGlyph name="E.short" xMin="50" yMin="0" xMax="404" yMax="576">
      <component glyphName="E.hex" x="0" y="0" flags="0x400"/>
    </TTGlyph>
    <TTGlyph name="E.sups" xMin="108" yMin="320" xMax="340" yMax="640">
      <contour>
        <pt x="108" y="640" on="1"/>
        <pt x="336" y="640" on="1"/>
        <pt x="336" y="570" on="1"/>
        <pt x="212" y="570" on="1"/>
        <pt x="212" y="515" on="1"/>
        <pt x="324" y="515" on="1"/>
        <pt x="324" y="445" on="1"/>
        <pt x="212" y="445" on="1"/>
        <pt x="212" y="390" on="1"/>
        <pt x="340" y="390" on="1"/>
        <pt x="340" y="320" on="1"/>
        <pt x="108" y="320" on="1"/>
      </contour>
    </TTGlyph>
    <TTGlyph name="Eacute" xMin="50" yMin="0" xMax="392" yMax="832">
      <component glyphName="E" x="0" y="0" flags="0x400"/>
      <component glyphName="acutecomb.case" x="-16" y="0" flags="0x400"/>
    </TTGlyph>
    <TTGlyph name="Ebreve" xMin="50" yMin="0" xMax="392" yMax="846">
      <component glyphName="E" x="0" y="0" flags="0x400"/>
      <component glyphName="uni0306.case" x="-16" y="0" flags="0x400"/>
    </TTGlyph>
    <TTGlyph name="Ecaron" xMin="50" yMin="0" xMax="392" yMax="846">
      <component glyphName="E" x="0" y="0" flags="0x400"/>
      <component glyphName="uni030C.case" x="-16" y="0" flags="0x400"/>
    </TTGlyph>
    <TTGlyph name="Ecircumflex" xMin="50" yMin="0" xMax="392" yMax="842">
      <component glyphName="E" x="0" y="0" flags="0x400"/>
      <component glyphName="uni0302.case" x="-16" y="0" flags="0x400"/>
    </TTGlyph>
    <TTGlyph name="Edieresis" xMin="50" yMin="0" xMax="392" yMax="830">
      <component glyphName="E" x="0" y="0" flags="0x400"/>
      <component glyphName="uni0308.case" x="-16" y="0" flags="0x400"/>
    </TTGlyph>
    <TTGlyph name="Edotaccent" xMin="50" yMin="0" xMax="392" yMax="826">
      <component glyphName="E" x="0" y="0" flags="0x400"/>
      <component glyphName="uni0307.case" x="-16" y="0" flags="0x400"/>
    </TTGlyph>
    <TTGlyph name="Egrave" xMin="50" yMin="0" xMax="392" yMax="832">
      <component glyphName="E" x="0" y="0" flags="0x400"/>
      <component glyphName="gravecomb.case" x="-16" y="0" flags="0x400"/>
    </TTGlyph>
    <TTGlyph name="Emacron" xMin="50" yMin="0" xMax="392" yMax="776">
      <component glyphName="E" x="0" y="0" flags="0x400"/>
      <component glyphName="uni0304.case" x="-16" y="0" flags="0x400"/>
    </TTGlyph>
    <TTGlyph name="Eng" xMin="48" yMin="-16" xMax="398" yMax="644">
      <contour>
        <pt x="50" y="576" on="1"/>
        <pt x="48" y="640" on="1"/>
        <pt x="149" y="640" on="1"/>
        <pt x="154" y="599" on="1"/>
        <pt x="212" y="644" on="0"/>
        <pt x="272" y="644" on="1"/>
        <pt x="331" y="644" on="0"/>
        <pt x="398" y="576" on="0"/>
        <pt x="398" y="506" on="1"/>
        <pt x="398" y="175" on="1"/>
        <pt x="398" y="98" on="0"/>
        <pt x="339" y="10" on="0"/>
        <pt x="266" y="-16" on="1"/>
        <pt x="228" y="64" on="1"/>
        <pt x="261" y="80" on="0"/>
        <pt x="286" y="123" on="0"/>
        <pt x="286" y="167" on="1"/>
        <pt x="286" y="498" on="1"/>
        <pt x="286" y="560" on="0"/>
        <pt x="234" y="560" on="1"/>
        <pt x="200" y="560" on="0"/>
        <pt x="162" y="525" on="1"/>
        <pt x="162" y="0" on="1"/>
        <pt x="50" y="0" on="1"/>
      </contour>
    </TTGlyph>
    <TTGlyph name="Eng.loclNSM" xMin="50" yMin="-196" xMax="398" yMax="640">
      <contour>
        <pt x="398" y="-86" on="0"/>
        <pt x="336" y="-171" on="0"/>
        <pt x="266" y="-196" on="1"/>
        <pt x="228" y="-116" on="1"/>
        <pt x="267" y="-99" on="0"/>
        <pt x="296" y="-57" on="0"/>
        <pt x="296" y="-13" on="1"/>
        <pt x="296" y="3" on="1"/>
        <pt x="170" y="368" on="1"/>
        <pt x="144" y="484" on="1"/>
        <pt x="152" y="0" on="1"/>
        <pt x="50" y="0" on="1"/>
        <pt x="50" y="640" on="1"/>
        <pt x="162" y="640" on="1"/>
        <pt x="288" y="274" on="1"/>
        <pt x="303" y="206" on="1"/>
        <pt x="296" y="640" on="1"/>
        <pt x="398" y="640" on="1"/>
        <pt x="398" y="-5" on="1"/>
      </contour>
    </TTGlyph>
    <TTGlyph name="Eogonek" xMin="50" yMin="-197" xMax="413" yMax="640">
      <component glyphName="E" x="0" y="0" flags="0x400"/>
      <component glyphName="uni0328" x="-2" y="0" flags="0x400"/>
    </TTGlyph>
    <TTGlyph name="Epsilon" xMin="50" yMin="0" xMax="392" yMax="640">
      <component glyphName="E" x="0" y="0" flags="0x400"/>
    </TTGlyph>
    <TTGlyph name="Epsilontonos" xMin="-91" yMin="0" xMax="392" yMax="704">
      <component glyphName="tonos" x="-256" y="0" flags="0x400"/>
      <component glyphName="Epsilon" x="0" y="0" flags="0x400"/>
    </TTGlyph>
    <TTGlyph name="Eta" xMin="50" yMin="0" xMax="430" yMax="640">
      <component glyphName="H" x="0" y="0" flags="0x400"/>
    </TTGlyph>
    <TTGlyph name="Etatonos" xMin="-91" yMin="0" xMax="430" yMax="704">
      <component glyphName="tonos" x="-256" y="0" flags="0x400"/>
      <component glyphName="Eta" x="0" y="0" flags="0x400"/>
    </TTGlyph>
    <TTGlyph name="Eth" xMin="-5" yMin="0" xMax="436" yMax="640">
      <contour>
        <pt x="50" y="328" on="1"/>
        <pt x="50" y="640" on="1"/>
        <pt x="214" y="640" on="1"/>
        <pt x="294" y="640" on="0"/>
        <pt x="391" y="574" on="0"/>
        <pt x="436" y="433" on="0"/>
        <pt x="436" y="317" on="1"/>
        <pt x="436" y="201" on="0"/>
        <pt x="391" y="63" on="0"/>
        <pt x="295" y="0" on="0"/>
        <pt x="215" y="0" on="1"/>
        <pt x="50" y="0" on="1"/>
        <pt x="50" y="248" on="1"/>
        <pt x="-5" y="248" on="1"/>
        <pt x="-5" y="328" on="1"/>
      </contour>
      <contour>
        <pt x="208" y="80" on="1"/>
        <pt x="257" y="80" on="0"/>
        <pt x="303" y="128" on="0"/>
        <pt x="318" y="225" on="0"/>
        <pt x="318" y="317" on="1"/>
        <pt x="318" y="411" on="0"/>
        <pt x="303" y="511" on="0"/>
        <pt x="256" y="560" on="0"/>
        <pt x="208" y="560" on="1"/>
        <pt x="162" y="560" on="1"/>
        <pt x="162" y="328" on="1"/>
        <pt x="246" y="328" on="1"/>
        <pt x="246" y="248" on="1"/>
        <pt x="162" y="248" on="1"/>
        <pt x="162" y="80" on="1"/>
      </contour>
    </TTGlyph>
    <TTGlyph name="Euro" xMin="54" yMin="-7" xMax="419" yMax="583">
      <contour>
        <pt x="358" y="73" on="0"/>
        <pt x="399" y="88" on="1"/>
        <pt x="419" y="13" on="1"/>
        <pt x="393" y="4" on="0"/>
        <pt x="334" y="-7" on="0"/>
        <pt x="308" y="-7" on="1"/>
        <pt x="222" y="-7" on="0"/>
        <pt x="125" y="88" on="0"/>
        <pt x="110" y="182" on="1"/>
        <pt x="54" y="182" on="1"/>
        <pt x="54" y="262" on="1"/>
        <pt x="102" y="262" on="1"/>
        <pt x="102" y="288" on="1"/>
        <pt x="102" y="310" on="1"/>
        <pt x="54" y="310" on="1"/>
        <pt x="54" y="390" on="1"/>
        <pt x="109" y="390" on="1"/>
        <pt x="140" y="583" on="0"/>
        <pt x="308" y="583" on="1"/>
        <pt x="334" y="583" on="0"/>
        <pt x="393" y="572" on="0"/>
        <pt x="419" y="563" on="1"/>
        <pt x="398" y="488" on="1"/>
        <pt x="359" y="503" on="0"/>
        <pt x="322" y="503" on="1"/>
        <pt x="281" y="503" on="0"/>
        <pt x="231" y="450" on="0"/>
        <pt x="221" y="390" on="1"/>
        <pt x="389" y="390" on="1"/>
        <pt x="370" y="310" on="1"/>
        <pt x="214" y="310" on="1"/>
        <pt x="214" y="288" on="1"/>
        <pt x="214" y="262" on="1"/>
        <pt x="361" y="262" on="1"/>
        <pt x="343" y="182" on="1"/>
        <pt x="222" y="182" on="1"/>
        <pt x="232" y="124" on="0"/>
        <pt x="282" y="73" on="0"/>
        <pt x="322" y="73" on="1"/>
      </contour>
    </TTGlyph>
    <TTGlyph name="F" xMin="50" yMin="0" xMax="360" yMax="640">
      <contour>
        <pt x="50" y="640" on="1"/>
        <pt x="360" y="640" on="1"/>
        <pt x="360" y="560" on="1"/>
        <pt x="162" y="560" on="1"/>
        <pt x="162" y="328" on="1"/>
        <pt x="312" y="328" on="1"/>
        <pt x="312" y="248" on="1"/>
        <pt x="162" y="248" on="1"/>
        <pt x="162" y="0" on="1"/>
        <pt x="50" y="0" on="1"/>
      </contour>
    </TTGlyph>
    <TTGlyph name="F.hex" xMin="48" yMin="0" xMax="404" yMax="576">
      <contour>
        <pt x="48" y="576" on="1"/>
        <pt x="404" y="576" on="1"/>
        <pt x="404" y="496" on="1"/>
        <pt x="160" y="496" on="1"/>
        <pt x="160" y="312" on="1"/>
        <pt x="340" y="312" on="1"/>
        <pt x="340" y="232" on="1"/>
        <pt x="160" y="232" on="1"/>
        <pt x="160" y="0" on="1"/>
        <pt x="48" y="0" on="1"/>
      </contour>
    </TTGlyph>
    <TTGlyph name="F.short" xMin="48" yMin="0" xMax="404" yMax="576">
      <component glyphName="F.hex" x="0" y="0" flags="0x400"/>
    </TTGlyph>
    <TTGlyph name="F.sups" xMin="108" yMin="320" xMax="340" yMax="640">
      <contour>
        <pt x="108" y="640" on="1"/>
        <pt x="340" y="640" on="1"/>
        <pt x="340" y="572" on="1"/>
        <pt x="212" y="572" on="1"/>
        <pt x="212" y="509" on="1"/>
        <pt x="320" y="509" on="1"/>
        <pt x="320" y="441" on="1"/>
        <pt x="212" y="441" on="1"/>
        <pt x="212" y="320" on="1"/>
        <pt x="108" y="320" on="1"/>
      </contour>
    </TTGlyph>
    <TTGlyph name="G" xMin="34" yMin="-9" xMax="406" yMax="647">
      <contour>
        <pt x="183" y="-9" on="0"/>
        <pt x="80" y="55" on="0"/>
        <pt x="34" y="197" on="0"/>
        <pt x="34" y="319" on="1"/>
        <pt x="34" y="441" on="0"/>
        <pt x="80" y="583" on="0"/>
        <pt x="182" y="647" on="0"/>
        <pt x="269" y="647" on="1"/>
        <pt x="299" y="647" on="0"/>
        <pt x="372" y="638" on="0"/>
        <pt x="403" y="629" on="1"/>
        <pt x="389" y="555" on="1"/>
        <pt x="337" y="567" on="0"/>
        <pt x="290" y="567" on="1"/>
        <pt x="228" y="567" on="0"/>
        <pt x="169" y="518" on="0"/>
        <pt x="152" y="418" on="0"/>
        <pt x="152" y="319" on="1"/>
        <pt x="152" y="221" on="0"/>
        <pt x="168" y="120" on="0"/>
        <pt x="219" y="71" on="0"/>
        <pt x="273" y="71" on="1"/>
        <pt x="287" y="71" on="0"/>
        <pt x="294" y="72" on="1"/>
        <pt x="294" y="248" on="1"/>
        <pt x="209" y="248" on="1"/>
        <pt x="209" y="328" on="1"/>
        <pt x="406" y="328" on="1"/>
        <pt x="406" y="7" on="1"/>
        <pt x="376" y="-1" on="0"/>
        <pt x="301" y="-9" on="0"/>
        <pt x="270" y="-9" on="1"/>
      </contour>
    </TTGlyph>
    <TTGlyph name="G.short" xMin="44" yMin="-9" xMax="398" yMax="583">
      <contour>
        <pt x="188" y="-9" on="0"/>
        <pt x="89" y="49" on="0"/>
        <pt x="44" y="177" on="0"/>
        <pt x="44" y="287" on="1"/>
        <pt x="44" y="397" on="0"/>
        <pt x="89" y="525" on="0"/>
        <pt x="187" y="583" on="0"/>
        <pt x="271" y="583" on="1"/>
        <pt x="299" y="583" on="0"/>
        <pt x="366" y="574" on="0"/>
        <pt x="395" y="565" on="1"/>
        <pt x="381" y="491" on="1"/>
        <pt x="334" y="503" on="0"/>
        <pt x="292" y="503" on="1"/>
        <pt x="233" y="503" on="0"/>
        <pt x="178" y="460" on="0"/>
        <pt x="162" y="373" on="0"/>
        <pt x="162" y="287" on="1"/>
        <pt x="162" y="201" on="0"/>
        <pt x="177" y="114" on="0"/>
        <pt x="224" y="71" on="0"/>
        <pt x="275" y="71" on="1"/>
        <pt x="286" y="71" on="1"/>
        <pt x="286" y="216" on="1"/>
        <pt x="211" y="216" on="1"/>
        <pt x="211" y="296" on="1"/>
        <pt x="398" y="296" on="1"/>
        <pt x="398" y="7" on="1"/>
        <pt x="370" y="-1" on="0"/>
        <pt x="301" y="-9" on="0"/>
        <pt x="272" y="-9" on="1"/>
      </contour>
    </TTGlyph>
    <TTGlyph name="G.sups" xMin="83" yMin="315" xMax="342" yMax="647">
      <contour>
        <pt x="153" y="315" on="0"/>
        <pt x="83" y="392" on="0"/>
        <pt x="83" y="481" on="1"/>
        <pt x="83" y="566" on="0"/>
        <pt x="156" y="647" on="0"/>
        <pt x="236" y="647" on="1"/>
        <pt x="260" y="647" on="0"/>
        <pt x="319" y="640" on="0"/>
        <pt x="342" y="634" on="1"/>
        <pt x="331" y="565" on="1"/>
        <pt x="271" y="577" on="0"/>
        <pt x="239" y="577" on="1"/>
        <pt x="216" y="577" on="0"/>
        <pt x="195" y="559" on="0"/>
        <pt x="189" y="521" on="0"/>
        <pt x="189" y="481" on="1"/>
        <pt x="189" y="440" on="0"/>
        <pt x="195" y="400" on="0"/>
        <pt x="211" y="385" on="0"/>
        <pt x="228" y="385" on="1"/>
        <pt x="237" y="385" on="1"/>
        <pt x="237" y="512" on="1"/>
        <pt x="341" y="512" on="1"/>
        <pt x="341" y="329" on="1"/>
        <pt x="321" y="323" on="0"/>
        <pt x="255" y="315" on="0"/>
        <pt x="226" y="315" on="1"/>
      </contour>
    </TTGlyph>
    <TTGlyph name="Gamma" xMin="50" yMin="0" xMax="360" yMax="640">
      <component glyphName="uni0413" x="0" y="0" flags="0x400"/>
    </TTGlyph>
    <TTGlyph name="Gbreve" xMin="34" yMin="-9" xMax="406" yMax="846">
      <component glyphName="G" x="0" y="0" flags="0x400"/>
      <component glyphName="uni0306.case" x="20" y="0" flags="0x400"/>
    </TTGlyph>
    <TTGlyph name="Gcaron" xMin="34" yMin="-9" xMax="406" yMax="846">
      <component glyphName="G" x="0" y="0" flags="0x400"/>
      <component glyphName="uni030C.case" x="20" y="0" flags="0x400"/>
    </TTGlyph>
    <TTGlyph name="Gcircumflex" xMin="34" yMin="-9" xMax="406" yMax="842">
      <component glyphName="G" x="0" y="0" flags="0x400"/>
      <component glyphName="uni0302.case" x="20" y="0" flags="0x400"/>
    </TTGlyph>
    <TTGlyph name="Gdotaccent" xMin="34" yMin="-9" xMax="406" yMax="826">
      <component glyphName="G" x="0" y="0" flags="0x400"/>
      <component glyphName="uni0307.case" x="20" y="0" flags="0x400"/>
    </TTGlyph>
    <TTGlyph name="H" xMin="50" yMin="0" xMax="430" yMax="640">
      <contour>
        <pt x="50" y="640" on="1"/>
        <pt x="162" y="640" on="1"/>
        <pt x="162" y="328" on="1"/>
        <pt x="318" y="328" on="1"/>
        <pt x="318" y="640" on="1"/>
        <pt x="430" y="640" on="1"/>
        <pt x="430" y="0" on="1"/>
        <pt x="318" y="0" on="1"/>
        <pt x="318" y="248" on="1"/>
        <pt x="162" y="248" on="1"/>
        <pt x="162" y="0" on="1"/>
        <pt x="50" y="0" on="1"/>
      </contour>
    </TTGlyph>
    <TTGlyph name="H.sups" xMin="98" yMin="320" xMax="350" yMax="640">
      <contour>
        <pt x="98" y="640" on="1"/>
        <pt x="202" y="640" on="1"/>
        <pt x="202" y="515" on="1"/>
        <pt x="246" y="515" on="1"/>
        <pt x="246" y="640" on="1"/>
        <pt x="350" y="640" on="1"/>
        <pt x="350" y="320" on="1"/>
        <pt x="246" y="320" on="1"/>
        <pt x="246" y="445" on="1"/>
        <pt x="202" y="445" on="1"/>
        <pt x="202" y="320" on="1"/>
        <pt x="98" y="320" on="1"/>
      </contour>
    </TTGlyph>
    <TTGlyph name="Hbar" xMin="0" yMin="0" xMax="480" yMax="640">
      <contour>
        <pt x="50" y="440" on="1"/>
        <pt x="0" y="440" on="1"/>
        <pt x="0" y="516" on="1"/>
        <pt x="50" y="516" on="1"/>
        <pt x="50" y="640" on="1"/>
        <pt x="162" y="640" on="1"/>
        <pt x="162" y="516" on="1"/>
        <pt x="318" y="516" on="1"/>
        <pt x="318" y="640" on="1"/>
        <pt x="430" y="640" on="1"/>
        <pt x="430" y="516" on="1"/>
        <pt x="480" y="516" on="1"/>
        <pt x="480" y="440" on="1"/>
        <pt x="430" y="440" on="1"/>
        <pt x="430" y="0" on="1"/>
        <pt x="318" y="0" on="1"/>
        <pt x="318" y="248" on="1"/>
        <pt x="162" y="248" on="1"/>
        <pt x="162" y="0" on="1"/>
        <pt x="50" y="0" on="1"/>
      </contour>
      <contour>
        <pt x="318" y="328" on="1"/>
        <pt x="318" y="440" on="1"/>
        <pt x="162" y="440" on="1"/>
        <pt x="162" y="328" on="1"/>
      </contour>
    </TTGlyph>
    <TTGlyph name="Hcircumflex" xMin="50" yMin="0" xMax="430" yMax="842">
      <component glyphName="H" x="0" y="0" flags="0x400"/>
      <component glyphName="uni0302.case" x="16" y="0" flags="0x400"/>
    </TTGlyph>
    <TTGlyph name="I" xMin="44" yMin="0" xMax="276" yMax="640">
      <contour>
        <pt x="44" y="76" on="1"/>
        <pt x="104" y="80" on="1"/>
        <pt x="104" y="560" on="1"/>
        <pt x="48" y="564" on="1"/>
        <pt x="48" y="640" on="1"/>
        <pt x="271" y="640" on="1"/>
        <pt x="271" y="564" on="1"/>
        <pt x="216" y="560" on="1"/>
        <pt x="216" y="80" on="1"/>
        <pt x="276" y="76" on="1"/>
        <pt x="276" y="0" on="1"/>
        <pt x="44" y="0" on="1"/>
      </contour>
    </TTGlyph>
    <TTGlyph name="I.cv02" xMin="56" yMin="0" xMax="168" yMax="640">
      <contour>
        <pt x="56" y="640" on="1"/>
        <pt x="168" y="640" on="1"/>
        <pt x="168" y="0" on="1"/>
        <pt x="56" y="0" on="1"/>
      </contour>
    </TTGlyph>
    <TTGlyph name="I.short" xMin="44" yMin="0" xMax="404" yMax="576">
      <contour>
        <pt x="44" y="68" on="1"/>
        <pt x="168" y="80" on="1"/>
        <pt x="168" y="496" on="1"/>
        <pt x="48" y="508" on="1"/>
        <pt x="48" y="576" on="1"/>
        <pt x="400" y="576" on="1"/>
        <pt x="400" y="508" on="1"/>
        <pt x="280" y="496" on="1"/>
        <pt x="280" y="80" on="1"/>
        <pt x="404" y="68" on="1"/>
        <pt x="404" y="0" on="1"/>
        <pt x="44" y="0" on="1"/>
      </contour>
    </TTGlyph>
    <TTGlyph name="I.short.cv02" xMin="168" yMin="0" xMax="280" yMax="576">
      <contour>
        <pt x="168" y="576" on="1"/>
        <pt x="280" y="576" on="1"/>
        <pt x="280" y="0" on="1"/>
        <pt x="168" y="0" on="1"/>
      </contour>
    </TTGlyph>
    <TTGlyph name="I.sups" xMin="108" yMin="320" xMax="340" yMax="640">
      <contour>
        <pt x="340" y="320" on="1"/>
        <pt x="108" y="320" on="1"/>
        <pt x="108" y="380" on="1"/>
        <pt x="172" y="388" on="1"/>
        <pt x="172" y="572" on="1"/>
        <pt x="108" y="580" on="1"/>
        <pt x="108" y="640" on="1"/>
        <pt x="340" y="640" on="1"/>
        <pt x="340" y="580" on="1"/>
        <pt x="276" y="572" on="1"/>
        <pt x="276" y="388" on="1"/>
        <pt x="340" y="380" on="1"/>
      </contour>
    </TTGlyph>
    <TTGlyph name="IJ" xMin="44" yMin="-8" xMax="686" yMax="640">
      <component glyphName="I" x="0" y="0" flags="0x400"/>
      <component glyphName="J" x="320" y="0" flags="0x400"/>
    </TTGlyph>
    <TTGlyph name="Iacute" xMin="44" yMin="0" xMax="305" yMax="832">
      <component glyphName="I" x="0" y="0" flags="0x400"/>
      <component glyphName="acutecomb.case" x="-64" y="0" flags="0x400"/>
    </TTGlyph>
    <TTGlyph name="Iacute.cv02" xMin="56" yMin="0" xMax="257" yMax="832">
      <component glyphName="I.cv02" x="0" y="0" flags="0x400"/>
      <component glyphName="acutecomb.case" x="-112" y="0" flags="0x400"/>
    </TTGlyph>
    <TTGlyph name="Ibreve" xMin="19" yMin="0" xMax="301" yMax="846">
      <component glyphName="I" x="0" y="0" flags="0x400"/>
      <component glyphName="uni0306.case" x="-64" y="0" flags="0x400"/>
    </TTGlyph>
    <TTGlyph name="Ibreve.cv02" xMin="-29" yMin="0" xMax="253" yMax="846">
      <component glyphName="I.cv02" x="0" y="0" flags="0x400"/>
      <component glyphName="uni0306.case" x="-112" y="0" flags="0x400"/>
    </TTGlyph>
    <TTGlyph name="Icapitalsmall.cv02" xMin="108" yMin="0" xMax="468" yMax="640">
      <contour>
        <pt x="108" y="68" on="1"/>
        <pt x="232" y="80" on="1"/>
        <pt x="232" y="560" on="1"/>
        <pt x="112" y="572" on="1"/>
        <pt x="112" y="640" on="1"/>
        <pt x="464" y="640" on="1"/>
        <pt x="464" y="572" on="1"/>
        <pt x="344" y="560" on="1"/>
        <pt x="344" y="80" on="1"/>
        <pt x="468" y="68" on="1"/>
        <pt x="468" y="0" on="1"/>
        <pt x="108" y="0" on="1"/>
      </contour>
    </TTGlyph>
    <TTGlyph name="Icircumflex" xMin="2" yMin="0" xMax="318" yMax="842">
      <component glyphName="I" x="0" y="0" flags="0x400"/>
      <component glyphName="uni0302.case" x="-64" y="0" flags="0x400"/>
    </TTGlyph>
    <TTGlyph name="Icircumflex.cv02" xMin="-46" yMin="0" xMax="270" yMax="842">
      <component glyphName="I.cv02" x="0" y="0" flags="0x400"/>
      <component glyphName="uni0302.case" x="-112" y="0" flags="0x400"/>
    </TTGlyph>
    <TTGlyph name="Idieresis" xMin="15" yMin="0" xMax="305" yMax="830">
      <component glyphName="I" x="0" y="0" flags="0x400"/>
      <component glyphName="uni0308.case" x="-64" y="0" flags="0x400"/>
    </TTGlyph>
    <TTGlyph name="Idieresis.cv02" xMin="-33" yMin="0" xMax="257" yMax="830">
      <component glyphName="I.cv02" x="0" y="0" flags="0x400"/>
      <component glyphName="uni0308.case" x="-112" y="0" flags="0x400"/>
    </TTGlyph>
    <TTGlyph name="Idotaccent" xMin="44" yMin="0" xMax="276" yMax="826">
      <component glyphName="I" x="0" y="0" flags="0x400"/>
      <component glyphName="uni0307.case" x="-64" y="0" flags="0x400"/>
    </TTGlyph>
    <TTGlyph name="Idotaccent.cv02" xMin="43" yMin="0" xMax="181" yMax="826">
      <component glyphName="I.cv02" x="0" y="0" flags="0x400"/>
      <component glyphName="uni0307.case" x="-112" y="0" flags="0x400"/>
    </TTGlyph>
    <TTGlyph name="Igrave" xMin="16" yMin="0" xMax="276" yMax="832">
      <component glyphName="I" x="0" y="0" flags="0x400"/>
      <component glyphName="gravecomb.case" x="-64" y="0" flags="0x400"/>
    </TTGlyph>
    <TTGlyph name="Igrave.cv02" xMin="-32" yMin="0" xMax="168" yMax="832">
      <component glyphName="I.cv02" x="0" y="0" flags="0x400"/>
      <component glyphName="gravecomb.case" x="-112" y="0" flags="0x400"/>
    </TTGlyph>
    <TTGlyph name="Imacron" xMin="30" yMin="0" xMax="290" yMax="776">
      <component glyphName="I" x="0" y="0" flags="0x400"/>
      <component glyphName="uni0304.case" x="-64" y="0" flags="0x400"/>
    </TTGlyph>
    <TTGlyph name="Imacron.cv02" xMin="-18" yMin="0" xMax="242" yMax="776">
      <component glyphName="I.cv02" x="0" y="0" flags="0x400"/>
      <component glyphName="uni0304.case" x="-112" y="0" flags="0x400"/>
    </TTGlyph>
    <TTGlyph name="Iogonek" xMin="44" yMin="-197" xMax="297" yMax="640">
      <component glyphName="I" x="0" y="0" flags="0x400"/>
      <component glyphName="uni0328" x="-118" y="0" flags="0x400"/>
    </TTGlyph>
    <TTGlyph name="Iogonek.cv02" xMin="15" yMin="-197" xMax="189" yMax="640">
      <component glyphName="I.cv02" x="0" y="0" flags="0x400"/>
      <component glyphName="uni0328" x="-226" y="0" flags="0x400"/>
    </TTGlyph>
    <TTGlyph name="Iota" xMin="44" yMin="0" xMax="276" yMax="640">
      <component glyphName="I" x="0" y="0" flags="0x400"/>
    </TTGlyph>
    <TTGlyph name="Iota.cv02" xMin="56" yMin="0" xMax="168" yMax="640">
      <component glyphName="I.cv02" x="0" y="0" flags="0x400"/>
    </TTGlyph>
    <TTGlyph name="Iotadieresis" xMin="15" yMin="0" xMax="305" yMax="830">
      <component glyphName="Iota" x="0" y="0" flags="0x400"/>
      <component glyphName="uni0308.case" x="-64" y="0" flags="0x400"/>
    </TTGlyph>
    <TTGlyph name="Iotadieresis.cv02" xMin="-33" yMin="0" xMax="257" yMax="830">
      <component glyphName="Iota.cv02" x="0" y="0" flags="0x400"/>
      <component glyphName="uni0308.case" x="-112" y="0" flags="0x400"/>
    </TTGlyph>
    <TTGlyph name="Iotatonos" xMin="-91" yMin="0" xMax="276" yMax="704">
      <component glyphName="tonos" x="-256" y="0" flags="0x400"/>
      <component glyphName="Iota" x="0" y="0" flags="0x400"/>
    </TTGlyph>
    <TTGlyph name="Iotatonos.cv02" xMin="-85" yMin="0" xMax="168" yMax="704">
      <component glyphName="tonos" x="-250" y="0" flags="0x400"/>
      <component glyphName="Iota.cv02" x="0" y="0" flags="0x400"/>
    </TTGlyph>
    <TTGlyph name="Itilde" xMin="-2" yMin="0" xMax="322" yMax="842">
      <component glyphName="I" x="0" y="0" flags="0x400"/>
      <component glyphName="tildecomb.case" x="-64" y="0" flags="0x400"/>
    </TTGlyph>
    <TTGlyph name="Itilde.cv02" xMin="-50" yMin="0" xMax="274" yMax="842">
      <component glyphName="I.cv02" x="0" y="0" flags="0x400"/>
      <component glyphName="tildecomb.case" x="-112" y="0" flags="0x400"/>
    </TTGlyph>
    <TTGlyph name="J" xMin="20" yMin="-8" xMax="366" yMax="640">
      <contour>
        <pt x="134" y="115" on="0"/>
        <pt x="166" y="72" on="0"/>
        <pt x="192" y="72" on="1"/>
        <pt x="227" y="72" on="0"/>
        <pt x="254" y="121" on="0"/>
        <pt x="254" y="169" on="1"/>
        <pt x="254" y="552" on="1"/>
        <pt x="100" y="552" on="1"/>
        <pt x="100" y="640" on="1"/>
        <pt x="366" y="640" on="1"/>
        <pt x="366" y="173" on="1"/>
        <pt x="366" y="80" on="0"/>
        <pt x="273" y="-8" on="0"/>
        <pt x="192" y="-8" on="1"/>
        <pt x="50" y="-8" on="0"/>
        <pt x="20" y="136" on="1"/>
        <pt x="123" y="160" on="1"/>
      </contour>
    </TTGlyph>
    <TTGlyph name="J.cv03" xMin="20" yMin="-8" xMax="366" yMax="640">
      <contour>
        <pt x="50" y="-8" on="0"/>
        <pt x="20" y="136" on="1"/>
        <pt x="123" y="160" on="1"/>
        <pt x="134" y="115" on="0"/>
        <pt x="166" y="72" on="0"/>
        <pt x="192" y="72" on="1"/>
        <pt x="227" y="72" on="0"/>
        <pt x="254" y="121" on="0"/>
        <pt x="254" y="169" on="1"/>
        <pt x="254" y="640" on="1"/>
        <pt x="366" y="640" on="1"/>
        <pt x="366" y="173" on="1"/>
        <pt x="366" y="80" on="0"/>
        <pt x="273" y="-8" on="0"/>
        <pt x="192" y="-8" on="1"/>
      </contour>
    </TTGlyph>
    <TTGlyph name="J.sups" xMin="103" yMin="316" xMax="340" yMax="640">
      <contour>
        <pt x="158" y="316" on="0"/>
        <pt x="103" y="326" on="1"/>
        <pt x="111" y="393" on="1"/>
        <pt x="151" y="386" on="0"/>
        <pt x="191" y="386" on="1"/>
        <pt x="218" y="386" on="0"/>
        <pt x="236" y="405" on="0"/>
        <pt x="236" y="438" on="1"/>
        <pt x="236" y="570" on="1"/>
        <pt x="118" y="570" on="1"/>
        <pt x="118" y="640" on="1"/>
        <pt x="340" y="640" on="1"/>
        <pt x="340" y="435" on="1"/>
        <pt x="340" y="373" on="0"/>
        <pt x="262" y="316" on="0"/>
        <pt x="197" y="316" on="1"/>
      </contour>
    </TTGlyph>
    <TTGlyph name="Jcircumflex" xMin="20" yMin="-8" xMax="396" yMax="842">
      <component glyphName="J" x="0" y="0" flags="0x400"/>
      <component glyphName="uni0302.case" x="14" y="0" flags="0x400"/>
    </TTGlyph>
    <TTGlyph name="Jcircumflex.cv03" xMin="20" yMin="-8" xMax="468" yMax="842">
      <component glyphName="J.cv03" x="0" y="0" flags="0x400"/>
      <component glyphName="uni0302.case" x="86" y="0" flags="0x400"/>
    </TTGlyph>
    <TTGlyph name="K" xMin="50" yMin="0" xMax="413" yMax="640">
      <contour>
        <pt x="50" y="640" on="1"/>
        <pt x="162" y="640" on="1"/>
        <pt x="162" y="333" on="1"/>
        <pt x="174" y="333" on="1"/>
        <pt x="221" y="399" on="0"/>
        <pt x="277" y="542" on="0"/>
        <pt x="295" y="640" on="1"/>
        <pt x="413" y="640" on="1"/>
        <pt x="394" y="538" on="0"/>
        <pt x="339" y="389" on="0"/>
        <pt x="290" y="320" on="1"/>
        <pt x="342" y="302" on="0"/>
        <pt x="394" y="216" on="0"/>
        <pt x="399" y="149" on="1"/>
        <pt x="412" y="0" on="1"/>
        <pt x="295" y="0" on="1"/>
        <pt x="288" y="141" on="1"/>
        <pt x="285" y="202" on="0"/>
        <pt x="244" y="253" on="0"/>
        <pt x="199" y="253" on="1"/>
        <pt x="162" y="253" on="1"/>
        <pt x="162" y="0" on="1"/>
        <pt x="50" y="0" on="1"/>
      </contour>
    </TTGlyph>
    <TTGlyph name="K.short" xMin="50" yMin="0" xMax="413" yMax="576">
      <contour>
        <pt x="50" y="576" on="1"/>
        <pt x="162" y="576" on="1"/>
        <pt x="162" y="301" on="1"/>
        <pt x="174" y="301" on="1"/>
        <pt x="221" y="361" on="0"/>
        <pt x="277" y="488" on="0"/>
        <pt x="295" y="576" on="1"/>
        <pt x="413" y="576" on="1"/>
        <pt x="395" y="485" on="0"/>
        <pt x="340" y="351" on="0"/>
        <pt x="293" y="289" on="1"/>
        <pt x="344" y="274" on="0"/>
        <pt x="394" y="204" on="0"/>
        <pt x="399" y="149" on="1"/>
        <pt x="412" y="0" on="1"/>
        <pt x="295" y="0" on="1"/>
        <pt x="288" y="141" on="1"/>
        <pt x="286" y="184" on="0"/>
        <pt x="244" y="221" on="0"/>
        <pt x="199" y="221" on="1"/>
        <pt x="162" y="221" on="1"/>
        <pt x="162" y="0" on="1"/>
        <pt x="50" y="0" on="1"/>
      </contour>
    </TTGlyph>
    <TTGlyph name="K.sups" xMin="102" yMin="320" xMax="359" yMax="640">
      <contour>
        <pt x="102" y="640" on="1"/>
        <pt x="206" y="640" on="1"/>
        <pt x="206" y="509" on="1"/>
        <pt x="208" y="509" on="1"/>
        <pt x="225" y="534" on="0"/>
        <pt x="248" y="595" on="0"/>
        <pt x="254" y="640" on="1"/>
        <pt x="359" y="640" on="1"/>
        <pt x="352" y="593" on="0"/>
        <pt x="325" y="527" on="0"/>
        <pt x="299" y="495" on="1"/>
        <pt x="341" y="473" on="0"/>
        <pt x="349" y="411" on="1"/>
        <pt x="359" y="320" on="1"/>
        <pt x="253" y="320" on="1"/>
        <pt x="245" y="410" on="1"/>
        <pt x="243" y="433" on="0"/>
        <pt x="238" y="441" on="0"/>
        <pt x="225" y="441" on="1"/>
        <pt x="206" y="441" on="1"/>
        <pt x="206" y="320" on="1"/>
        <pt x="102" y="320" on="1"/>
      </contour>
    </TTGlyph>
    <TTGlyph name="Kappa" xMin="50" yMin="0" xMax="413" yMax="640">
      <component glyphName="K" x="0" y="0" flags="0x400"/>
    </TTGlyph>
    <TTGlyph name="L" xMin="50" yMin="0" xMax="342" yMax="640">
      <contour>
        <pt x="50" y="640" on="1"/>
        <pt x="162" y="640" on="1"/>
        <pt x="162" y="88" on="1"/>
        <pt x="342" y="88" on="1"/>
        <pt x="342" y="0" on="1"/>
        <pt x="50" y="0" on="1"/>
      </contour>
    </TTGlyph>
    <TTGlyph name="L.sups" xMin="108" yMin="320" xMax="340" yMax="640">
      <contour>
        <pt x="340" y="320" on="1"/>
        <pt x="108" y="320" on="1"/>
        <pt x="108" y="640" on="1"/>
        <pt x="212" y="640" on="1"/>
        <pt x="212" y="390" on="1"/>
        <pt x="340" y="390" on="1"/>
      </contour>
    </TTGlyph>
    <TTGlyph name="Lacute" xMin="50" yMin="0" xMax="342" yMax="832">
      <component glyphName="L" x="0" y="0" flags="0x400"/>
      <component glyphName="acutecomb.case" x="-118" y="0" flags="0x400"/>
    </TTGlyph>
    <TTGlyph name="Lambda" xMin="25" yMin="0" xMax="423" yMax="640">
      <contour>
        <pt x="40" y="187" on="0"/>
        <pt x="114" y="519" on="0"/>
        <pt x="172" y="640" on="1"/>
        <pt x="276" y="640" on="1"/>
        <pt x="334" y="519" on="0"/>
        <pt x="408" y="187" on="0"/>
        <pt x="423" y="0" on="1"/>
        <pt x="308" y="0" on="1"/>
        <pt x="284" y="313" on="0"/>
        <pt x="224" y="518" on="1"/>
        <pt x="164" y="313" on="0"/>
        <pt x="140" y="0" on="1"/>
        <pt x="25" y="0" on="1"/>
      </contour>
    </TTGlyph>
    <TTGlyph name="Lcaron" xMin="50" yMin="0" xMax="392" yMax="640">
      <component glyphName="L" x="0" y="0" flags="0x400"/>
      <component glyphName="uni030C.alt" x="-64" y="0" flags="0x400"/>
    </TTGlyph>
    <TTGlyph name="Ldot" xMin="50" yMin="0" xMax="382" yMax="640">
      <contour>
        <pt x="50" y="640" on="1"/>
        <pt x="162" y="640" on="1"/>
        <pt x="162" y="88" on="1"/>
        <pt x="342" y="88" on="1"/>
        <pt x="342" y="0" on="1"/>
        <pt x="50" y="0" on="1"/>
      </contour>
      <contour>
        <pt x="214" y="369" on="0"/>
        <pt x="262" y="414" on="0"/>
        <pt x="298" y="414" on="1"/>
        <pt x="334" y="414" on="0"/>
        <pt x="382" y="369" on="0"/>
        <pt x="382" y="330" on="1"/>
        <pt x="382" y="290" on="0"/>
        <pt x="334" y="246" on="0"/>
        <pt x="298" y="246" on="1"/>
        <pt x="262" y="246" on="0"/>
        <pt x="214" y="290" on="0"/>
        <pt x="214" y="330" on="1"/>
      </contour>
    </TTGlyph>
    <TTGlyph name="Lslash" xMin="-53" yMin="0" xMax="342" yMax="640">
      <component glyphName="L" x="0" y="0" flags="0x400"/>
      <component glyphName="_part.slash.comp" x="-112" y="0" flags="0x400"/>
    </TTGlyph>
    <TTGlyph name="M" xMin="50" yMin="0" xMax="526" yMax="640">
      <contour>
        <pt x="50" y="640" on="1"/>
        <pt x="182" y="640" on="1"/>
        <pt x="272" y="348" on="1"/>
        <pt x="288" y="282" on="1"/>
        <pt x="304" y="348" on="1"/>
        <pt x="394" y="640" on="1"/>
        <pt x="526" y="640" on="1"/>
        <pt x="526" y="0" on="1"/>
        <pt x="414" y="0" on="1"/>
        <pt x="414" y="325" on="1"/>
        <pt x="422" y="456" on="1"/>
        <pt x="410" y="400" on="1"/>
        <pt x="327" y="150" on="1"/>
        <pt x="249" y="150" on="1"/>
        <pt x="167" y="400" on="1"/>
        <pt x="154" y="456" on="1"/>
        <pt x="162" y="325" on="1"/>
        <pt x="162" y="0" on="1"/>
        <pt x="50" y="0" on="1"/>
      </contour>
    </TTGlyph>
    <TTGlyph name="M.sups" xMin="72" yMin="320" xMax="376" yMax="640">
      <contour>
        <pt x="76" y="519" on="0"/>
        <pt x="87" y="640" on="1"/>
        <pt x="192" y="640" on="1"/>
        <pt x="224" y="497" on="1"/>
        <pt x="256" y="640" on="1"/>
        <pt x="361" y="640" on="1"/>
        <pt x="372" y="519" on="0"/>
        <pt x="376" y="320" on="1"/>
        <pt x="284" y="320" on="1"/>
        <pt x="284" y="388" on="0"/>
        <pt x="280" y="504" on="1"/>
        <pt x="253" y="384" on="1"/>
        <pt x="195" y="384" on="1"/>
        <pt x="167" y="505" on="1"/>
        <pt x="164" y="414" on="0"/>
        <pt x="164" y="320" on="1"/>
        <pt x="72" y="320" on="1"/>
      </contour>
    </TTGlyph>
    <TTGlyph name="Mu" xMin="50" yMin="0" xMax="526" yMax="640">
      <component glyphName="M" x="0" y="0" flags="0x400"/>
    </TTGlyph>
    <TTGlyph name="N" xMin="52" yMin="0" xMax="428" yMax="640">
      <contour>
        <pt x="300" y="1" on="1"/>
        <pt x="140" y="457" on="1"/>
        <pt x="140" y="0" on="1"/>
        <pt x="52" y="0" on="1"/>
        <pt x="52" y="640" on="1"/>
        <pt x="186" y="640" on="1"/>
        <pt x="340" y="200" on="1"/>
        <pt x="340" y="640" on="1"/>
        <pt x="428" y="640" on="1"/>
        <pt x="428" y="0" on="1"/>
        <pt x="299" y="0" on="1"/>
      </contour>
    </TTGlyph>
    <TTGlyph name="N.short" xMin="50" yMin="0" xMax="398" yMax="576">
      <contour>
        <pt x="162" y="576" on="1"/>
        <pt x="281" y="245" on="1"/>
        <pt x="304" y="146" on="1"/>
        <pt x="296" y="576" on="1"/>
        <pt x="398" y="576" on="1"/>
        <pt x="398" y="0" on="1"/>
        <pt x="286" y="0" on="1"/>
        <pt x="167" y="331" on="1"/>
        <pt x="144" y="429" on="1"/>
        <pt x="152" y="0" on="1"/>
        <pt x="50" y="0" on="1"/>
        <pt x="50" y="576" on="1"/>
      </contour>
    </TTGlyph>
    <TTGlyph name="N.sups" xMin="90" yMin="320" xMax="358" yMax="640">
      <contour>
        <pt x="90" y="640" on="1"/>
        <pt x="217" y="640" on="1"/>
        <pt x="266" y="468" on="1"/>
        <pt x="266" y="640" on="1"/>
        <pt x="358" y="640" on="1"/>
        <pt x="358" y="320" on="1"/>
        <pt x="231" y="320" on="1"/>
        <pt x="182" y="492" on="1"/>
        <pt x="182" y="320" on="1"/>
        <pt x="90" y="320" on="1"/>
      </contour>
    </TTGlyph>
    <TTGlyph name="Nacute" xMin="52" yMin="0" xMax="428" yMax="832">
      <component glyphName="N" x="0" y="0" flags="0x400"/>
      <component glyphName="acutecomb.case" x="16" y="0" flags="0x400"/>
    </TTGlyph>
    <TTGlyph name="Ncaron" xMin="52" yMin="0" xMax="428" yMax="846">
      <component glyphName="N" x="0" y="0" flags="0x400"/>
      <component glyphName="uni030C.case" x="16" y="0" flags="0x400"/>
    </TTGlyph>
    <TTGlyph name="Ntilde" xMin="52" yMin="0" xMax="428" yMax="842">
      <component glyphName="N" x="0" y="0" flags="0x400"/>
      <component glyphName="tildecomb.case" x="16" y="0" flags="0x400"/>
    </TTGlyph>
    <TTGlyph name="Nu" xMin="52" yMin="0" xMax="428" yMax="640">
      <component glyphName="N" x="0" y="0" flags="0x400"/>
    </TTGlyph>
    <TTGlyph name="O" xMin="27" yMin="-10" xMax="453" yMax="650">
      <contour>
        <pt x="27" y="-10" on="0"/>
        <pt x="27" y="319" on="1"/>
        <pt x="27" y="486" on="0"/>
        <pt x="133" y="650" on="0"/>
        <pt x="240" y="650" on="1"/>
        <pt x="349" y="650" on="0"/>
        <pt x="453" y="487" on="0"/>
        <pt x="453" y="319" on="1"/>
        <pt x="453" y="154" on="0"/>
        <pt x="349" y="-10" on="0"/>
        <pt x="240" y="-10" on="1"/>
      </contour>
      <contour>
        <pt x="143" y="228" on="0"/>
        <pt x="162" y="121" on="0"/>
        <pt x="204" y="72" on="0"/>
        <pt x="240" y="72" on="1"/>
        <pt x="276" y="72" on="0"/>
        <pt x="318" y="121" on="0"/>
        <pt x="337" y="228" on="0"/>
        <pt x="337" y="319" on="1"/>
        <pt x="337" y="411" on="0"/>
        <pt x="318" y="519" on="0"/>
        <pt x="276" y="568" on="0"/>
        <pt x="240" y="568" on="1"/>
        <pt x="204" y="568" on="0"/>
        <pt x="162" y="519" on="0"/>
        <pt x="143" y="411" on="0"/>
        <pt x="143" y="319" on="1"/>
      </contour>
    </TTGlyph>
    <TTGlyph name="O.short" xMin="27" yMin="-10" xMax="421" yMax="586">
      <contour>
        <pt x="126" y="-10" on="0"/>
        <pt x="27" y="142" on="0"/>
        <pt x="27" y="287" on="1"/>
        <pt x="27" y="433" on="0"/>
        <pt x="126" y="586" on="0"/>
        <pt x="224" y="586" on="1"/>
        <pt x="421" y="586" on="0"/>
        <pt x="421" y="287" on="1"/>
        <pt x="421" y="-10" on="0"/>
        <pt x="224" y="-10" on="1"/>
      </contour>
      <contour>
        <pt x="143" y="171" on="0"/>
        <pt x="180" y="72" on="0"/>
        <pt x="224" y="72" on="1"/>
        <pt x="268" y="72" on="0"/>
        <pt x="305" y="171" on="0"/>
        <pt x="305" y="287" on="1"/>
        <pt x="305" y="403" on="0"/>
        <pt x="268" y="504" on="0"/>
        <pt x="224" y="504" on="1"/>
        <pt x="180" y="504" on="0"/>
        <pt x="143" y="403" on="0"/>
        <pt x="143" y="287" on="1"/>
      </contour>
    </TTGlyph>
    <TTGlyph name="O.sups" xMin="84" yMin="316" xMax="364" yMax="644">
      <contour>
        <pt x="149" y="316" on="0"/>
        <pt x="84" y="407" on="0"/>
        <pt x="84" y="480" on="1"/>
        <pt x="84" y="554" on="0"/>
        <pt x="149" y="644" on="0"/>
        <pt x="224" y="644" on="1"/>
        <pt x="298" y="644" on="0"/>
        <pt x="364" y="554" on="0"/>
        <pt x="364" y="480" on="1"/>
        <pt x="364" y="407" on="0"/>
        <pt x="297" y="316" on="0"/>
        <pt x="224" y="316" on="1"/>
      </contour>
      <contour>
        <pt x="188" y="425" on="0"/>
        <pt x="204" y="386" on="0"/>
        <pt x="224" y="386" on="1"/>
        <pt x="244" y="386" on="0"/>
        <pt x="260" y="425" on="0"/>
        <pt x="260" y="480" on="1"/>
        <pt x="260" y="534" on="0"/>
        <pt x="243" y="574" on="0"/>
        <pt x="224" y="574" on="1"/>
        <pt x="205" y="574" on="0"/>
        <pt x="188" y="534" on="0"/>
        <pt x="188" y="480" on="1"/>
      </contour>
    </TTGlyph>
    <TTGlyph name="OE" xMin="27" yMin="0" xMax="656" yMax="640">
      <contour>
        <pt x="153" y="0" on="0"/>
        <pt x="27" y="162" on="0"/>
        <pt x="27" y="319" on="1"/>
        <pt x="27" y="479" on="0"/>
        <pt x="152" y="640" on="0"/>
        <pt x="274" y="640" on="1"/>
        <pt x="646" y="640" on="1"/>
        <pt x="646" y="560" on="1"/>
        <pt x="436" y="560" on="1"/>
        <pt x="436" y="328" on="1"/>
        <pt x="592" y="328" on="1"/>
        <pt x="592" y="248" on="1"/>
        <pt x="436" y="248" on="1"/>
        <pt x="436" y="80" on="1"/>
        <pt x="656" y="80" on="1"/>
        <pt x="656" y="0" on="1"/>
        <pt x="274" y="0" on="1"/>
      </contour>
      <contour>
        <pt x="143" y="232" on="0"/>
        <pt x="169" y="129" on="0"/>
        <pt x="226" y="82" on="0"/>
        <pt x="274" y="82" on="1"/>
        <pt x="324" y="82" on="1"/>
        <pt x="324" y="558" on="1"/>
        <pt x="274" y="558" on="1"/>
        <pt x="226" y="558" on="0"/>
        <pt x="169" y="511" on="0"/>
        <pt x="143" y="407" on="0"/>
        <pt x="143" y="319" on="1"/>
      </contour>
    </TTGlyph>
    <TTGlyph name="Oacute" xMin="27" yMin="-10" xMax="453" yMax="832">
      <component glyphName="O" x="0" y="0" flags="0x400"/>
      <component glyphName="acutecomb.case" x="16" y="0" flags="0x400"/>
    </TTGlyph>
    <TTGlyph name="Obreve" xMin="27" yMin="-10" xMax="453" yMax="846">
      <component glyphName="O" x="0" y="0" flags="0x400"/>
      <component glyphName="uni0306.case" x="16" y="0" flags="0x400"/>
    </TTGlyph>
    <TTGlyph name="Ocircumflex" xMin="27" yMin="-10" xMax="453" yMax="842">
      <component glyphName="O" x="0" y="0" flags="0x400"/>
      <component glyphName="uni0302.case" x="16" y="0" flags="0x400"/>
    </TTGlyph>
    <TTGlyph name="Odieresis" xMin="27" yMin="-10" xMax="453" yMax="830">
      <component glyphName="O" x="0" y="0" flags="0x400"/>
      <component glyphName="uni0308.case" x="16" y="0" flags="0x400"/>
    </TTGlyph>
    <TTGlyph name="Ograve" xMin="27" yMin="-10" xMax="453" yMax="832">
      <component glyphName="O" x="0" y="0" flags="0x400"/>
      <component glyphName="gravecomb.case" x="16" y="0" flags="0x400"/>
    </TTGlyph>
    <TTGlyph name="Ohorn" xMin="27" yMin="-10" xMax="489" yMax="776">
      <contour>
        <pt x="27" y="-10" on="0"/>
        <pt x="27" y="319" on="1"/>
        <pt x="27" y="486" on="0"/>
        <pt x="133" y="650" on="0"/>
        <pt x="240" y="650" on="1"/>
        <pt x="273" y="650" on="0"/>
        <pt x="303" y="644" on="1"/>
        <pt x="323" y="640" on="0"/>
        <pt x="332" y="640" on="1"/>
        <pt x="358" y="640" on="0"/>
        <pt x="380" y="665" on="0"/>
        <pt x="380" y="696" on="1"/>
        <pt x="380" y="729" on="0"/>
        <pt x="373" y="776" on="1"/>
        <pt x="476" y="776" on="1"/>
        <pt x="489" y="732" on="0"/>
        <pt x="489" y="687" on="1"/>
        <pt x="489" y="637" on="0"/>
        <pt x="445" y="581" on="0"/>
        <pt x="398" y="573" on="1"/>
        <pt x="453" y="493" on="0"/>
        <pt x="453" y="319" on="1"/>
        <pt x="453" y="153" on="0"/>
        <pt x="352" y="-10" on="0"/>
        <pt x="240" y="-10" on="1"/>
      </contour>
      <contour>
        <pt x="143" y="228" on="0"/>
        <pt x="162" y="121" on="0"/>
        <pt x="204" y="72" on="0"/>
        <pt x="240" y="72" on="1"/>
        <pt x="276" y="72" on="0"/>
        <pt x="318" y="121" on="0"/>
        <pt x="337" y="228" on="0"/>
        <pt x="337" y="319" on="1"/>
        <pt x="337" y="411" on="0"/>
        <pt x="318" y="519" on="0"/>
        <pt x="276" y="568" on="0"/>
        <pt x="240" y="568" on="1"/>
        <pt x="204" y="568" on="0"/>
        <pt x="162" y="519" on="0"/>
        <pt x="143" y="411" on="0"/>
        <pt x="143" y="319" on="1"/>
      </contour>
    </TTGlyph>
    <TTGlyph name="Ohorn.short" xMin="27" yMin="-10" xMax="457" yMax="712">
      <contour>
        <pt x="126" y="-10" on="0"/>
        <pt x="27" y="142" on="0"/>
        <pt x="27" y="287" on="1"/>
        <pt x="27" y="433" on="0"/>
        <pt x="126" y="586" on="0"/>
        <pt x="224" y="586" on="1"/>
        <pt x="250" y="586" on="0"/>
        <pt x="276" y="580" on="1"/>
        <pt x="294" y="576" on="0"/>
        <pt x="303" y="576" on="1"/>
        <pt x="326" y="576" on="0"/>
        <pt x="348" y="601" on="0"/>
        <pt x="348" y="632" on="1"/>
        <pt x="348" y="665" on="0"/>
        <pt x="341" y="712" on="1"/>
        <pt x="444" y="712" on="1"/>
        <pt x="457" y="668" on="0"/>
        <pt x="457" y="623" on="1"/>
        <pt x="457" y="573" on="0"/>
        <pt x="417" y="519" on="0"/>
        <pt x="372" y="511" on="1"/>
        <pt x="421" y="438" on="0"/>
        <pt x="421" y="287" on="1"/>
        <pt x="421" y="138" on="0"/>
        <pt x="325" y="-10" on="0"/>
        <pt x="224" y="-10" on="1"/>
      </contour>
      <contour>
        <pt x="143" y="171" on="0"/>
        <pt x="180" y="72" on="0"/>
        <pt x="224" y="72" on="1"/>
        <pt x="268" y="72" on="0"/>
        <pt x="305" y="171" on="0"/>
        <pt x="305" y="287" on="1"/>
        <pt x="305" y="403" on="0"/>
        <pt x="268" y="504" on="0"/>
        <pt x="224" y="504" on="1"/>
        <pt x="180" y="504" on="0"/>
        <pt x="143" y="403" on="0"/>
        <pt x="143" y="287" on="1"/>
      </contour>
    </TTGlyph>
    <TTGlyph name="Ohungarumlaut" xMin="27" yMin="-10" xMax="455" yMax="846">
      <component glyphName="O" x="0" y="0" flags="0x400"/>
      <component glyphName="uni030B.case" x="16" y="0" flags="0x400"/>
    </TTGlyph>
    <TTGlyph name="Omacron" xMin="27" yMin="-10" xMax="453" yMax="776">
      <component glyphName="O" x="0" y="0" flags="0x400"/>
      <component glyphName="uni0304.case" x="16" y="0" flags="0x400"/>
    </TTGlyph>
    <TTGlyph name="Omegatonos" xMin="-91" yMin="0" xMax="421" yMax="704">
      <component glyphName="tonos" x="-256" y="0" flags="0x400"/>
      <component glyphName="uni03A9" x="0" y="0" flags="0x400"/>
    </TTGlyph>
    <TTGlyph name="Omicron" xMin="27" yMin="-10" xMax="453" yMax="650">
      <component glyphName="O" x="0" y="0" flags="0x400"/>
    </TTGlyph>
    <TTGlyph name="Omicrontonos" xMin="-91" yMin="-10" xMax="452" yMax="704">
      <component glyphName="tonos" x="-256" y="0" flags="0x400"/>
      <component glyphName="Omicron" x="-1" y="0" flags="0x400"/>
    </TTGlyph>
    <TTGlyph name="Oslash" xMin="27" yMin="-26" xMax="453" yMax="666">
      <component glyphName="O" x="0" y="0" flags="0x400"/>
      <component glyphName="_part.slash.O" x="16" y="0" flags="0x400"/>
    </TTGlyph>
    <TTGlyph name="Oslashacute" xMin="27" yMin="-26" xMax="453" yMax="832">
      <component glyphName="Oslash" x="0" y="0" flags="0x400"/>
      <component glyphName="acutecomb.case" x="16" y="0" flags="0x400"/>
    </TTGlyph>
    <TTGlyph name="Otilde" xMin="27" yMin="-10" xMax="453" yMax="842">
      <component glyphName="O" x="0" y="0" flags="0x400"/>
      <component glyphName="tildecomb.case" x="16" y="0" flags="0x400"/>
    </TTGlyph>
    <TTGlyph name="P" xMin="50" yMin="0" xMax="411" yMax="640">
      <contour>
        <pt x="50" y="640" on="1"/>
        <pt x="218" y="640" on="1"/>
        <pt x="307" y="640" on="0"/>
        <pt x="411" y="519" on="0"/>
        <pt x="411" y="410" on="1"/>
        <pt x="411" y="301" on="0"/>
        <pt x="307" y="184" on="0"/>
        <pt x="218" y="184" on="1"/>
        <pt x="162" y="184" on="1"/>
        <pt x="162" y="0" on="1"/>
        <pt x="50" y="0" on="1"/>
      </contour>
      <contour>
        <pt x="194" y="263" on="1"/>
        <pt x="252" y="263" on="0"/>
        <pt x="295" y="337" on="0"/>
        <pt x="295" y="409" on="1"/>
        <pt x="295" y="484" on="0"/>
        <pt x="251" y="560" on="0"/>
        <pt x="194" y="560" on="1"/>
        <pt x="162" y="560" on="1"/>
        <pt x="162" y="263" on="1"/>
      </contour>
    </TTGlyph>
    <TTGlyph name="P.short" xMin="50" yMin="0" xMax="411" yMax="576">
      <contour>
        <pt x="50" y="576" on="1"/>
        <pt x="218" y="576" on="1"/>
        <pt x="307" y="576" on="0"/>
        <pt x="411" y="473" on="0"/>
        <pt x="411" y="379" on="1"/>
        <pt x="411" y="284" on="0"/>
        <pt x="307" y="184" on="0"/>
        <pt x="218" y="184" on="1"/>
        <pt x="162" y="184" on="1"/>
        <pt x="162" y="0" on="1"/>
        <pt x="50" y="0" on="1"/>
      </contour>
      <contour>
        <pt x="194" y="263" on="1"/>
        <pt x="252" y="263" on="0"/>
        <pt x="295" y="321" on="0"/>
        <pt x="295" y="378" on="1"/>
        <pt x="295" y="436" on="0"/>
        <pt x="251" y="496" on="0"/>
        <pt x="194" y="496" on="1"/>
        <pt x="162" y="496" on="1"/>
        <pt x="162" y="263" on="1"/>
      </contour>
    </TTGlyph>
    <TTGlyph name="P.sups" xMin="103" yMin="320" xMax="362" yMax="640">
      <contour>
        <pt x="103" y="640" on="1"/>
        <pt x="243" y="640" on="1"/>
        <pt x="300" y="640" on="0"/>
        <pt x="362" y="583" on="0"/>
        <pt x="362" y="533" on="1"/>
        <pt x="362" y="482" on="0"/>
        <pt x="300" y="426" on="0"/>
        <pt x="243" y="426" on="1"/>
        <pt x="207" y="426" on="1"/>
        <pt x="207" y="320" on="1"/>
        <pt x="103" y="320" on="1"/>
      </contour>
      <contour>
        <pt x="225" y="494" on="1"/>
        <pt x="254" y="494" on="0"/>
        <pt x="254" y="533" on="1"/>
        <pt x="254" y="572" on="0"/>
        <pt x="225" y="572" on="1"/>
        <pt x="207" y="572" on="1"/>
        <pt x="207" y="494" on="1"/>
      </contour>
    </TTGlyph>
    <TTGlyph name="Phi" xMin="26" yMin="0" xMax="594" yMax="640">
      <component glyphName="uni0424" x="0" y="0" flags="0x400"/>
    </TTGlyph>
    <TTGlyph name="Pi" xMin="50" yMin="0" xMax="430" yMax="640">
      <component glyphName="uni041F" x="0" y="0" flags="0x400"/>
    </TTGlyph>
    <TTGlyph name="Psi" xMin="20" yMin="0" xMax="428" yMax="640">
      <contour>
        <pt x="276" y="270" on="1"/>
        <pt x="302" y="288" on="0"/>
        <pt x="324" y="375" on="0"/>
        <pt x="324" y="449" on="1"/>
        <pt x="324" y="529" on="0"/>
        <pt x="317" y="640" on="1"/>
        <pt x="412" y="640" on="1"/>
        <pt x="428" y="534" on="0"/>
        <pt x="428" y="437" on="1"/>
        <pt x="428" y="329" on="0"/>
        <pt x="360" y="203" on="0"/>
        <pt x="280" y="187" on="1"/>
        <pt x="280" y="0" on="1"/>
        <pt x="168" y="0" on="1"/>
        <pt x="168" y="187" on="1"/>
        <pt x="88" y="203" on="0"/>
        <pt x="20" y="329" on="0"/>
        <pt x="20" y="437" on="1"/>
        <pt x="20" y="534" on="0"/>
        <pt x="36" y="640" on="1"/>
        <pt x="131" y="640" on="1"/>
        <pt x="124" y="529" on="0"/>
        <pt x="124" y="449" on="1"/>
        <pt x="124" y="375" on="0"/>
        <pt x="146" y="288" on="0"/>
        <pt x="172" y="270" on="1"/>
        <pt x="168" y="640" on="1"/>
        <pt x="280" y="640" on="1"/>
      </contour>
    </TTGlyph>
    <TTGlyph name="Q" xMin="27" yMin="-152" xMax="453" yMax="650">
      <contour>
        <pt x="334" y="-148" on="0"/>
        <pt x="226" y="-79" on="0"/>
        <pt x="207" y="-8" on="1"/>
        <pt x="27" y="17" on="0"/>
        <pt x="27" y="319" on="1"/>
        <pt x="27" y="486" on="0"/>
        <pt x="133" y="650" on="0"/>
        <pt x="240" y="650" on="1"/>
        <pt x="349" y="650" on="0"/>
        <pt x="453" y="487" on="0"/>
        <pt x="453" y="319" on="1"/>
        <pt x="453" y="179" on="0"/>
        <pt x="378" y="18" on="0"/>
        <pt x="300" y="-3" on="1"/>
        <pt x="311" y="-33" on="0"/>
        <pt x="378" y="-58" on="0"/>
        <pt x="437" y="-60" on="1"/>
        <pt x="428" y="-152" on="1"/>
      </contour>
      <contour>
        <pt x="143" y="228" on="0"/>
        <pt x="162" y="121" on="0"/>
        <pt x="204" y="72" on="0"/>
        <pt x="240" y="72" on="1"/>
        <pt x="276" y="72" on="0"/>
        <pt x="318" y="121" on="0"/>
        <pt x="337" y="228" on="0"/>
        <pt x="337" y="319" on="1"/>
        <pt x="337" y="411" on="0"/>
        <pt x="318" y="519" on="0"/>
        <pt x="276" y="568" on="0"/>
        <pt x="240" y="568" on="1"/>
        <pt x="204" y="568" on="0"/>
        <pt x="162" y="519" on="0"/>
        <pt x="143" y="411" on="0"/>
        <pt x="143" y="319" on="1"/>
      </contour>
    </TTGlyph>
    <TTGlyph name="Q.sups" xMin="84" yMin="256" xMax="364" yMax="644">
      <contour>
        <pt x="125" y="339" on="0"/>
        <pt x="84" y="422" on="0"/>
        <pt x="84" y="480" on="1"/>
        <pt x="84" y="554" on="0"/>
        <pt x="149" y="644" on="0"/>
        <pt x="224" y="644" on="1"/>
        <pt x="298" y="644" on="0"/>
        <pt x="364" y="554" on="0"/>
        <pt x="364" y="480" on="1"/>
        <pt x="364" y="423" on="0"/>
        <pt x="321" y="339" on="0"/>
        <pt x="276" y="324" on="1"/>
        <pt x="276" y="256" on="1"/>
        <pt x="172" y="256" on="1"/>
        <pt x="172" y="323" on="1"/>
      </contour>
      <contour>
        <pt x="188" y="425" on="0"/>
        <pt x="204" y="386" on="0"/>
        <pt x="224" y="386" on="1"/>
        <pt x="244" y="386" on="0"/>
        <pt x="260" y="425" on="0"/>
        <pt x="260" y="480" on="1"/>
        <pt x="260" y="534" on="0"/>
        <pt x="243" y="574" on="0"/>
        <pt x="224" y="574" on="1"/>
        <pt x="205" y="574" on="0"/>
        <pt x="188" y="534" on="0"/>
        <pt x="188" y="480" on="1"/>
      </contour>
    </TTGlyph>
    <TTGlyph name="R" xMin="50" yMin="0" xMax="421" yMax="640">
      <contour>
        <pt x="307" y="640" on="0"/>
        <pt x="411" y="531" on="0"/>
        <pt x="411" y="433" on="1"/>
        <pt x="411" y="360" on="0"/>
        <pt x="346" y="268" on="0"/>
        <pt x="287" y="252" on="1"/>
        <pt x="344" y="220" on="0"/>
        <pt x="414" y="90" on="0"/>
        <pt x="421" y="0" on="1"/>
        <pt x="307" y="0" on="1"/>
        <pt x="299" y="92" on="0"/>
        <pt x="238" y="201" on="0"/>
        <pt x="181" y="233" on="1"/>
        <pt x="162" y="233" on="1"/>
        <pt x="162" y="0" on="1"/>
        <pt x="50" y="0" on="1"/>
        <pt x="50" y="640" on="1"/>
        <pt x="218" y="640" on="1"/>
      </contour>
      <contour>
        <pt x="194" y="313" on="1"/>
        <pt x="251" y="313" on="0"/>
        <pt x="295" y="377" on="0"/>
        <pt x="295" y="437" on="1"/>
        <pt x="295" y="496" on="0"/>
        <pt x="250" y="560" on="0"/>
        <pt x="194" y="560" on="1"/>
        <pt x="162" y="560" on="1"/>
        <pt x="162" y="313" on="1"/>
      </contour>
    </TTGlyph>
    <TTGlyph name="R.short" xMin="50" yMin="0" xMax="421" yMax="576">
      <contour>
        <pt x="307" y="576" on="0"/>
        <pt x="411" y="476" on="0"/>
        <pt x="411" y="385" on="1"/>
        <pt x="411" y="319" on="0"/>
        <pt x="349" y="236" on="0"/>
        <pt x="292" y="221" on="1"/>
        <pt x="347" y="192" on="0"/>
        <pt x="414" y="78" on="0"/>
        <pt x="421" y="0" on="1"/>
        <pt x="307" y="0" on="1"/>
        <pt x="299" y="79" on="0"/>
        <pt x="238" y="173" on="0"/>
        <pt x="182" y="201" on="1"/>
        <pt x="162" y="201" on="1"/>
        <pt x="162" y="0" on="1"/>
        <pt x="50" y="0" on="1"/>
        <pt x="50" y="576" on="1"/>
        <pt x="218" y="576" on="1"/>
      </contour>
      <contour>
        <pt x="194" y="281" on="1"/>
        <pt x="251" y="281" on="0"/>
        <pt x="295" y="337" on="0"/>
        <pt x="295" y="389" on="1"/>
        <pt x="295" y="441" on="0"/>
        <pt x="250" y="496" on="0"/>
        <pt x="194" y="496" on="1"/>
        <pt x="162" y="496" on="1"/>
        <pt x="162" y="281" on="1"/>
      </contour>
    </TTGlyph>
    <TTGlyph name="R.sups" xMin="103" yMin="320" xMax="354" yMax="640">
      <contour>
        <pt x="278" y="640" on="0"/>
        <pt x="351" y="582" on="0"/>
        <pt x="351" y="531" on="1"/>
        <pt x="351" y="474" on="0"/>
        <pt x="299" y="448" on="1"/>
        <pt x="349" y="408" on="0"/>
        <pt x="354" y="320" on="1"/>
        <pt x="248" y="320" on="1"/>
        <pt x="244" y="362" on="0"/>
        <pt x="224" y="409" on="0"/>
        <pt x="207" y="421" on="1"/>
        <pt x="207" y="320" on="1"/>
        <pt x="103" y="320" on="1"/>
        <pt x="103" y="640" on="1"/>
        <pt x="220" y="640" on="1"/>
      </contour>
      <contour>
        <pt x="217" y="491" on="1"/>
        <pt x="233" y="491" on="0"/>
        <pt x="245" y="509" on="0"/>
        <pt x="245" y="531" on="1"/>
        <pt x="245" y="552" on="0"/>
        <pt x="233" y="570" on="0"/>
        <pt x="217" y="570" on="1"/>
        <pt x="207" y="570" on="1"/>
        <pt x="207" y="491" on="1"/>
      </contour>
    </TTGlyph>
    <TTGlyph name="Racute" xMin="50" yMin="0" xMax="421" yMax="832">
      <component glyphName="R" x="0" y="0" flags="0x400"/>
      <component glyphName="acutecomb.case" x="0" y="0" flags="0x400"/>
    </TTGlyph>
    <TTGlyph name="Rcaron" xMin="50" yMin="0" xMax="421" yMax="846">
      <component glyphName="R" x="0" y="0" flags="0x400"/>
      <component glyphName="uni030C.case" x="0" y="0" flags="0x400"/>
    </TTGlyph>
    <TTGlyph name="Rho" xMin="50" yMin="0" xMax="411" yMax="640">
      <component glyphName="P" x="0" y="0" flags="0x400"/>
    </TTGlyph>
    <TTGlyph name="S" xMin="37" yMin="-8" xMax="401" yMax="648">
      <contour>
        <pt x="157" y="-8" on="0"/>
        <pt x="71" y="9" on="0"/>
        <pt x="37" y="24" on="1"/>
        <pt x="61" y="98" on="1"/>
        <pt x="92" y="87" on="0"/>
        <pt x="147" y="74" on="0"/>
        <pt x="178" y="74" on="1"/>
        <pt x="285" y="74" on="0"/>
        <pt x="285" y="152" on="1"/>
        <pt x="285" y="188" on="0"/>
        <pt x="241" y="227" on="0"/>
        <pt x="193" y="249" on="1"/>
        <pt x="147" y="271" on="0"/>
        <pt x="90" y="312" on="0"/>
        <pt x="49" y="389" on="0"/>
        <pt x="49" y="451" on="1"/>
        <pt x="49" y="543" on="0"/>
        <pt x="156" y="648" on="0"/>
        <pt x="259" y="648" on="1"/>
        <pt x="332" y="648" on="0"/>
        <pt x="390" y="626" on="1"/>
        <pt x="370" y="549" on="1"/>
        <pt x="315" y="566" on="0"/>
        <pt x="273" y="566" on="1"/>
        <pt x="211" y="566" on="0"/>
        <pt x="165" y="510" on="0"/>
        <pt x="165" y="460" on="1"/>
        <pt x="165" y="427" on="0"/>
        <pt x="193" y="382" on="0"/>
        <pt x="235" y="355" on="0"/>
        <pt x="270" y="338" on="1"/>
        <pt x="312" y="317" on="0"/>
        <pt x="365" y="280" on="0"/>
        <pt x="401" y="213" on="0"/>
        <pt x="401" y="161" on="1"/>
        <pt x="401" y="75" on="0"/>
        <pt x="296" y="-8" on="0"/>
        <pt x="197" y="-8" on="1"/>
      </contour>
    </TTGlyph>
    <TTGlyph name="S.short" xMin="37" yMin="-8" xMax="401" yMax="584">
      <contour>
        <pt x="157" y="-8" on="0"/>
        <pt x="71" y="9" on="0"/>
        <pt x="37" y="24" on="1"/>
        <pt x="61" y="98" on="1"/>
        <pt x="92" y="87" on="0"/>
        <pt x="147" y="74" on="0"/>
        <pt x="178" y="74" on="1"/>
        <pt x="285" y="74" on="0"/>
        <pt x="285" y="138" on="1"/>
        <pt x="285" y="168" on="0"/>
        <pt x="242" y="201" on="0"/>
        <pt x="196" y="220" on="1"/>
        <pt x="150" y="240" on="0"/>
        <pt x="92" y="276" on="0"/>
        <pt x="49" y="349" on="0"/>
        <pt x="49" y="407" on="1"/>
        <pt x="49" y="489" on="0"/>
        <pt x="156" y="584" on="0"/>
        <pt x="259" y="584" on="1"/>
        <pt x="332" y="584" on="0"/>
        <pt x="390" y="562" on="1"/>
        <pt x="370" y="485" on="1"/>
        <pt x="315" y="502" on="0"/>
        <pt x="273" y="502" on="1"/>
        <pt x="211" y="502" on="0"/>
        <pt x="165" y="458" on="0"/>
        <pt x="165" y="418" on="1"/>
        <pt x="165" y="389" on="0"/>
        <pt x="192" y="350" on="0"/>
        <pt x="231" y="327" on="0"/>
        <pt x="267" y="311" on="1"/>
        <pt x="311" y="291" on="0"/>
        <pt x="364" y="257" on="0"/>
        <pt x="401" y="193" on="0"/>
        <pt x="401" y="143" on="1"/>
        <pt x="401" y="67" on="0"/>
        <pt x="295" y="-8" on="0"/>
        <pt x="197" y="-8" on="1"/>
      </contour>
    </TTGlyph>
    <TTGlyph name="S.sups" xMin="105" yMin="316" xMax="340" yMax="644">
      <contour>
        <pt x="183" y="316" on="0"/>
        <pt x="125" y="324" on="0"/>
        <pt x="105" y="330" on="1"/>
        <pt x="119" y="394" on="1"/>
        <pt x="162" y="384" on="0"/>
        <pt x="195" y="384" on="1"/>
        <pt x="236" y="384" on="0"/>
        <pt x="236" y="411" on="1"/>
        <pt x="236" y="424" on="0"/>
        <pt x="215" y="439" on="0"/>
        <pt x="192" y="447" on="1"/>
        <pt x="166" y="458" on="0"/>
        <pt x="133" y="477" on="0"/>
        <pt x="108" y="516" on="0"/>
        <pt x="108" y="547" on="1"/>
        <pt x="108" y="590" on="0"/>
        <pt x="171" y="644" on="0"/>
        <pt x="234" y="644" on="1"/>
        <pt x="284" y="644" on="0"/>
        <pt x="335" y="629" on="1"/>
        <pt x="320" y="565" on="1"/>
        <pt x="278" y="576" on="0"/>
        <pt x="249" y="576" on="1"/>
        <pt x="231" y="576" on="0"/>
        <pt x="212" y="561" on="0"/>
        <pt x="212" y="550" on="1"/>
        <pt x="212" y="537" on="0"/>
        <pt x="233" y="524" on="0"/>
        <pt x="255" y="516" on="1"/>
        <pt x="281" y="507" on="0"/>
        <pt x="315" y="488" on="0"/>
        <pt x="340" y="448" on="0"/>
        <pt x="340" y="415" on="1"/>
        <pt x="340" y="372" on="0"/>
        <pt x="272" y="316" on="0"/>
        <pt x="210" y="316" on="1"/>
      </contour>
    </TTGlyph>
    <TTGlyph name="Sacute" xMin="37" yMin="-8" xMax="401" yMax="832">
      <component glyphName="S" x="0" y="0" flags="0x400"/>
      <component glyphName="acutecomb.case" x="0" y="0" flags="0x400"/>
    </TTGlyph>
    <TTGlyph name="Scaron" xMin="37" yMin="-8" xMax="401" yMax="846">
      <component glyphName="S" x="0" y="0" flags="0x400"/>
      <component glyphName="uni030C.case" x="0" y="0" flags="0x400"/>
    </TTGlyph>
    <TTGlyph name="Scedilla" xMin="37" yMin="-172" xMax="401" yMax="648">
      <component glyphName="S" x="0" y="0" flags="0x400"/>
      <component glyphName="uni0327" x="-55" y="20" flags="0x404"/>
    </TTGlyph>
    <TTGlyph name="Scircumflex" xMin="37" yMin="-8" xMax="401" yMax="842">
      <component glyphName="S" x="0" y="0" flags="0x400"/>
      <component glyphName="uni0302.case" x="0" y="0" flags="0x400"/>
    </TTGlyph>
    <TTGlyph name="Sigma" xMin="45" yMin="0" xMax="398" yMax="640">
      <contour>
        <pt x="166" y="320" on="1"/>
        <pt x="57" y="580" on="1"/>
        <pt x="57" y="640" on="1"/>
        <pt x="398" y="640" on="1"/>
        <pt x="398" y="560" on="1"/>
        <pt x="183" y="560" on="1"/>
        <pt x="284" y="320" on="1"/>
        <pt x="172" y="80" on="1"/>
        <pt x="398" y="80" on="1"/>
        <pt x="398" y="0" on="1"/>
        <pt x="45" y="0" on="1"/>
        <pt x="45" y="60" on="1"/>
      </contour>
    </TTGlyph>
    <TTGlyph name="T" xMin="24" yMin="0" xMax="424" yMax="640">
      <contour>
        <pt x="280" y="560" on="1"/>
        <pt x="280" y="0" on="1"/>
        <pt x="168" y="0" on="1"/>
        <pt x="168" y="560" on="1"/>
        <pt x="24" y="560" on="1"/>
        <pt x="24" y="640" on="1"/>
        <pt x="424" y="640" on="1"/>
        <pt x="424" y="560" on="1"/>
      </contour>
    </TTGlyph>
    <TTGlyph name="T.short" xMin="24" yMin="0" xMax="424" yMax="576">
      <contour>
        <pt x="280" y="496" on="1"/>
        <pt x="280" y="0" on="1"/>
        <pt x="168" y="0" on="1"/>
        <pt x="168" y="496" on="1"/>
        <pt x="24" y="496" on="1"/>
        <pt x="24" y="576" on="1"/>
        <pt x="424" y="576" on="1"/>
        <pt x="424" y="496" on="1"/>
      </contour>
    </TTGlyph>
    <TTGlyph name="T.sups" xMin="100" yMin="320" xMax="348" yMax="640">
      <contour>
        <pt x="172" y="570" on="1"/>
        <pt x="100" y="570" on="1"/>
        <pt x="100" y="640" on="1"/>
        <pt x="348" y="640" on="1"/>
        <pt x="348" y="570" on="1"/>
        <pt x="276" y="570" on="1"/>
        <pt x="276" y="320" on="1"/>
        <pt x="172" y="320" on="1"/>
      </contour>
    </TTGlyph>
    <TTGlyph name="Tau" xMin="24" yMin="0" xMax="424" yMax="640">
      <component glyphName="T" x="0" y="0" flags="0x400"/>
    </TTGlyph>
    <TTGlyph name="Tbar" xMin="24" yMin="0" xMax="424" yMax="640">
      <component glyphName="T" x="0" y="0" flags="0x400"/>
      <component glyphName="uni0335" x="0" y="64" flags="0x404"/>
    </TTGlyph>
    <TTGlyph name="Tcaron" xMin="24" yMin="0" xMax="424" yMax="846">
      <component glyphName="T" x="0" y="0" flags="0x400"/>
      <component glyphName="uni030C.case" x="0" y="0" flags="0x400"/>
    </TTGlyph>
    <TTGlyph name="Theta" xMin="27" yMin="-10" xMax="453" yMax="650">
      <contour>
        <pt x="27" y="-10" on="0"/>
        <pt x="27" y="319" on="1"/>
        <pt x="27" y="486" on="0"/>
        <pt x="133" y="650" on="0"/>
        <pt x="240" y="650" on="1"/>
        <pt x="349" y="650" on="0"/>
        <pt x="453" y="487" on="0"/>
        <pt x="453" y="319" on="1"/>
        <pt x="453" y="154" on="0"/>
        <pt x="349" y="-10" on="0"/>
        <pt x="240" y="-10" on="1"/>
      </contour>
      <contour>
        <pt x="337" y="328" on="1"/>
        <pt x="336" y="416" on="0"/>
        <pt x="317" y="520" on="0"/>
        <pt x="275" y="568" on="0"/>
        <pt x="240" y="568" on="1"/>
        <pt x="205" y="568" on="0"/>
        <pt x="163" y="520" on="0"/>
        <pt x="144" y="416" on="0"/>
        <pt x="143" y="328" on="1"/>
      </contour>
      <contour>
        <pt x="149" y="154" on="0"/>
        <pt x="194" y="72" on="0"/>
        <pt x="240" y="72" on="1"/>
        <pt x="286" y="72" on="0"/>
        <pt x="331" y="154" on="0"/>
        <pt x="335" y="248" on="1"/>
        <pt x="145" y="248" on="1"/>
      </contour>
    </TTGlyph>
    <TTGlyph name="Thorn" xMin="50" yMin="0" xMax="411" yMax="640">
      <contour>
        <pt x="307" y="520" on="0"/>
        <pt x="411" y="414" on="0"/>
        <pt x="411" y="318" on="1"/>
        <pt x="411" y="222" on="0"/>
        <pt x="307" y="120" on="0"/>
        <pt x="219" y="120" on="1"/>
        <pt x="162" y="120" on="1"/>
        <pt x="162" y="0" on="1"/>
        <pt x="50" y="0" on="1"/>
        <pt x="50" y="640" on="1"/>
        <pt x="162" y="640" on="1"/>
        <pt x="162" y="520" on="1"/>
        <pt x="219" y="520" on="1"/>
      </contour>
      <contour>
        <pt x="194" y="200" on="1"/>
        <pt x="252" y="200" on="0"/>
        <pt x="297" y="259" on="0"/>
        <pt x="297" y="318" on="1"/>
        <pt x="297" y="379" on="0"/>
        <pt x="252" y="440" on="0"/>
        <pt x="194" y="440" on="1"/>
        <pt x="162" y="440" on="1"/>
        <pt x="162" y="200" on="1"/>
      </contour>
    </TTGlyph>
    <TTGlyph name="U" xMin="50" yMin="-10" xMax="430" yMax="640">
      <contour>
        <pt x="162" y="640" on="1"/>
        <pt x="162" y="186" on="1"/>
        <pt x="162" y="130" on="0"/>
        <pt x="196" y="76" on="0"/>
        <pt x="240" y="76" on="1"/>
        <pt x="282" y="76" on="0"/>
        <pt x="318" y="131" on="0"/>
        <pt x="318" y="186" on="1"/>
        <pt x="318" y="640" on="1"/>
        <pt x="430" y="640" on="1"/>
        <pt x="430" y="191" on="1"/>
        <pt x="430" y="88" on="0"/>
        <pt x="328" y="-10" on="0"/>
        <pt x="240" y="-10" on="1"/>
        <pt x="152" y="-10" on="0"/>
        <pt x="50" y="88" on="0"/>
        <pt x="50" y="191" on="1"/>
        <pt x="50" y="640" on="1"/>
      </contour>
    </TTGlyph>
    <TTGlyph name="U.short" xMin="50" yMin="-8" xMax="398" yMax="576">
      <contour>
        <pt x="162" y="576" on="1"/>
        <pt x="162" y="182" on="1"/>
        <pt x="162" y="126" on="0"/>
        <pt x="187" y="72" on="0"/>
        <pt x="224" y="72" on="1"/>
        <pt x="259" y="72" on="0"/>
        <pt x="286" y="127" on="0"/>
        <pt x="286" y="182" on="1"/>
        <pt x="286" y="576" on="1"/>
        <pt x="398" y="576" on="1"/>
        <pt x="398" y="187" on="1"/>
        <pt x="398" y="85" on="0"/>
        <pt x="305" y="-8" on="0"/>
        <pt x="224" y="-8" on="1"/>
        <pt x="143" y="-8" on="0"/>
        <pt x="50" y="85" on="0"/>
        <pt x="50" y="187" on="1"/>
        <pt x="50" y="576" on="1"/>
      </contour>
    </TTGlyph>
    <TTGlyph name="U.sups" xMin="96" yMin="316" xMax="352" yMax="640">
      <contour>
        <pt x="168" y="316" on="0"/>
        <pt x="96" y="372" on="0"/>
        <pt x="96" y="428" on="1"/>
        <pt x="96" y="640" on="1"/>
        <pt x="200" y="640" on="1"/>
        <pt x="200" y="427" on="1"/>
        <pt x="200" y="404" on="0"/>
        <pt x="212" y="386" on="0"/>
        <pt x="224" y="386" on="1"/>
        <pt x="236" y="386" on="0"/>
        <pt x="248" y="404" on="0"/>
        <pt x="248" y="427" on="1"/>
        <pt x="248" y="640" on="1"/>
        <pt x="352" y="640" on="1"/>
        <pt x="352" y="429" on="1"/>
        <pt x="352" y="372" on="0"/>
        <pt x="280" y="316" on="0"/>
        <pt x="224" y="316" on="1"/>
      </contour>
    </TTGlyph>
    <TTGlyph name="Uacute" xMin="50" yMin="-10" xMax="430" yMax="832">
      <component glyphName="U" x="0" y="0" flags="0x400"/>
      <component glyphName="acutecomb.case" x="16" y="0" flags="0x400"/>
    </TTGlyph>
    <TTGlyph name="Ubreve" xMin="50" yMin="-10" xMax="430" yMax="846">
      <component glyphName="U" x="0" y="0" flags="0x400"/>
      <component glyphName="uni0306.case" x="16" y="0" flags="0x400"/>
    </TTGlyph>
    <TTGlyph name="Ucircumflex" xMin="50" yMin="-10" xMax="430" yMax="842">
      <component glyphName="U" x="0" y="0" flags="0x400"/>
      <component glyphName="uni0302.case" x="16" y="0" flags="0x400"/>
    </TTGlyph>
    <TTGlyph name="Udieresis" xMin="50" yMin="-10" xMax="430" yMax="830">
      <component glyphName="U" x="0" y="0" flags="0x400"/>
      <component glyphName="uni0308.case" x="16" y="0" flags="0x400"/>
    </TTGlyph>
    <TTGlyph name="Ugrave" xMin="50" yMin="-10" xMax="430" yMax="832">
      <component glyphName="U" x="0" y="0" flags="0x400"/>
      <component glyphName="gravecomb.case" x="16" y="0" flags="0x400"/>
    </TTGlyph>
    <TTGlyph name="Uhorn" xMin="50" yMin="-10" xMax="525" yMax="776">
      <component glyphName="U" x="0" y="0" flags="0x400"/>
      <component glyphName="uni031B.case" x="32" y="0" flags="0x400"/>
    </TTGlyph>
    <TTGlyph name="Uhorn.short" xMin="50" yMin="-8" xMax="493" yMax="712">
      <component glyphName="U.short" x="0" y="0" flags="0x400"/>
      <component glyphName="uni031B.case" x="0" y="-64" flags="0x404"/>
    </TTGlyph>
    <TTGlyph name="Uhungarumlaut" xMin="50" yMin="-10" xMax="455" yMax="846">
      <component glyphName="U" x="0" y="0" flags="0x400"/>
      <component glyphName="uni030B.case" x="16" y="0" flags="0x400"/>
    </TTGlyph>
    <TTGlyph name="Umacron" xMin="50" yMin="-10" xMax="430" yMax="776">
      <component glyphName="U" x="0" y="0" flags="0x400"/>
      <component glyphName="uni0304.case" x="16" y="0" flags="0x400"/>
    </TTGlyph>
    <TTGlyph name="Uogonek" xMin="50" yMin="-197" xMax="430" yMax="640">
      <component glyphName="U" x="0" y="0" flags="0x400"/>
      <component glyphName="uni0328" x="-92" y="0" flags="0x400"/>
    </TTGlyph>
    <TTGlyph name="Upsilon" xMin="10" yMin="0" xMax="438" yMax="640">
      <contour>
        <pt x="168" y="441" on="0"/>
        <pt x="10" y="640" on="1"/>
        <pt x="144" y="640" on="1"/>
        <pt x="200" y="539" on="0"/>
        <pt x="224" y="415" on="1"/>
        <pt x="248" y="539" on="0"/>
        <pt x="304" y="640" on="1"/>
        <pt x="438" y="640" on="1"/>
        <pt x="280" y="438" on="0"/>
        <pt x="280" y="170" on="1"/>
        <pt x="280" y="0" on="1"/>
        <pt x="168" y="0" on="1"/>
        <pt x="168" y="170" on="1"/>
      </contour>
    </TTGlyph>
    <TTGlyph name="Upsilondieresis" xMin="10" yMin="0" xMax="438" yMax="830">
      <component glyphName="Upsilon" x="0" y="0" flags="0x400"/>
      <component glyphName="uni0308.case" x="0" y="0" flags="0x400"/>
    </TTGlyph>
    <TTGlyph name="Upsilontonos" xMin="-91" yMin="0" xMax="438" yMax="704">
      <component glyphName="Upsilon" x="0" y="0" flags="0x400"/>
      <component glyphName="tonos" x="-256" y="0" flags="0x400"/>
    </TTGlyph>
    <TTGlyph name="Uring" xMin="50" yMin="-10" xMax="430" yMax="899">
      <component glyphName="U" x="0" y="0" flags="0x400"/>
      <component glyphName="uni030A.case" x="16" y="64" flags="0x404"/>
    </TTGlyph>
    <TTGlyph name="Utilde" xMin="50" yMin="-10" xMax="430" yMax="842">
      <component glyphName="U" x="0" y="0" flags="0x400"/>
      <component glyphName="tildecomb.case" x="16" y="0" flags="0x400"/>
    </TTGlyph>
    <TTGlyph name="V" xMin="25" yMin="0" xMax="423" yMax="640">
      <contour>
        <pt x="114" y="121" on="0"/>
        <pt x="40" y="453" on="0"/>
        <pt x="25" y="640" on="1"/>
        <pt x="140" y="640" on="1"/>
        <pt x="164" y="327" on="0"/>
        <pt x="224" y="122" on="1"/>
        <pt x="284" y="327" on="0"/>
        <pt x="308" y="640" on="1"/>
        <pt x="423" y="640" on="1"/>
        <pt x="408" y="453" on="0"/>
        <pt x="334" y="121" on="0"/>
        <pt x="276" y="0" on="1"/>
        <pt x="172" y="0" on="1"/>
      </contour>
    </TTGlyph>
    <TTGlyph name="V.sups" xMin="83" yMin="320" xMax="364" yMax="640">
      <contour>
        <pt x="101" y="496" on="0"/>
        <pt x="83" y="640" on="1"/>
        <pt x="192" y="640" on="1"/>
        <pt x="204" y="556" on="0"/>
        <pt x="224" y="472" on="1"/>
        <pt x="246" y="557" on="0"/>
        <pt x="256" y="640" on="1"/>
        <pt x="364" y="640" on="1"/>
        <pt x="342" y="477" on="0"/>
        <pt x="268" y="320" on="1"/>
        <pt x="179" y="320" on="1"/>
      </contour>
    </TTGlyph>
    <TTGlyph name="W" xMin="17" yMin="0" xMax="559" yMax="640">
      <contour>
        <pt x="67" y="152" on="0"/>
        <pt x="22" y="459" on="0"/>
        <pt x="17" y="640" on="1"/>
        <pt x="130" y="640" on="1"/>
        <pt x="134" y="385" on="0"/>
        <pt x="187" y="127" on="1"/>
        <pt x="234" y="345" on="0"/>
        <pt x="237" y="576" on="1"/>
        <pt x="339" y="576" on="1"/>
        <pt x="342" y="355" on="0"/>
        <pt x="392" y="131" on="1"/>
        <pt x="442" y="380" on="0"/>
        <pt x="446" y="640" on="1"/>
        <pt x="559" y="640" on="1"/>
        <pt x="554" y="459" on="0"/>
        <pt x="509" y="152" on="0"/>
        <pt x="460" y="0" on="1"/>
        <pt x="346" y="0" on="1"/>
        <pt x="307" y="129" on="0"/>
        <pt x="288" y="269" on="1"/>
        <pt x="271" y="138" on="0"/>
        <pt x="230" y="0" on="1"/>
        <pt x="116" y="0" on="1"/>
      </contour>
    </TTGlyph>
    <TTGlyph name="W.short" xMin="22" yMin="0" xMax="426" yMax="576">
      <contour>
        <pt x="54" y="135" on="0"/>
        <pt x="24" y="397" on="0"/>
        <pt x="22" y="576" on="1"/>
        <pt x="134" y="576" on="1"/>
        <pt x="136" y="414" on="0"/>
        <pt x="144" y="223" on="0"/>
        <pt x="158" y="129" on="1"/>
        <pt x="182" y="273" on="0"/>
        <pt x="182" y="448" on="1"/>
        <pt x="266" y="448" on="1"/>
        <pt x="266" y="273" on="0"/>
        <pt x="290" y="129" on="1"/>
        <pt x="304" y="223" on="0"/>
        <pt x="312" y="414" on="0"/>
        <pt x="314" y="576" on="1"/>
        <pt x="426" y="576" on="1"/>
        <pt x="424" y="397" on="0"/>
        <pt x="394" y="135" on="0"/>
        <pt x="356" y="0" on="1"/>
        <pt x="257" y="0" on="1"/>
        <pt x="235" y="63" on="0"/>
        <pt x="224" y="145" on="1"/>
        <pt x="213" y="63" on="0"/>
        <pt x="191" y="0" on="1"/>
        <pt x="92" y="0" on="1"/>
      </contour>
    </TTGlyph>
    <TTGlyph name="W.sups" xMin="73" yMin="320" xMax="375" yMax="640">
      <contour>
        <pt x="93" y="406" on="0"/>
        <pt x="73" y="548" on="0"/>
        <pt x="74" y="640" on="1"/>
        <pt x="166" y="640" on="1"/>
        <pt x="168" y="504" on="0"/>
        <pt x="176" y="428" on="1"/>
        <pt x="187" y="497" on="0"/>
        <pt x="187" y="564" on="1"/>
        <pt x="261" y="564" on="1"/>
        <pt x="261" y="497" on="0"/>
        <pt x="272" y="428" on="1"/>
        <pt x="280" y="504" on="0"/>
        <pt x="282" y="640" on="1"/>
        <pt x="374" y="640" on="1"/>
        <pt x="375" y="548" on="0"/>
        <pt x="355" y="406" on="0"/>
        <pt x="332" y="320" on="1"/>
        <pt x="245" y="320" on="1"/>
        <pt x="231" y="376" on="0"/>
        <pt x="224" y="429" on="1"/>
        <pt x="217" y="376" on="0"/>
        <pt x="203" y="320" on="1"/>
        <pt x="116" y="320" on="1"/>
      </contour>
    </TTGlyph>
    <TTGlyph name="Wacute" xMin="17" yMin="0" xMax="559" yMax="832">
      <component glyphName="W" x="0" y="0" flags="0x400"/>
      <component glyphName="acutecomb.case" x="64" y="0" flags="0x400"/>
    </TTGlyph>
    <TTGlyph name="Wcircumflex" xMin="17" yMin="0" xMax="559" yMax="842">
      <component glyphName="W" x="0" y="0" flags="0x400"/>
      <component glyphName="uni0302.case" x="64" y="0" flags="0x400"/>
    </TTGlyph>
    <TTGlyph name="Wdieresis" xMin="17" yMin="0" xMax="559" yMax="830">
      <component glyphName="W" x="0" y="0" flags="0x400"/>
      <component glyphName="uni0308.case" x="64" y="0" flags="0x400"/>
    </TTGlyph>
    <TTGlyph name="Wgrave" xMin="17" yMin="0" xMax="559" yMax="832">
      <component glyphName="W" x="0" y="0" flags="0x400"/>
      <component glyphName="gravecomb.case" x="64" y="0" flags="0x400"/>
    </TTGlyph>
    <TTGlyph name="X" xMin="37" yMin="0" xMax="410" yMax="640">
      <contour>
        <pt x="53" y="95" on="0"/>
        <pt x="105" y="229" on="0"/>
        <pt x="155" y="301" on="1"/>
        <pt x="104" y="366" on="0"/>
        <pt x="57" y="517" on="0"/>
        <pt x="46" y="640" on="1"/>
        <pt x="158" y="640" on="1"/>
        <pt x="166" y="541" on="0"/>
        <pt x="195" y="422" on="0"/>
        <pt x="224" y="377" on="1"/>
        <pt x="253" y="422" on="0"/>
        <pt x="282" y="541" on="0"/>
        <pt x="290" y="640" on="1"/>
        <pt x="402" y="640" on="1"/>
        <pt x="391" y="517" on="0"/>
        <pt x="344" y="366" on="0"/>
        <pt x="293" y="301" on="1"/>
        <pt x="343" y="229" on="0"/>
        <pt x="394" y="96" on="0"/>
        <pt x="410" y="0" on="1"/>
        <pt x="296" y="0" on="1"/>
        <pt x="282" y="76" on="0"/>
        <pt x="250" y="175" on="0"/>
        <pt x="224" y="220" on="1"/>
        <pt x="197" y="175" on="0"/>
        <pt x="165" y="76" on="0"/>
        <pt x="151" y="0" on="1"/>
        <pt x="37" y="0" on="1"/>
      </contour>
    </TTGlyph>
    <TTGlyph name="X.sups" xMin="89" yMin="320" xMax="358" yMax="640">
      <contour>
        <pt x="98" y="368" on="0"/>
        <pt x="129" y="434" on="0"/>
        <pt x="160" y="469" on="1"/>
        <pt x="128" y="503" on="0"/>
        <pt x="102" y="578" on="0"/>
        <pt x="96" y="640" on="1"/>
        <pt x="200" y="640" on="1"/>
        <pt x="207" y="564" on="0"/>
        <pt x="225" y="533" on="1"/>
        <pt x="234" y="550" on="0"/>
        <pt x="244" y="599" on="0"/>
        <pt x="248" y="640" on="1"/>
        <pt x="352" y="640" on="1"/>
        <pt x="346" y="578" on="0"/>
        <pt x="319" y="503" on="0"/>
        <pt x="287" y="470" on="1"/>
        <pt x="319" y="435" on="0"/>
        <pt x="349" y="370" on="0"/>
        <pt x="358" y="320" on="1"/>
        <pt x="253" y="320" on="1"/>
        <pt x="245" y="352" on="0"/>
        <pt x="231" y="391" on="0"/>
        <pt x="222" y="405" on="1"/>
        <pt x="206" y="375" on="0"/>
        <pt x="194" y="320" on="1"/>
        <pt x="89" y="320" on="1"/>
      </contour>
    </TTGlyph>
    <TTGlyph name="Xi" xMin="50" yMin="0" xMax="398" yMax="640">
      <contour>
        <pt x="393" y="640" on="1"/>
        <pt x="393" y="544" on="1"/>
        <pt x="55" y="544" on="1"/>
        <pt x="55" y="640" on="1"/>
      </contour>
      <contour>
        <pt x="50" y="96" on="1"/>
        <pt x="398" y="96" on="1"/>
        <pt x="398" y="0" on="1"/>
        <pt x="50" y="0" on="1"/>
      </contour>
      <contour>
        <pt x="104" y="336" on="1"/>
        <pt x="344" y="336" on="1"/>
        <pt x="344" y="240" on="1"/>
        <pt x="104" y="240" on="1"/>
      </contour>
    </TTGlyph>
    <TTGlyph name="Y" xMin="26" yMin="0" xMax="422" yMax="640">
      <contour>
        <pt x="168" y="202" on="1"/>
        <pt x="110" y="285" on="0"/>
        <pt x="41" y="497" on="0"/>
        <pt x="26" y="640" on="1"/>
        <pt x="138" y="640" on="1"/>
        <pt x="143" y="522" on="0"/>
        <pt x="181" y="364" on="0"/>
        <pt x="224" y="276" on="1"/>
        <pt x="267" y="364" on="0"/>
        <pt x="305" y="522" on="0"/>
        <pt x="310" y="640" on="1"/>
        <pt x="422" y="640" on="1"/>
        <pt x="407" y="497" on="0"/>
        <pt x="338" y="285" on="0"/>
        <pt x="280" y="202" on="1"/>
        <pt x="280" y="0" on="1"/>
        <pt x="168" y="0" on="1"/>
      </contour>
    </TTGlyph>
    <TTGlyph name="Y.short" xMin="26" yMin="0" xMax="422" yMax="576">
      <contour>
        <pt x="168" y="170" on="1"/>
        <pt x="110" y="247" on="0"/>
        <pt x="41" y="444" on="0"/>
        <pt x="26" y="576" on="1"/>
        <pt x="138" y="576" on="1"/>
        <pt x="143" y="467" on="0"/>
        <pt x="181" y="320" on="0"/>
        <pt x="224" y="239" on="1"/>
        <pt x="267" y="320" on="0"/>
        <pt x="305" y="467" on="0"/>
        <pt x="310" y="576" on="1"/>
        <pt x="422" y="576" on="1"/>
        <pt x="407" y="444" on="0"/>
        <pt x="338" y="247" on="0"/>
        <pt x="280" y="170" on="1"/>
        <pt x="280" y="0" on="1"/>
        <pt x="168" y="0" on="1"/>
      </contour>
    </TTGlyph>
    <TTGlyph name="Y.sups" xMin="93" yMin="311" xMax="352" yMax="640">
      <contour>
        <pt x="179" y="385" on="0"/>
        <pt x="221" y="407" on="0"/>
        <pt x="231" y="433" on="1"/>
        <pt x="177" y="443" on="0"/>
        <pt x="122" y="493" on="0"/>
        <pt x="101" y="570" on="0"/>
        <pt x="93" y="640" on="1"/>
        <pt x="199" y="640" on="1"/>
        <pt x="204" y="587" on="0"/>
        <pt x="213" y="537" on="0"/>
        <pt x="229" y="510" on="0"/>
        <pt x="245" y="505" on="1"/>
        <pt x="248" y="538" on="0"/>
        <pt x="248" y="640" on="1"/>
        <pt x="352" y="640" on="1"/>
        <pt x="352" y="544" on="0"/>
        <pt x="346" y="462" on="0"/>
        <pt x="336" y="427" on="1"/>
        <pt x="321" y="377" on="0"/>
        <pt x="224" y="316" on="0"/>
        <pt x="141" y="311" on="1"/>
        <pt x="129" y="379" on="1"/>
      </contour>
    </TTGlyph>
    <TTGlyph name="Yacute" xMin="26" yMin="0" xMax="422" yMax="832">
      <component glyphName="Y" x="0" y="0" flags="0x400"/>
      <component glyphName="acutecomb.case" x="0" y="0" flags="0x400"/>
    </TTGlyph>
    <TTGlyph name="Ycircumflex" xMin="26" yMin="0" xMax="422" yMax="842">
      <component glyphName="Y" x="0" y="0" flags="0x400"/>
      <component glyphName="uni0302.case" x="0" y="0" flags="0x400"/>
    </TTGlyph>
    <TTGlyph name="Ydieresis" xMin="26" yMin="0" xMax="422" yMax="830">
      <component glyphName="Y" x="0" y="0" flags="0x400"/>
      <component glyphName="uni0308.case" x="0" y="0" flags="0x400"/>
    </TTGlyph>
    <TTGlyph name="Ygrave" xMin="26" yMin="0" xMax="422" yMax="832">
      <component glyphName="Y" x="0" y="0" flags="0x400"/>
      <component glyphName="gravecomb.case" x="0" y="0" flags="0x400"/>
    </TTGlyph>
    <TTGlyph name="Z" xMin="33" yMin="0" xMax="378" yMax="640">
      <contour>
        <pt x="33" y="60" on="1"/>
        <pt x="253" y="560" on="1"/>
        <pt x="45" y="560" on="1"/>
        <pt x="45" y="640" on="1"/>
        <pt x="378" y="640" on="1"/>
        <pt x="378" y="580" on="1"/>
        <pt x="158" y="80" on="1"/>
        <pt x="378" y="80" on="1"/>
        <pt x="378" y="0" on="1"/>
        <pt x="33" y="0" on="1"/>
      </contour>
    </TTGlyph>
    <TTGlyph name="Z.sups" xMin="102" yMin="320" xMax="337" yMax="640">
      <contour>
        <pt x="102" y="379" on="1"/>
        <pt x="222" y="572" on="1"/>
        <pt x="106" y="572" on="1"/>
        <pt x="106" y="640" on="1"/>
        <pt x="337" y="640" on="1"/>
        <pt x="337" y="581" on="1"/>
        <pt x="217" y="388" on="1"/>
        <pt x="337" y="388" on="1"/>
        <pt x="337" y="320" on="1"/>
        <pt x="102" y="320" on="1"/>
      </contour>
    </TTGlyph>
    <TTGlyph name="Zacute" xMin="33" yMin="0" xMax="378" yMax="832">
      <component glyphName="Z" x="0" y="0" flags="0x400"/>
      <component glyphName="acutecomb.case" x="-20" y="0" flags="0x400"/>
    </TTGlyph>
    <TTGlyph name="Zcaron" xMin="33" yMin="0" xMax="378" yMax="846">
      <component glyphName="Z" x="0" y="0" flags="0x400"/>
      <component glyphName="uni030C.case" x="-20" y="0" flags="0x400"/>
    </TTGlyph>
    <TTGlyph name="Zdotaccent" xMin="33" yMin="0" xMax="378" yMax="850">
      <component glyphName="Z" x="0" y="0" flags="0x400"/>
      <component glyphName="uni0307" x="-20" y="192" flags="0x404"/>
    </TTGlyph>
    <TTGlyph name="Zeta" xMin="33" yMin="0" xMax="378" yMax="640">
      <component glyphName="Z" x="0" y="0" flags="0x400"/>
    </TTGlyph>
    <TTGlyph name="_part.slash.O" xMin="22" yMin="-26" xMax="426" yMax="666">
      <contour>
        <pt x="426" y="626" on="1"/>
        <pt x="101" y="-26" on="1"/>
        <pt x="22" y="15" on="1"/>
        <pt x="348" y="666" on="1"/>
      </contour>
    </TTGlyph>
    <TTGlyph name="_part.slash.comp" xMin="59" yMin="135" xMax="392" yMax="404">
      <contour>
        <pt x="346" y="404" on="1"/>
        <pt x="392" y="339" on="1"/>
        <pt x="105" y="135" on="1"/>
        <pt x="59" y="200" on="1"/>
      </contour>
    </TTGlyph>
    <TTGlyph name="_part.slash.o" xMin="42" yMin="-36" xMax="407" yMax="484">
      <contour>
        <pt x="407" y="441" on="1"/>
        <pt x="114" y="-36" on="1"/>
        <pt x="42" y="9" on="1"/>
        <pt x="334" y="484" on="1"/>
      </contour>
    </TTGlyph>
    <TTGlyph name="a" xMin="30" yMin="-4" xMax="370" yMax="454">
      <contour>
        <pt x="266" y="27" on="1"/>
        <pt x="211" y="-4" on="0"/>
        <pt x="156" y="-4" on="1"/>
        <pt x="99" y="-4" on="0"/>
        <pt x="30" y="62" on="0"/>
        <pt x="30" y="123" on="1"/>
        <pt x="30" y="194" on="0"/>
        <pt x="137" y="267" on="0"/>
        <pt x="256" y="274" on="1"/>
        <pt x="256" y="285" on="1"/>
        <pt x="256" y="331" on="0"/>
        <pt x="224" y="366" on="0"/>
        <pt x="182" y="366" on="1"/>
        <pt x="132" y="366" on="0"/>
        <pt x="66" y="344" on="1"/>
        <pt x="48" y="423" on="1"/>
        <pt x="130" y="454" on="0"/>
        <pt x="206" y="454" on="1"/>
        <pt x="287" y="454" on="0"/>
        <pt x="368" y="379" on="0"/>
        <pt x="368" y="299" on="1"/>
        <pt x="368" y="64" on="1"/>
        <pt x="370" y="0" on="1"/>
        <pt x="269" y="0" on="1"/>
      </contour>
      <contour>
        <pt x="146" y="104" on="0"/>
        <pt x="169" y="76" on="0"/>
        <pt x="193" y="76" on="1"/>
        <pt x="221" y="76" on="0"/>
        <pt x="256" y="97" on="1"/>
        <pt x="256" y="204" on="1"/>
        <pt x="197" y="198" on="0"/>
        <pt x="146" y="159" on="0"/>
        <pt x="146" y="128" on="1"/>
      </contour>
    </TTGlyph>
    <TTGlyph name="aacute" xMin="30" yMin="-4" xMax="370" yMax="704">
      <component glyphName="a" x="0" y="0" flags="0x400"/>
      <component glyphName="acutecomb" x="-14" y="0" flags="0x400"/>
    </TTGlyph>
    <TTGlyph name="abreve" xMin="30" yMin="-4" xMax="370" yMax="654">
      <component glyphName="a" x="0" y="0" flags="0x400"/>
      <component glyphName="uni0306" x="-14" y="0" flags="0x400"/>
    </TTGlyph>
    <TTGlyph name="acircumflex" xMin="30" yMin="-4" xMax="370" yMax="650">
      <component glyphName="a" x="0" y="0" flags="0x400"/>
      <component glyphName="uni0302" x="-14" y="0" flags="0x400"/>
    </TTGlyph>
    <TTGlyph name="acute" xMin="129" yMin="384" xMax="332" yMax="640">
      <contour>
        <pt x="129" y="384" on="1"/>
        <pt x="195" y="640" on="1"/>
        <pt x="332" y="640" on="1"/>
        <pt x="241" y="384" on="1"/>
      </contour>
    </TTGlyph>
    <TTGlyph name="acutecomb" xMin="179" yMin="512" xMax="375" yMax="704">
      <contour>
        <pt x="210" y="704" on="1"/>
        <pt x="375" y="704" on="1"/>
        <pt x="269" y="512" on="1"/>
        <pt x="179" y="512" on="1"/>
      </contour>
    </TTGlyph>
    <TTGlyph name="acutecomb.alt" xMin="179" yMin="508" xMax="375" yMax="654">
      <contour>
        <pt x="210" y="654" on="1"/>
        <pt x="375" y="654" on="1"/>
        <pt x="269" y="508" on="1"/>
        <pt x="179" y="508" on="1"/>
      </contour>
    </TTGlyph>
    <TTGlyph name="acutecomb.case" xMin="179" yMin="700" xMax="369" yMax="832">
      <contour>
        <pt x="204" y="832" on="1"/>
        <pt x="369" y="832" on="1"/>
        <pt x="269" y="700" on="1"/>
        <pt x="179" y="700" on="1"/>
      </contour>
    </TTGlyph>
    <TTGlyph name="adieresis" xMin="30" yMin="-4" xMax="370" yMax="658">
      <component glyphName="a" x="0" y="0" flags="0x400"/>
      <component glyphName="uni0308" x="-14" y="0" flags="0x400"/>
    </TTGlyph>
    <TTGlyph name="ae" xMin="38" yMin="-11" xMax="662" yMax="459">
      <contour>
        <pt x="382" y="-11" on="0"/>
        <pt x="327" y="51" on="1"/>
        <pt x="253" y="-8" on="0"/>
        <pt x="187" y="-8" on="1"/>
        <pt x="122" y="-8" on="0"/>
        <pt x="38" y="60" on="0"/>
        <pt x="38" y="123" on="1"/>
        <pt x="38" y="191" on="0"/>
        <pt x="151" y="267" on="0"/>
        <pt x="276" y="274" on="1"/>
        <pt x="276" y="285" on="1"/>
        <pt x="276" y="331" on="0"/>
        <pt x="240" y="367" on="0"/>
        <pt x="196" y="367" on="1"/>
        <pt x="142" y="367" on="0"/>
        <pt x="74" y="345" on="1"/>
        <pt x="56" y="423" on="1"/>
        <pt x="141" y="455" on="0"/>
        <pt x="218" y="455" on="1"/>
        <pt x="317" y="455" on="0"/>
        <pt x="356" y="400" on="1"/>
        <pt x="399" y="459" on="0"/>
        <pt x="484" y="459" on="1"/>
        <pt x="569" y="459" on="0"/>
        <pt x="662" y="337" on="0"/>
        <pt x="662" y="230" on="1"/>
        <pt x="662" y="216" on="0"/>
        <pt x="660" y="188" on="1"/>
        <pt x="412" y="188" on="1"/>
        <pt x="416" y="122" on="0"/>
        <pt x="456" y="69" on="0"/>
        <pt x="501" y="69" on="1"/>
        <pt x="554" y="69" on="0"/>
        <pt x="625" y="95" on="1"/>
        <pt x="644" y="22" on="1"/>
        <pt x="563" y="-11" on="0"/>
        <pt x="495" y="-11" on="1"/>
      </contour>
      <contour>
        <pt x="154" y="102" on="0"/>
        <pt x="179" y="72" on="0"/>
        <pt x="205" y="72" on="1"/>
        <pt x="245" y="72" on="0"/>
        <pt x="293" y="110" on="1"/>
        <pt x="279" y="148" on="0"/>
        <pt x="276" y="204" on="1"/>
        <pt x="210" y="199" on="0"/>
        <pt x="154" y="161" on="0"/>
        <pt x="154" y="127" on="1"/>
      </contour>
      <contour>
        <pt x="546" y="266" on="1"/>
        <pt x="544" y="324" on="0"/>
        <pt x="511" y="379" on="0"/>
        <pt x="479" y="379" on="1"/>
        <pt x="447" y="379" on="0"/>
        <pt x="416" y="327" on="0"/>
        <pt x="412" y="266" on="1"/>
      </contour>
    </TTGlyph>
    <TTGlyph name="aeacute" xMin="38" yMin="-11" xMax="662" yMax="704">
      <component glyphName="ae" x="0" y="0" flags="0x400"/>
      <component glyphName="acutecomb" x="128" y="0" flags="0x400"/>
    </TTGlyph>
    <TTGlyph name="agrave" xMin="30" yMin="-4" xMax="370" yMax="704">
      <component glyphName="a" x="0" y="0" flags="0x400"/>
      <component glyphName="gravecomb" x="-14" y="0" flags="0x400"/>
    </TTGlyph>
    <TTGlyph name="alpha" xMin="28" yMin="-8" xMax="440" yMax="456">
      <contour>
        <pt x="316" y="-6" on="0"/>
        <pt x="300" y="39" on="1"/>
        <pt x="260" y="-8" on="0"/>
        <pt x="192" y="-8" on="1"/>
        <pt x="127" y="-8" on="0"/>
        <pt x="87" y="32" on="1"/>
        <pt x="57" y="62" on="0"/>
        <pt x="28" y="161" on="0"/>
        <pt x="28" y="224" on="1"/>
        <pt x="28" y="356" on="0"/>
        <pt x="87" y="415" on="1"/>
        <pt x="128" y="456" on="0"/>
        <pt x="193" y="456" on="1"/>
        <pt x="263" y="456" on="0"/>
        <pt x="305" y="407" on="1"/>
        <pt x="312" y="448" on="1"/>
        <pt x="400" y="448" on="1"/>
        <pt x="398" y="384" on="1"/>
        <pt x="398" y="97" on="1"/>
        <pt x="398" y="74" on="0"/>
        <pt x="422" y="74" on="1"/>
        <pt x="428" y="74" on="0"/>
        <pt x="440" y="76" on="1"/>
        <pt x="440" y="2" on="1"/>
        <pt x="406" y="-6" on="0"/>
        <pt x="375" y="-6" on="1"/>
      </contour>
      <contour>
        <pt x="146" y="167" on="0"/>
        <pt x="159" y="103" on="0"/>
        <pt x="175" y="87" on="1"/>
        <pt x="188" y="74" on="0"/>
        <pt x="212" y="74" on="1"/>
        <pt x="259" y="74" on="0"/>
        <pt x="283" y="112" on="1"/>
        <pt x="286" y="110" on="1"/>
        <pt x="286" y="338" on="1"/>
        <pt x="282" y="336" on="1"/>
        <pt x="258" y="374" on="0"/>
        <pt x="212" y="374" on="1"/>
        <pt x="187" y="374" on="0"/>
        <pt x="173" y="360" on="1"/>
        <pt x="159" y="346" on="0"/>
        <pt x="146" y="281" on="0"/>
        <pt x="146" y="224" on="1"/>
      </contour>
    </TTGlyph>
    <TTGlyph name="alphatonos" xMin="28" yMin="-8" xMax="440" yMax="704">
      <component glyphName="alpha" x="0" y="0" flags="0x400"/>
      <component glyphName="tonos" x="0" y="0" flags="0x400"/>
    </TTGlyph>
    <TTGlyph name="amacron" xMin="30" yMin="-4" xMax="370" yMax="640">
      <component glyphName="a" x="0" y="0" flags="0x400"/>
      <component glyphName="uni0304" x="-14" y="0" flags="0x400"/>
    </TTGlyph>
    <TTGlyph name="ampersand" xMin="25" yMin="-10" xMax="438" yMax="542">
      <contour>
        <pt x="267" y="462" on="0"/>
        <pt x="234" y="462" on="1"/>
        <pt x="190" y="462" on="0"/>
        <pt x="152" y="423" on="0"/>
        <pt x="152" y="395" on="1"/>
        <pt x="152" y="364" on="0"/>
        <pt x="194" y="328" on="0"/>
        <pt x="249" y="328" on="1"/>
        <pt x="438" y="328" on="1"/>
        <pt x="438" y="248" on="1"/>
        <pt x="378" y="248" on="1"/>
        <pt x="378" y="18" on="1"/>
        <pt x="337" y="5" on="0"/>
        <pt x="245" y="-10" on="0"/>
        <pt x="208" y="-10" on="1"/>
        <pt x="113" y="-10" on="0"/>
        <pt x="25" y="80" on="0"/>
        <pt x="25" y="149" on="1"/>
        <pt x="25" y="188" on="0"/>
        <pt x="62" y="261" on="0"/>
        <pt x="106" y="287" on="1"/>
        <pt x="40" y="323" on="0"/>
        <pt x="40" y="398" on="1"/>
        <pt x="40" y="462" on="0"/>
        <pt x="131" y="542" on="0"/>
        <pt x="217" y="542" on="1"/>
        <pt x="273" y="542" on="0"/>
        <pt x="332" y="526" on="1"/>
        <pt x="317" y="452" on="1"/>
      </contour>
      <contour>
        <pt x="138" y="70" on="0"/>
        <pt x="209" y="70" on="1"/>
        <pt x="234" y="70" on="0"/>
        <pt x="266" y="75" on="1"/>
        <pt x="266" y="248" on="1"/>
        <pt x="260" y="248" on="1"/>
        <pt x="192" y="248" on="0"/>
        <pt x="138" y="193" on="0"/>
        <pt x="138" y="152" on="1"/>
      </contour>
    </TTGlyph>
    <TTGlyph name="angle" xMin="54" yMin="64" xMax="394" yMax="536">
      <contour>
        <pt x="54" y="64" on="1"/>
        <pt x="54" y="140" on="1"/>
        <pt x="244" y="536" on="1"/>
        <pt x="336" y="494" on="1"/>
        <pt x="175" y="160" on="1"/>
        <pt x="394" y="160" on="1"/>
        <pt x="394" y="64" on="1"/>
      </contour>
    </TTGlyph>
    <TTGlyph name="anoteleia" xMin="76" yMin="290" xMax="244" yMax="458">
      <component glyphName="period" x="32" y="300" flags="0x404"/>
    </TTGlyph>
    <TTGlyph name="aogonek" xMin="30" yMin="-197" xMax="391" yMax="454">
      <component glyphName="a" x="0" y="0" flags="0x400"/>
      <component glyphName="uni0328" x="-24" y="0" flags="0x400"/>
    </TTGlyph>
    <TTGlyph name="approxequal" xMin="24" yMin="122" xMax="424" yMax="454">
      <contour>
        <pt x="280" y="122" on="0"/>
        <pt x="231" y="141" on="0"/>
        <pt x="202" y="159" on="1"/>
        <pt x="182" y="171" on="0"/>
        <pt x="158" y="182" on="0"/>
        <pt x="145" y="182" on="1"/>
        <pt x="106" y="182" on="0"/>
        <pt x="103" y="125" on="1"/>
        <pt x="24" y="130" on="1"/>
        <pt x="24" y="199" on="0"/>
        <pt x="83" y="274" on="0"/>
        <pt x="135" y="274" on="1"/>
        <pt x="168" y="274" on="0"/>
        <pt x="217" y="255" on="0"/>
        <pt x="246" y="237" on="1"/>
        <pt x="266" y="225" on="0"/>
        <pt x="290" y="214" on="0"/>
        <pt x="303" y="214" on="1"/>
        <pt x="322" y="214" on="0"/>
        <pt x="344" y="242" on="0"/>
        <pt x="345" y="271" on="1"/>
        <pt x="424" y="266" on="1"/>
        <pt x="424" y="197" on="0"/>
        <pt x="365" y="122" on="0"/>
        <pt x="313" y="122" on="1"/>
      </contour>
      <contour>
        <pt x="24" y="379" on="0"/>
        <pt x="83" y="454" on="0"/>
        <pt x="135" y="454" on="1"/>
        <pt x="168" y="454" on="0"/>
        <pt x="217" y="435" on="0"/>
        <pt x="246" y="417" on="1"/>
        <pt x="266" y="405" on="0"/>
        <pt x="290" y="394" on="0"/>
        <pt x="303" y="394" on="1"/>
        <pt x="322" y="394" on="0"/>
        <pt x="344" y="422" on="0"/>
        <pt x="345" y="451" on="1"/>
        <pt x="424" y="446" on="1"/>
        <pt x="424" y="377" on="0"/>
        <pt x="365" y="302" on="0"/>
        <pt x="313" y="302" on="1"/>
        <pt x="280" y="302" on="0"/>
        <pt x="231" y="321" on="0"/>
        <pt x="202" y="339" on="1"/>
        <pt x="182" y="351" on="0"/>
        <pt x="158" y="362" on="0"/>
        <pt x="145" y="362" on="1"/>
        <pt x="106" y="362" on="0"/>
        <pt x="103" y="305" on="1"/>
        <pt x="24" y="310" on="1"/>
      </contour>
    </TTGlyph>
    <TTGlyph name="aring" xMin="30" yMin="-4" xMax="370" yMax="707">
      <component glyphName="a" x="0" y="0" flags="0x400"/>
      <component glyphName="uni030A" x="-14" y="0" flags="0x400"/>
    </TTGlyph>
    <TTGlyph name="aringacute" xMin="30" yMin="-4" xMax="370" yMax="878">
      <component glyphName="a" x="0" y="0" flags="0x400"/>
      <component glyphName="uni030A" x="-14" y="0" flags="0x400"/>
      <component glyphName="acutecomb.alt" x="-14" y="224" flags="0x404"/>
    </TTGlyph>
    <TTGlyph name="arrowboth" xMin="-12" yMin="97" xMax="466" yMax="477">
      <contour>
        <pt x="225" y="139" on="1"/>
        <pt x="177" y="97" on="1"/>
        <pt x="-12" y="257" on="1"/>
        <pt x="-12" y="317" on="1"/>
        <pt x="177" y="477" on="1"/>
        <pt x="225" y="442" on="1"/>
        <pt x="173" y="339" on="1"/>
        <pt x="281" y="339" on="1"/>
        <pt x="229" y="442" on="1"/>
        <pt x="277" y="477" on="1"/>
        <pt x="466" y="317" on="1"/>
        <pt x="466" y="257" on="1"/>
        <pt x="277" y="97" on="1"/>
        <pt x="229" y="139" on="1"/>
        <pt x="280" y="235" on="1"/>
        <pt x="174" y="235" on="1"/>
      </contour>
    </TTGlyph>
    <TTGlyph name="arrowdown" xMin="34" yMin="44" xMax="414" yMax="522">
      <contour>
        <pt x="276" y="229" on="1"/>
        <pt x="379" y="281" on="1"/>
        <pt x="414" y="233" on="1"/>
        <pt x="254" y="44" on="1"/>
        <pt x="194" y="44" on="1"/>
        <pt x="34" y="233" on="1"/>
        <pt x="76" y="281" on="1"/>
        <pt x="172" y="230" on="1"/>
        <pt x="172" y="522" on="1"/>
        <pt x="276" y="522" on="1"/>
      </contour>
    </TTGlyph>
    <TTGlyph name="arrowleft" xMin="-20" yMin="98" xMax="458" yMax="478">
      <contour>
        <pt x="165" y="236" on="1"/>
        <pt x="217" y="133" on="1"/>
        <pt x="169" y="98" on="1"/>
        <pt x="-20" y="258" on="1"/>
        <pt x="-20" y="318" on="1"/>
        <pt x="169" y="478" on="1"/>
        <pt x="217" y="436" on="1"/>
        <pt x="166" y="340" on="1"/>
        <pt x="458" y="340" on="1"/>
        <pt x="458" y="236" on="1"/>
      </contour>
    </TTGlyph>
    <TTGlyph name="arrowright" xMin="-10" yMin="98" xMax="468" yMax="478">
      <contour>
        <pt x="283" y="340" on="1"/>
        <pt x="231" y="443" on="1"/>
        <pt x="279" y="478" on="1"/>
        <pt x="468" y="318" on="1"/>
        <pt x="468" y="258" on="1"/>
        <pt x="279" y="98" on="1"/>
        <pt x="231" y="140" on="1"/>
        <pt x="282" y="236" on="1"/>
        <pt x="-10" y="236" on="1"/>
        <pt x="-10" y="340" on="1"/>
      </contour>
    </TTGlyph>
    <TTGlyph name="arrowup" xMin="34" yMin="54" xMax="414" yMax="532">
      <contour>
        <pt x="172" y="347" on="1"/>
        <pt x="69" y="295" on="1"/>
        <pt x="34" y="343" on="1"/>
        <pt x="194" y="532" on="1"/>
        <pt x="254" y="532" on="1"/>
        <pt x="414" y="343" on="1"/>
        <pt x="372" y="295" on="1"/>
        <pt x="276" y="346" on="1"/>
        <pt x="276" y="54" on="1"/>
        <pt x="172" y="54" on="1"/>
      </contour>
    </TTGlyph>
    <TTGlyph name="arrowupdn" xMin="34" yMin="49" xMax="414" yMax="527">
      <contour>
        <pt x="76" y="290" on="1"/>
        <pt x="34" y="338" on="1"/>
        <pt x="194" y="527" on="1"/>
        <pt x="254" y="527" on="1"/>
        <pt x="414" y="338" on="1"/>
        <pt x="379" y="290" on="1"/>
        <pt x="276" y="342" on="1"/>
        <pt x="276" y="234" on="1"/>
        <pt x="379" y="286" on="1"/>
        <pt x="414" y="238" on="1"/>
        <pt x="254" y="49" on="1"/>
        <pt x="194" y="49" on="1"/>
        <pt x="34" y="238" on="1"/>
        <pt x="76" y="286" on="1"/>
        <pt x="172" y="235" on="1"/>
        <pt x="172" y="341" on="1"/>
      </contour>
    </TTGlyph>
    <TTGlyph name="arrowupdnbse" xMin="34" yMin="0" xMax="414" yMax="591">
      <contour>
        <pt x="36" y="96" on="1"/>
        <pt x="412" y="96" on="1"/>
        <pt x="412" y="0" on="1"/>
        <pt x="36" y="0" on="1"/>
      </contour>
      <contour>
        <pt x="76" y="350" on="1"/>
        <pt x="172" y="299" on="1"/>
        <pt x="172" y="405" on="1"/>
        <pt x="76" y="354" on="1"/>
        <pt x="34" y="402" on="1"/>
        <pt x="194" y="591" on="1"/>
        <pt x="254" y="591" on="1"/>
        <pt x="414" y="402" on="1"/>
        <pt x="379" y="354" on="1"/>
        <pt x="276" y="406" on="1"/>
        <pt x="276" y="298" on="1"/>
        <pt x="379" y="350" on="1"/>
        <pt x="414" y="302" on="1"/>
        <pt x="254" y="113" on="1"/>
        <pt x="194" y="113" on="1"/>
        <pt x="34" y="302" on="1"/>
      </contour>
    </TTGlyph>
    <TTGlyph name="asciicircum" xMin="38" yMin="192" xMax="410" yMax="566">
      <contour>
        <pt x="277" y="566" on="1"/>
        <pt x="410" y="192" on="1"/>
        <pt x="294" y="192" on="1"/>
        <pt x="224" y="426" on="1"/>
        <pt x="154" y="192" on="1"/>
        <pt x="38" y="192" on="1"/>
        <pt x="171" y="566" on="1"/>
      </contour>
    </TTGlyph>
    <TTGlyph name="asciitilde" xMin="-6" yMin="188" xMax="454" yMax="388">
      <contour>
        <pt x="282" y="188" on="0"/>
        <pt x="233" y="206" on="0"/>
        <pt x="205" y="232" on="0"/>
        <pt x="188" y="252" on="1"/>
        <pt x="172" y="272" on="0"/>
        <pt x="148" y="290" on="0"/>
        <pt x="130" y="290" on="1"/>
        <pt x="101" y="290" on="0"/>
        <pt x="77" y="247" on="0"/>
        <pt x="73" y="197" on="1"/>
        <pt x="-6" y="202" on="1"/>
        <pt x="-3" y="295" on="0"/>
        <pt x="60" y="388" on="0"/>
        <pt x="128" y="388" on="1"/>
        <pt x="180" y="388" on="0"/>
        <pt x="235" y="354" on="0"/>
        <pt x="260" y="324" on="1"/>
        <pt x="276" y="304" on="0"/>
        <pt x="300" y="286" on="0"/>
        <pt x="318" y="286" on="1"/>
        <pt x="347" y="286" on="0"/>
        <pt x="371" y="329" on="0"/>
        <pt x="375" y="379" on="1"/>
        <pt x="454" y="375" on="1"/>
        <pt x="451" y="281" on="0"/>
        <pt x="388" y="188" on="0"/>
        <pt x="318" y="188" on="1"/>
      </contour>
    </TTGlyph>
    <TTGlyph name="asterisk" xMin="17" yMin="64" xMax="431" yMax="512">
      <contour>
        <pt x="289" y="288" on="1"/>
        <pt x="431" y="187" on="1"/>
        <pt x="359" y="101" on="1"/>
        <pt x="270" y="189" on="1"/>
        <pt x="280" y="64" on="1"/>
        <pt x="168" y="64" on="1"/>
        <pt x="178" y="189" on="1"/>
        <pt x="89" y="102" on="1"/>
        <pt x="17" y="187" on="1"/>
        <pt x="159" y="288" on="1"/>
        <pt x="17" y="389" on="1"/>
        <pt x="89" y="475" on="1"/>
        <pt x="178" y="387" on="1"/>
        <pt x="168" y="512" on="1"/>
        <pt x="280" y="512" on="1"/>
        <pt x="270" y="387" on="1"/>
        <pt x="359" y="474" on="1"/>
        <pt x="431" y="389" on="1"/>
      </contour>
    </TTGlyph>
    <TTGlyph name="at" xMin="28" yMin="-128" xMax="408" yMax="586">
      <contour>
        <pt x="389" y="61" on="0"/>
        <pt x="336" y="56" on="0"/>
        <pt x="315" y="56" on="1"/>
        <pt x="239" y="56" on="0"/>
        <pt x="157" y="140" on="0"/>
        <pt x="157" y="218" on="1"/>
        <pt x="157" y="288" on="0"/>
        <pt x="224" y="375" on="0"/>
        <pt x="296" y="392" on="1"/>
        <pt x="294" y="451" on="0"/>
        <pt x="264" y="507" on="0"/>
        <pt x="231" y="507" on="1"/>
        <pt x="196" y="507" on="0"/>
        <pt x="157" y="451" on="0"/>
        <pt x="140" y="328" on="0"/>
        <pt x="140" y="223" on="1"/>
        <pt x="140" y="118" on="0"/>
        <pt x="163" y="2" on="0"/>
        <pt x="216" y="-48" on="0"/>
        <pt x="264" y="-48" on="1"/>
        <pt x="304" y="-48" on="0"/>
        <pt x="347" y="-38" on="1"/>
        <pt x="366" y="-103" on="1"/>
        <pt x="339" y="-115" on="0"/>
        <pt x="274" y="-128" on="0"/>
        <pt x="244" y="-128" on="1"/>
        <pt x="131" y="-128" on="0"/>
        <pt x="28" y="40" on="0"/>
        <pt x="28" y="223" on="1"/>
        <pt x="28" y="409" on="0"/>
        <pt x="123" y="586" on="0"/>
        <pt x="233" y="586" on="1"/>
        <pt x="321" y="586" on="0"/>
        <pt x="408" y="475" on="0"/>
        <pt x="408" y="379" on="1"/>
        <pt x="408" y="66" on="1"/>
      </contour>
      <contour>
        <pt x="271" y="179" on="0"/>
        <pt x="283" y="139" on="0"/>
        <pt x="296" y="138" on="1"/>
        <pt x="296" y="302" on="1"/>
        <pt x="282" y="290" on="0"/>
        <pt x="271" y="251" on="0"/>
        <pt x="271" y="220" on="1"/>
      </contour>
    </TTGlyph>
    <TTGlyph name="atilde" xMin="30" yMin="-4" xMax="372" yMax="650">
      <component glyphName="a" x="0" y="0" flags="0x400"/>
      <component glyphName="tildecomb" x="-14" y="0" flags="0x400"/>
    </TTGlyph>
    <TTGlyph name="b" xMin="48" yMin="-8" xMax="414" yMax="640">
      <contour>
        <pt x="50" y="65" on="1"/>
        <pt x="50" y="640" on="1"/>
        <pt x="162" y="640" on="1"/>
        <pt x="162" y="428" on="1"/>
        <pt x="197" y="456" on="0"/>
        <pt x="250" y="456" on="1"/>
        <pt x="315" y="456" on="0"/>
        <pt x="355" y="416" on="1"/>
        <pt x="385" y="386" on="0"/>
        <pt x="414" y="287" on="0"/>
        <pt x="414" y="224" on="1"/>
        <pt x="414" y="92" on="0"/>
        <pt x="355" y="33" on="1"/>
        <pt x="314" y="-8" on="0"/>
        <pt x="249" y="-8" on="1"/>
        <pt x="182" y="-8" on="0"/>
        <pt x="142" y="35" on="1"/>
        <pt x="136" y="0" on="1"/>
        <pt x="48" y="0" on="1"/>
      </contour>
      <contour>
        <pt x="175" y="90" on="0"/>
        <pt x="208" y="74" on="0"/>
        <pt x="230" y="74" on="1"/>
        <pt x="255" y="74" on="0"/>
        <pt x="269" y="88" on="1"/>
        <pt x="283" y="102" on="0"/>
        <pt x="296" y="167" on="0"/>
        <pt x="296" y="224" on="1"/>
        <pt x="296" y="281" on="0"/>
        <pt x="283" y="345" on="0"/>
        <pt x="267" y="361" on="1"/>
        <pt x="254" y="374" on="0"/>
        <pt x="230" y="374" on="1"/>
        <pt x="186" y="374" on="0"/>
        <pt x="162" y="340" on="1"/>
        <pt x="162" y="109" on="1"/>
      </contour>
    </TTGlyph>
    <TTGlyph name="backslash" xMin="35" yMin="-69" xMax="285" yMax="710">
      <contour>
        <pt x="174" y="-69" on="1"/>
        <pt x="35" y="698" on="1"/>
        <pt x="146" y="710" on="1"/>
        <pt x="285" y="-57" on="1"/>
      </contour>
    </TTGlyph>
    <TTGlyph name="bar" xMin="168" yMin="-64" xMax="280" yMax="704">
      <contour>
        <pt x="168" y="-64" on="1"/>
        <pt x="168" y="704" on="1"/>
        <pt x="280" y="704" on="1"/>
        <pt x="280" y="-64" on="1"/>
      </contour>
    </TTGlyph>
    <TTGlyph name="beta" xMin="50" yMin="-192" xMax="419" yMax="648">
      <contour>
        <pt x="50" y="558" on="0"/>
        <pt x="145" y="648" on="0"/>
        <pt x="221" y="648" on="1"/>
        <pt x="305" y="648" on="0"/>
        <pt x="389" y="554" on="0"/>
        <pt x="389" y="487" on="1"/>
        <pt x="389" y="445" on="0"/>
        <pt x="349" y="376" on="0"/>
        <pt x="312" y="356" on="1"/>
        <pt x="419" y="316" on="0"/>
        <pt x="419" y="176" on="1"/>
        <pt x="419" y="96" on="0"/>
        <pt x="334" y="-6" on="0"/>
        <pt x="253" y="-6" on="1"/>
        <pt x="203" y="-6" on="0"/>
        <pt x="162" y="21" on="1"/>
        <pt x="162" y="-192" on="1"/>
        <pt x="50" y="-192" on="1"/>
        <pt x="50" y="477" on="1"/>
      </contour>
      <contour>
        <pt x="191" y="73" on="0"/>
        <pt x="233" y="73" on="1"/>
        <pt x="270" y="73" on="0"/>
        <pt x="304" y="127" on="0"/>
        <pt x="304" y="186" on="1"/>
        <pt x="304" y="248" on="0"/>
        <pt x="258" y="313" on="0"/>
        <pt x="205" y="313" on="1"/>
        <pt x="190" y="313" on="1"/>
        <pt x="190" y="391" on="1"/>
        <pt x="205" y="391" on="1"/>
        <pt x="275" y="391" on="0"/>
        <pt x="275" y="480" on="1"/>
        <pt x="275" y="522" on="0"/>
        <pt x="246" y="568" on="0"/>
        <pt x="219" y="568" on="1"/>
        <pt x="192" y="568" on="0"/>
        <pt x="162" y="522" on="0"/>
        <pt x="162" y="476" on="1"/>
        <pt x="162" y="110" on="1"/>
      </contour>
    </TTGlyph>
    <TTGlyph name="block" xMin="-5" yMin="-197" xMax="453" yMax="837">
      <contour>
        <pt x="-5" y="-197" on="1"/>
        <pt x="-5" y="837" on="1"/>
        <pt x="453" y="837" on="1"/>
        <pt x="453" y="-197" on="1"/>
      </contour>
    </TTGlyph>
    <TTGlyph name="braceleft" xMin="74" yMin="-64" xMax="371" yMax="704">
      <contour>
        <pt x="253" y="-53" on="0"/>
        <pt x="142" y="4" on="0"/>
        <pt x="142" y="70" on="1"/>
        <pt x="142" y="86" on="0"/>
        <pt x="148" y="122" on="1"/>
        <pt x="154" y="160" on="0"/>
        <pt x="154" y="185" on="1"/>
        <pt x="154" y="220" on="0"/>
        <pt x="115" y="260" on="0"/>
        <pt x="74" y="267" on="1"/>
        <pt x="74" y="373" on="1"/>
        <pt x="115" y="380" on="0"/>
        <pt x="154" y="420" on="0"/>
        <pt x="154" y="455" on="1"/>
        <pt x="154" y="480" on="0"/>
        <pt x="148" y="518" on="1"/>
        <pt x="142" y="554" on="0"/>
        <pt x="142" y="570" on="1"/>
        <pt x="142" y="636" on="0"/>
        <pt x="253" y="693" on="0"/>
        <pt x="361" y="704" on="1"/>
        <pt x="371" y="631" on="1"/>
        <pt x="324" y="622" on="0"/>
        <pt x="273" y="605" on="0"/>
        <pt x="250" y="576" on="0"/>
        <pt x="250" y="552" on="1"/>
        <pt x="250" y="540" on="0"/>
        <pt x="254" y="510" on="0"/>
        <pt x="255" y="503" on="1"/>
        <pt x="262" y="468" on="0"/>
        <pt x="262" y="437" on="1"/>
        <pt x="262" y="389" on="0"/>
        <pt x="214" y="335" on="0"/>
        <pt x="166" y="320" on="1"/>
        <pt x="214" y="305" on="0"/>
        <pt x="262" y="251" on="0"/>
        <pt x="262" y="203" on="1"/>
        <pt x="262" y="172" on="0"/>
        <pt x="255" y="137" on="1"/>
        <pt x="254" y="130" on="0"/>
        <pt x="250" y="100" on="0"/>
        <pt x="250" y="88" on="1"/>
        <pt x="250" y="64" on="0"/>
        <pt x="273" y="35" on="0"/>
        <pt x="324" y="18" on="0"/>
        <pt x="371" y="9" on="1"/>
        <pt x="361" y="-64" on="1"/>
      </contour>
    </TTGlyph>
    <TTGlyph name="braceright" xMin="77" yMin="-64" xMax="374" yMax="704">
      <contour>
        <pt x="124" y="18" on="0"/>
        <pt x="175" y="35" on="0"/>
        <pt x="198" y="64" on="0"/>
        <pt x="198" y="88" on="1"/>
        <pt x="198" y="100" on="0"/>
        <pt x="194" y="130" on="0"/>
        <pt x="193" y="137" on="1"/>
        <pt x="186" y="172" on="0"/>
        <pt x="186" y="203" on="1"/>
        <pt x="186" y="251" on="0"/>
        <pt x="234" y="305" on="0"/>
        <pt x="282" y="320" on="1"/>
        <pt x="234" y="335" on="0"/>
        <pt x="186" y="389" on="0"/>
        <pt x="186" y="437" on="1"/>
        <pt x="186" y="468" on="0"/>
        <pt x="193" y="503" on="1"/>
        <pt x="194" y="510" on="0"/>
        <pt x="198" y="540" on="0"/>
        <pt x="198" y="552" on="1"/>
        <pt x="198" y="576" on="0"/>
        <pt x="175" y="605" on="0"/>
        <pt x="124" y="622" on="0"/>
        <pt x="77" y="631" on="1"/>
        <pt x="87" y="704" on="1"/>
        <pt x="195" y="693" on="0"/>
        <pt x="306" y="636" on="0"/>
        <pt x="306" y="570" on="1"/>
        <pt x="306" y="554" on="0"/>
        <pt x="300" y="518" on="1"/>
        <pt x="294" y="480" on="0"/>
        <pt x="294" y="455" on="1"/>
        <pt x="294" y="420" on="0"/>
        <pt x="333" y="380" on="0"/>
        <pt x="374" y="373" on="1"/>
        <pt x="374" y="267" on="1"/>
        <pt x="333" y="260" on="0"/>
        <pt x="294" y="220" on="0"/>
        <pt x="294" y="185" on="1"/>
        <pt x="294" y="160" on="0"/>
        <pt x="300" y="122" on="1"/>
        <pt x="306" y="86" on="0"/>
        <pt x="306" y="70" on="1"/>
        <pt x="306" y="4" on="0"/>
        <pt x="195" y="-53" on="0"/>
        <pt x="87" y="-64" on="1"/>
        <pt x="77" y="9" on="1"/>
      </contour>
    </TTGlyph>
    <TTGlyph name="bracketleft" xMin="124" yMin="-64" xMax="360" yMax="704">
      <contour>
        <pt x="236" y="624" on="1"/>
        <pt x="236" y="16" on="1"/>
        <pt x="360" y="16" on="1"/>
        <pt x="360" y="-64" on="1"/>
        <pt x="124" y="-64" on="1"/>
        <pt x="124" y="704" on="1"/>
        <pt x="360" y="704" on="1"/>
        <pt x="360" y="624" on="1"/>
      </contour>
    </TTGlyph>
    <TTGlyph name="bracketright" xMin="88" yMin="-64" xMax="324" yMax="704">
      <contour>
        <pt x="88" y="-64" on="1"/>
        <pt x="88" y="16" on="1"/>
        <pt x="212" y="16" on="1"/>
        <pt x="212" y="624" on="1"/>
        <pt x="88" y="624" on="1"/>
        <pt x="88" y="704" on="1"/>
        <pt x="324" y="704" on="1"/>
        <pt x="324" y="-64" on="1"/>
      </contour>
    </TTGlyph>
    <TTGlyph name="breve" xMin="83" yMin="496" xMax="365" yMax="654">
      <component glyphName="uni0306" x="0" y="0" flags="0x400"/>
    </TTGlyph>
    <TTGlyph name="brokenbar" xMin="168" yMin="-64" xMax="280" yMax="704">
      <contour>
        <pt x="168" y="384" on="1"/>
        <pt x="168" y="704" on="1"/>
        <pt x="280" y="704" on="1"/>
        <pt x="280" y="384" on="1"/>
      </contour>
      <contour>
        <pt x="168" y="256" on="1"/>
        <pt x="280" y="256" on="1"/>
        <pt x="280" y="-64" on="1"/>
        <pt x="168" y="-64" on="1"/>
      </contour>
    </TTGlyph>
    <TTGlyph name="bullet" xMin="102" yMin="100" xMax="346" yMax="348">
      <contour>
        <pt x="276" y="348" on="0"/>
        <pt x="346" y="277" on="0"/>
        <pt x="346" y="224" on="1"/>
        <pt x="346" y="171" on="0"/>
        <pt x="276" y="100" on="0"/>
        <pt x="224" y="100" on="1"/>
        <pt x="172" y="100" on="0"/>
        <pt x="102" y="171" on="0"/>
        <pt x="102" y="224" on="1"/>
        <pt x="102" y="277" on="0"/>
        <pt x="172" y="348" on="0"/>
        <pt x="224" y="348" on="1"/>
      </contour>
    </TTGlyph>
    <TTGlyph name="c" xMin="40" yMin="-7" xMax="348" yMax="455">
      <contour>
        <pt x="124" y="-7" on="0"/>
        <pt x="40" y="117" on="0"/>
        <pt x="40" y="224" on="1"/>
        <pt x="40" y="331" on="0"/>
        <pt x="124" y="455" on="0"/>
        <pt x="227" y="455" on="1"/>
        <pt x="293" y="455" on="0"/>
        <pt x="348" y="431" on="1"/>
        <pt x="331" y="357" on="1"/>
        <pt x="293" y="371" on="0"/>
        <pt x="249" y="371" on="1"/>
        <pt x="213" y="371" on="0"/>
        <pt x="173" y="343" on="0"/>
        <pt x="156" y="280" on="0"/>
        <pt x="156" y="224" on="1"/>
        <pt x="156" y="168" on="0"/>
        <pt x="173" y="105" on="0"/>
        <pt x="213" y="77" on="0"/>
        <pt x="249" y="77" on="1"/>
        <pt x="286" y="77" on="0"/>
        <pt x="331" y="91" on="1"/>
        <pt x="348" y="17" on="1"/>
        <pt x="293" y="-7" on="0"/>
        <pt x="227" y="-7" on="1"/>
      </contour>
    </TTGlyph>
    <TTGlyph name="cacute" xMin="40" yMin="-7" xMax="369" yMax="704">
      <component glyphName="c" x="0" y="0" flags="0x400"/>
      <component glyphName="acutecomb" x="-6" y="0" flags="0x400"/>
    </TTGlyph>
    <TTGlyph name="caron" xMin="66" yMin="511" xMax="382" yMax="654">
      <component glyphName="uni030C" x="0" y="0" flags="0x400"/>
    </TTGlyph>
    <TTGlyph name="carriagereturn" xMin="-10" yMin="34" xMax="438" yMax="448">
      <contour>
        <pt x="227" y="69" on="1"/>
        <pt x="179" y="34" on="1"/>
        <pt x="-10" y="194" on="1"/>
        <pt x="-10" y="254" on="1"/>
        <pt x="179" y="414" on="1"/>
        <pt x="227" y="372" on="1"/>
        <pt x="176" y="276" on="1"/>
        <pt x="330" y="276" on="1"/>
        <pt x="330" y="448" on="1"/>
        <pt x="438" y="448" on="1"/>
        <pt x="438" y="172" on="1"/>
        <pt x="175" y="172" on="1"/>
      </contour>
    </TTGlyph>
    <TTGlyph name="ccaron" xMin="40" yMin="-7" xMax="376" yMax="654">
      <component glyphName="c" x="0" y="0" flags="0x400"/>
      <component glyphName="uni030C" x="-6" y="0" flags="0x400"/>
    </TTGlyph>
    <TTGlyph name="ccedilla" xMin="40" yMin="-192" xMax="348" yMax="455">
      <component glyphName="c" x="0" y="0" flags="0x400"/>
      <component glyphName="uni0327" x="-58" y="0" flags="0x400"/>
    </TTGlyph>
    <TTGlyph name="ccircumflex" xMin="40" yMin="-7" xMax="376" yMax="650">
      <component glyphName="c" x="0" y="0" flags="0x400"/>
      <component glyphName="uni0302" x="-6" y="0" flags="0x400"/>
    </TTGlyph>
    <TTGlyph name="cdotaccent" xMin="40" yMin="-7" xMax="348" yMax="658">
      <component glyphName="c" x="0" y="0" flags="0x400"/>
      <component glyphName="uni0307" x="-6" y="0" flags="0x400"/>
    </TTGlyph>
    <TTGlyph name="cedilla" xMin="126" yMin="-192" xMax="330" yMax="10">
      <component glyphName="uni0327" x="0" y="0" flags="0x400"/>
    </TTGlyph>
    <TTGlyph name="cent" xMin="50" yMin="-64" xMax="378" yMax="640">
      <contour>
        <pt x="319" y="435" on="0"/>
        <pt x="271" y="435" on="1"/>
        <pt x="231" y="435" on="0"/>
        <pt x="186" y="407" on="0"/>
        <pt x="166" y="344" on="0"/>
        <pt x="166" y="288" on="1"/>
        <pt x="166" y="232" on="0"/>
        <pt x="186" y="169" on="0"/>
        <pt x="231" y="141" on="0"/>
        <pt x="271" y="141" on="1"/>
        <pt x="310" y="141" on="0"/>
        <pt x="361" y="155" on="1"/>
        <pt x="378" y="81" on="1"/>
        <pt x="330" y="61" on="0"/>
        <pt x="276" y="58" on="1"/>
        <pt x="276" y="-64" on="1"/>
        <pt x="172" y="-64" on="1"/>
        <pt x="172" y="68" on="1"/>
        <pt x="106" y="88" on="0"/>
        <pt x="50" y="203" on="0"/>
        <pt x="50" y="288" on="1"/>
        <pt x="50" y="373" on="0"/>
        <pt x="106" y="488" on="0"/>
        <pt x="172" y="508" on="1"/>
        <pt x="172" y="640" on="1"/>
        <pt x="276" y="640" on="1"/>
        <pt x="276" y="518" on="1"/>
        <pt x="330" y="515" on="0"/>
        <pt x="378" y="495" on="1"/>
        <pt x="361" y="421" on="1"/>
      </contour>
    </TTGlyph>
    <TTGlyph name="chi" xMin="15" yMin="-192" xMax="409" yMax="448">
      <contour>
        <pt x="409" y="448" on="1"/>
        <pt x="282" y="159" on="1"/>
        <pt x="341" y="89" on="0"/>
        <pt x="396" y="-68" on="0"/>
        <pt x="404" y="-192" on="1"/>
        <pt x="288" y="-192" on="1"/>
        <pt x="283" y="-101" on="0"/>
        <pt x="260" y="14" on="0"/>
        <pt x="237" y="58" on="1"/>
        <pt x="127" y="-192" on="1"/>
        <pt x="15" y="-192" on="1"/>
        <pt x="160" y="137" on="1"/>
        <pt x="107" y="212" on="0"/>
        <pt x="53" y="348" on="0"/>
        <pt x="38" y="448" on="1"/>
        <pt x="154" y="448" on="1"/>
        <pt x="162" y="381" on="0"/>
        <pt x="187" y="286" on="0"/>
        <pt x="207" y="244" on="1"/>
        <pt x="297" y="448" on="1"/>
      </contour>
    </TTGlyph>
    <TTGlyph name="circle" xMin="54" yMin="120" xMax="394" yMax="456">
      <contour>
        <pt x="177" y="120" on="0"/>
        <pt x="99" y="164" on="0"/>
        <pt x="54" y="241" on="0"/>
        <pt x="54" y="288" on="1"/>
        <pt x="54" y="335" on="0"/>
        <pt x="99" y="412" on="0"/>
        <pt x="177" y="456" on="0"/>
        <pt x="224" y="456" on="1"/>
        <pt x="271" y="456" on="0"/>
        <pt x="349" y="412" on="0"/>
        <pt x="394" y="335" on="0"/>
        <pt x="394" y="288" on="1"/>
        <pt x="394" y="241" on="0"/>
        <pt x="349" y="164" on="0"/>
        <pt x="271" y="120" on="0"/>
        <pt x="224" y="120" on="1"/>
      </contour>
      <contour>
        <pt x="124" y="244" on="0"/>
        <pt x="181" y="184" on="0"/>
        <pt x="224" y="184" on="1"/>
        <pt x="267" y="184" on="0"/>
        <pt x="324" y="244" on="0"/>
        <pt x="324" y="288" on="1"/>
        <pt x="324" y="332" on="0"/>
        <pt x="267" y="392" on="0"/>
        <pt x="224" y="392" on="1"/>
        <pt x="181" y="392" on="0"/>
        <pt x="124" y="332" on="0"/>
        <pt x="124" y="288" on="1"/>
      </contour>
    </TTGlyph>
    <TTGlyph name="circumflex" xMin="66" yMin="507" xMax="382" yMax="650">
      <component glyphName="uni0302" x="0" y="0" flags="0x400"/>
    </TTGlyph>
    <TTGlyph name="club" xMin="64" yMin="64" xMax="384" yMax="512">
      <contour>
        <pt x="384" y="384" on="1"/>
        <pt x="384" y="192" on="1"/>
        <pt x="320" y="192" on="1"/>
        <pt x="320" y="256" on="1"/>
        <pt x="256" y="256" on="1"/>
        <pt x="256" y="128" on="1"/>
        <pt x="384" y="128" on="1"/>
        <pt x="384" y="64" on="1"/>
        <pt x="64" y="64" on="1"/>
        <pt x="64" y="128" on="1"/>
        <pt x="192" y="128" on="1"/>
        <pt x="192" y="256" on="1"/>
        <pt x="128" y="256" on="1"/>
        <pt x="128" y="192" on="1"/>
        <pt x="64" y="192" on="1"/>
        <pt x="64" y="384" on="1"/>
        <pt x="128" y="384" on="1"/>
        <pt x="128" y="320" on="1"/>
        <pt x="192" y="320" on="1"/>
        <pt x="192" y="448" on="1"/>
        <pt x="128" y="448" on="1"/>
        <pt x="128" y="512" on="1"/>
        <pt x="320" y="512" on="1"/>
        <pt x="320" y="448" on="1"/>
        <pt x="256" y="448" on="1"/>
        <pt x="256" y="320" on="1"/>
        <pt x="320" y="320" on="1"/>
        <pt x="320" y="384" on="1"/>
      </contour>
    </TTGlyph>
    <TTGlyph name="colon" xMin="44" yMin="-10" xMax="212" yMax="458">
      <contour>
        <pt x="92" y="-10" on="0"/>
        <pt x="44" y="34" on="0"/>
        <pt x="44" y="74" on="1"/>
        <pt x="44" y="113" on="0"/>
        <pt x="92" y="158" on="0"/>
        <pt x="128" y="158" on="1"/>
        <pt x="164" y="158" on="0"/>
        <pt x="212" y="113" on="0"/>
        <pt x="212" y="74" on="1"/>
        <pt x="212" y="34" on="0"/>
        <pt x="164" y="-10" on="0"/>
        <pt x="128" y="-10" on="1"/>
      </contour>
      <contour>
        <pt x="44" y="413" on="0"/>
        <pt x="92" y="458" on="0"/>
        <pt x="128" y="458" on="1"/>
        <pt x="164" y="458" on="0"/>
        <pt x="212" y="413" on="0"/>
        <pt x="212" y="374" on="1"/>
        <pt x="212" y="334" on="0"/>
        <pt x="164" y="290" on="0"/>
        <pt x="128" y="290" on="1"/>
        <pt x="92" y="290" on="0"/>
        <pt x="44" y="334" on="0"/>
        <pt x="44" y="374" on="1"/>
      </contour>
    </TTGlyph>
    <TTGlyph name="colon.alt" xMin="44" yMin="54" xMax="212" yMax="522">
      <component glyphName="colon" x="0" y="64" flags="0x404"/>
    </TTGlyph>
    <TTGlyph name="colonmonetary" xMin="50" yMin="-128" xMax="394" yMax="704">
      <contour>
        <pt x="137" y="25" on="1"/>
        <pt x="91" y="55" on="0"/>
        <pt x="50" y="181" on="0"/>
        <pt x="50" y="287" on="1"/>
        <pt x="50" y="412" on="0"/>
        <pt x="109" y="546" on="0"/>
        <pt x="177" y="569" on="1"/>
        <pt x="187" y="704" on="1"/>
        <pt x="263" y="704" on="1"/>
        <pt x="254" y="582" on="1"/>
        <pt x="261" y="583" on="0"/>
        <pt x="277" y="583" on="1"/>
        <pt x="291" y="583" on="0"/>
        <pt x="298" y="582" on="1"/>
        <pt x="307" y="704" on="1"/>
        <pt x="383" y="704" on="1"/>
        <pt x="373" y="572" on="1"/>
        <pt x="388" y="568" on="1"/>
        <pt x="374" y="494" on="1"/>
        <pt x="335" y="503" on="0"/>
        <pt x="297" y="503" on="1"/>
        <pt x="239" y="503" on="0"/>
        <pt x="184" y="460" on="0"/>
        <pt x="168" y="373" on="0"/>
        <pt x="168" y="287" on="1"/>
        <pt x="168" y="201" on="0"/>
        <pt x="184" y="114" on="0"/>
        <pt x="239" y="71" on="0"/>
        <pt x="298" y="71" on="1"/>
        <pt x="339" y="71" on="0"/>
        <pt x="380" y="82" on="1"/>
        <pt x="394" y="8" on="1"/>
        <pt x="362" y="-2" on="0"/>
        <pt x="331" y="-5" on="1"/>
        <pt x="322" y="-128" on="1"/>
        <pt x="246" y="-128" on="1"/>
        <pt x="254" y="-8" on="1"/>
        <pt x="237" y="-8" on="0"/>
        <pt x="211" y="-4" on="1"/>
        <pt x="202" y="-128" on="1"/>
        <pt x="126" y="-128" on="1"/>
      </contour>
    </TTGlyph>
    <TTGlyph name="comma" xMin="45" yMin="-149" xMax="211" yMax="153">
      <contour>
        <pt x="102" y="-56" on="0"/>
        <pt x="112" y="-9" on="1"/>
        <pt x="82" y="-4" on="0"/>
        <pt x="45" y="37" on="0"/>
        <pt x="45" y="71" on="1"/>
        <pt x="45" y="109" on="0"/>
        <pt x="91" y="153" on="0"/>
        <pt x="127" y="153" on="1"/>
        <pt x="163" y="153" on="0"/>
        <pt x="211" y="105" on="0"/>
        <pt x="211" y="52" on="1"/>
        <pt x="211" y="0" on="0"/>
        <pt x="165" y="-103" on="0"/>
        <pt x="127" y="-149" on="1"/>
        <pt x="67" y="-111" on="1"/>
      </contour>
    </TTGlyph>
    <TTGlyph name="copyright" xMin="0" yMin="3" xMax="448" yMax="509">
      <contour>
        <pt x="166" y="3" on="0"/>
        <pt x="63" y="61" on="0"/>
        <pt x="0" y="176" on="0"/>
        <pt x="0" y="256" on="1"/>
        <pt x="0" y="337" on="0"/>
        <pt x="63" y="452" on="0"/>
        <pt x="166" y="509" on="0"/>
        <pt x="224" y="509" on="1"/>
        <pt x="282" y="509" on="0"/>
        <pt x="385" y="452" on="0"/>
        <pt x="448" y="337" on="0"/>
        <pt x="448" y="256" on="1"/>
        <pt x="448" y="176" on="0"/>
        <pt x="385" y="61" on="0"/>
        <pt x="282" y="3" on="0"/>
        <pt x="224" y="3" on="1"/>
      </contour>
      <contour>
        <pt x="70" y="170" on="0"/>
        <pt x="152" y="67" on="0"/>
        <pt x="224" y="67" on="1"/>
        <pt x="296" y="67" on="0"/>
        <pt x="378" y="170" on="0"/>
        <pt x="378" y="256" on="1"/>
        <pt x="378" y="342" on="0"/>
        <pt x="296" y="445" on="0"/>
        <pt x="224" y="445" on="1"/>
        <pt x="152" y="445" on="0"/>
        <pt x="70" y="342" on="0"/>
        <pt x="70" y="256" on="1"/>
      </contour>
      <contour>
        <pt x="98" y="321" on="0"/>
        <pt x="161" y="397" on="0"/>
        <pt x="229" y="397" on="1"/>
        <pt x="279" y="397" on="0"/>
        <pt x="324" y="381" on="1"/>
        <pt x="310" y="324" on="1"/>
        <pt x="280" y="332" on="0"/>
        <pt x="247" y="332" on="1"/>
        <pt x="218" y="332" on="0"/>
        <pt x="194" y="301" on="0"/>
        <pt x="194" y="259" on="1"/>
        <pt x="194" y="217" on="0"/>
        <pt x="218" y="186" on="0"/>
        <pt x="247" y="186" on="1"/>
        <pt x="275" y="186" on="0"/>
        <pt x="313" y="194" on="1"/>
        <pt x="324" y="136" on="1"/>
        <pt x="273" y="120" on="0"/>
        <pt x="229" y="120" on="1"/>
        <pt x="161" y="120" on="0"/>
        <pt x="98" y="195" on="0"/>
        <pt x="98" y="258" on="1"/>
      </contour>
    </TTGlyph>
    <TTGlyph name="currency" xMin="35" yMin="50" xMax="414" yMax="525">
      <contour>
        <pt x="260" y="464" on="0"/>
        <pt x="293" y="453" on="1"/>
        <pt x="345" y="525" on="1"/>
        <pt x="413" y="475" on="1"/>
        <pt x="363" y="408" on="1"/>
        <pt x="387" y="384" on="0"/>
        <pt x="412" y="322" on="0"/>
        <pt x="412" y="288" on="1"/>
        <pt x="412" y="254" on="0"/>
        <pt x="387" y="193" on="0"/>
        <pt x="364" y="169" on="1"/>
        <pt x="414" y="101" on="1"/>
        <pt x="345" y="51" on="1"/>
        <pt x="292" y="123" on="1"/>
        <pt x="259" y="112" on="0"/>
        <pt x="224" y="112" on="1"/>
        <pt x="188" y="112" on="0"/>
        <pt x="157" y="123" on="1"/>
        <pt x="103" y="50" on="1"/>
        <pt x="35" y="101" on="1"/>
        <pt x="85" y="168" on="1"/>
        <pt x="61" y="192" on="0"/>
        <pt x="36" y="254" on="0"/>
        <pt x="36" y="288" on="1"/>
        <pt x="36" y="322" on="0"/>
        <pt x="61" y="384" on="0"/>
        <pt x="85" y="408" on="1"/>
        <pt x="35" y="475" on="1"/>
        <pt x="103" y="525" on="1"/>
        <pt x="155" y="453" on="1"/>
        <pt x="188" y="464" on="0"/>
        <pt x="224" y="464" on="1"/>
      </contour>
      <contour>
        <pt x="144" y="248" on="0"/>
        <pt x="190" y="192" on="0"/>
        <pt x="224" y="192" on="1"/>
        <pt x="258" y="192" on="0"/>
        <pt x="304" y="248" on="0"/>
        <pt x="304" y="288" on="1"/>
        <pt x="304" y="328" on="0"/>
        <pt x="258" y="384" on="0"/>
        <pt x="224" y="384" on="1"/>
        <pt x="190" y="384" on="0"/>
        <pt x="144" y="328" on="0"/>
        <pt x="144" y="288" on="1"/>
      </contour>
    </TTGlyph>
    <TTGlyph name="d" xMin="31" yMin="-8" xMax="400" yMax="640">
      <contour>
        <pt x="305" y="41" on="1"/>
        <pt x="265" y="-8" on="0"/>
        <pt x="195" y="-8" on="1"/>
        <pt x="130" y="-8" on="0"/>
        <pt x="90" y="32" on="1"/>
        <pt x="60" y="62" on="0"/>
        <pt x="31" y="161" on="0"/>
        <pt x="31" y="224" on="1"/>
        <pt x="31" y="356" on="0"/>
        <pt x="90" y="415" on="1"/>
        <pt x="131" y="456" on="0"/>
        <pt x="196" y="456" on="1"/>
        <pt x="249" y="456" on="0"/>
        <pt x="286" y="428" on="1"/>
        <pt x="286" y="640" on="1"/>
        <pt x="398" y="640" on="1"/>
        <pt x="398" y="65" on="1"/>
        <pt x="400" y="0" on="1"/>
        <pt x="312" y="0" on="1"/>
      </contour>
      <contour>
        <pt x="149" y="167" on="0"/>
        <pt x="162" y="103" on="0"/>
        <pt x="178" y="87" on="1"/>
        <pt x="191" y="74" on="0"/>
        <pt x="215" y="74" on="1"/>
        <pt x="262" y="74" on="0"/>
        <pt x="286" y="112" on="1"/>
        <pt x="286" y="337" on="1"/>
        <pt x="285" y="336" on="1"/>
        <pt x="261" y="374" on="0"/>
        <pt x="215" y="374" on="1"/>
        <pt x="190" y="374" on="0"/>
        <pt x="176" y="360" on="1"/>
        <pt x="162" y="346" on="0"/>
        <pt x="149" y="281" on="0"/>
        <pt x="149" y="224" on="1"/>
      </contour>
    </TTGlyph>
    <TTGlyph name="dagger" xMin="54" yMin="0" xMax="394" yMax="640">
      <contour>
        <pt x="278" y="466" on="1"/>
        <pt x="394" y="466" on="1"/>
        <pt x="394" y="386" on="1"/>
        <pt x="278" y="386" on="1"/>
        <pt x="278" y="0" on="1"/>
        <pt x="170" y="0" on="1"/>
        <pt x="170" y="386" on="1"/>
        <pt x="54" y="386" on="1"/>
        <pt x="54" y="466" on="1"/>
        <pt x="170" y="466" on="1"/>
        <pt x="170" y="640" on="1"/>
        <pt x="278" y="640" on="1"/>
      </contour>
    </TTGlyph>
    <TTGlyph name="daggerdbl" xMin="54" yMin="0" xMax="394" yMax="640">
      <contour>
        <pt x="278" y="466" on="1"/>
        <pt x="394" y="466" on="1"/>
        <pt x="394" y="386" on="1"/>
        <pt x="278" y="386" on="1"/>
        <pt x="278" y="254" on="1"/>
        <pt x="394" y="254" on="1"/>
        <pt x="394" y="174" on="1"/>
        <pt x="278" y="174" on="1"/>
        <pt x="278" y="0" on="1"/>
        <pt x="170" y="0" on="1"/>
        <pt x="170" y="174" on="1"/>
        <pt x="54" y="174" on="1"/>
        <pt x="54" y="254" on="1"/>
        <pt x="170" y="254" on="1"/>
        <pt x="170" y="386" on="1"/>
        <pt x="54" y="386" on="1"/>
        <pt x="54" y="466" on="1"/>
        <pt x="170" y="466" on="1"/>
        <pt x="170" y="640" on="1"/>
        <pt x="278" y="640" on="1"/>
      </contour>
    </TTGlyph>
    <TTGlyph name="dcaron" xMin="31" yMin="-8" xMax="557" yMax="640">
      <component glyphName="d" x="0" y="0" flags="0x400"/>
      <component glyphName="uni030C.alt" x="101" y="0" flags="0x400"/>
    </TTGlyph>
    <TTGlyph name="dcroat" xMin="31" yMin="-8" xMax="448" yMax="640">
      <component glyphName="d" x="0" y="0" flags="0x400"/>
      <component glyphName="uni0335" x="86" y="310" flags="0x404"/>
    </TTGlyph>
    <TTGlyph name="degree" xMin="45" yMin="377" xMax="339" yMax="647">
      <contour>
        <pt x="258" y="647" on="0"/>
        <pt x="339" y="571" on="0"/>
        <pt x="339" y="512" on="1"/>
        <pt x="339" y="453" on="0"/>
        <pt x="258" y="377" on="0"/>
        <pt x="192" y="377" on="1"/>
        <pt x="126" y="377" on="0"/>
        <pt x="45" y="453" on="0"/>
        <pt x="45" y="512" on="1"/>
        <pt x="45" y="571" on="0"/>
        <pt x="126" y="647" on="0"/>
        <pt x="192" y="647" on="1"/>
      </contour>
      <contour>
        <pt x="138" y="484" on="0"/>
        <pt x="166" y="449" on="0"/>
        <pt x="192" y="449" on="1"/>
        <pt x="218" y="449" on="0"/>
        <pt x="246" y="484" on="0"/>
        <pt x="246" y="512" on="1"/>
        <pt x="246" y="540" on="0"/>
        <pt x="218" y="575" on="0"/>
        <pt x="192" y="575" on="1"/>
        <pt x="166" y="575" on="0"/>
        <pt x="138" y="540" on="0"/>
        <pt x="138" y="512" on="1"/>
      </contour>
    </TTGlyph>
    <TTGlyph name="delta" xMin="40" yMin="-13" xMax="408" yMax="642">
      <contour>
        <pt x="137" y="-13" on="0"/>
        <pt x="40" y="94" on="0"/>
        <pt x="40" y="179" on="1"/>
        <pt x="40" y="244" on="0"/>
        <pt x="104" y="350" on="0"/>
        <pt x="162" y="385" on="1"/>
        <pt x="131" y="410" on="0"/>
        <pt x="97" y="466" on="0"/>
        <pt x="97" y="508" on="1"/>
        <pt x="97" y="564" on="0"/>
        <pt x="182" y="642" on="0"/>
        <pt x="275" y="642" on="1"/>
        <pt x="341" y="642" on="0"/>
        <pt x="394" y="632" on="1"/>
        <pt x="386" y="553" on="1"/>
        <pt x="332" y="562" on="0"/>
        <pt x="293" y="562" on="1"/>
        <pt x="212" y="562" on="0"/>
        <pt x="212" y="511" on="1"/>
        <pt x="212" y="489" on="0"/>
        <pt x="235" y="466" on="1"/>
        <pt x="238" y="463" on="0"/>
        <pt x="273" y="433" on="1"/>
        <pt x="309" y="405" on="0"/>
        <pt x="328" y="386" on="1"/>
        <pt x="365" y="350" on="0"/>
        <pt x="408" y="257" on="0"/>
        <pt x="408" y="192" on="1"/>
        <pt x="408" y="96" on="0"/>
        <pt x="308" y="-13" on="0"/>
        <pt x="221" y="-13" on="1"/>
      </contour>
      <contour>
        <pt x="155" y="129" on="0"/>
        <pt x="191" y="67" on="0"/>
        <pt x="221" y="67" on="1"/>
        <pt x="255" y="67" on="0"/>
        <pt x="294" y="126" on="0"/>
        <pt x="294" y="185" on="1"/>
        <pt x="294" y="238" on="0"/>
        <pt x="258" y="308" on="0"/>
        <pt x="226" y="336" on="1"/>
        <pt x="186" y="304" on="0"/>
        <pt x="155" y="233" on="0"/>
        <pt x="155" y="183" on="1"/>
      </contour>
    </TTGlyph>
    <TTGlyph name="diamond" xMin="64" yMin="80" xMax="384" yMax="456">
      <contour>
        <pt x="202" y="456" on="1"/>
        <pt x="246" y="456" on="1"/>
        <pt x="384" y="284" on="1"/>
        <pt x="384" y="252" on="1"/>
        <pt x="246" y="80" on="1"/>
        <pt x="202" y="80" on="1"/>
        <pt x="64" y="252" on="1"/>
        <pt x="64" y="284" on="1"/>
      </contour>
    </TTGlyph>
    <TTGlyph name="dieresis" xMin="79" yMin="512" xMax="369" yMax="658">
      <component glyphName="uni0308" x="0" y="0" flags="0x400"/>
    </TTGlyph>
    <TTGlyph name="dieresistonos" xMin="19" yMin="512" xMax="429" yMax="704">
      <contour>
        <pt x="309" y="704" on="1"/>
        <pt x="264" y="512" on="1"/>
        <pt x="168" y="512" on="1"/>
        <pt x="161" y="704" on="1"/>
      </contour>
      <contour>
        <pt x="19" y="622" on="0"/>
        <pt x="50" y="658" on="0"/>
        <pt x="77" y="658" on="1"/>
        <pt x="104" y="658" on="0"/>
        <pt x="135" y="622" on="0"/>
        <pt x="135" y="585" on="1"/>
        <pt x="135" y="548" on="0"/>
        <pt x="104" y="512" on="0"/>
        <pt x="77" y="512" on="1"/>
        <pt x="50" y="512" on="0"/>
        <pt x="19" y="548" on="0"/>
        <pt x="19" y="585" on="1"/>
      </contour>
      <contour>
        <pt x="313" y="622" on="0"/>
        <pt x="344" y="658" on="0"/>
        <pt x="371" y="658" on="1"/>
        <pt x="398" y="658" on="0"/>
        <pt x="429" y="622" on="0"/>
        <pt x="429" y="585" on="1"/>
        <pt x="429" y="548" on="0"/>
        <pt x="398" y="512" on="0"/>
        <pt x="371" y="512" on="1"/>
        <pt x="344" y="512" on="0"/>
        <pt x="313" y="548" on="0"/>
        <pt x="313" y="585" on="1"/>
      </contour>
    </TTGlyph>
    <TTGlyph name="divide" xMin="24" yMin="32" xMax="424" yMax="544">
      <contour>
        <pt x="24" y="336" on="1"/>
        <pt x="424" y="336" on="1"/>
        <pt x="424" y="240" on="1"/>
        <pt x="24" y="240" on="1"/>
      </contour>
      <contour>
        <pt x="140" y="155" on="0"/>
        <pt x="188" y="200" on="0"/>
        <pt x="224" y="200" on="1"/>
        <pt x="260" y="200" on="0"/>
        <pt x="308" y="155" on="0"/>
        <pt x="308" y="116" on="1"/>
        <pt x="308" y="76" on="0"/>
        <pt x="260" y="32" on="0"/>
        <pt x="224" y="32" on="1"/>
        <pt x="188" y="32" on="0"/>
        <pt x="140" y="76" on="0"/>
        <pt x="140" y="116" on="1"/>
      </contour>
      <contour>
        <pt x="140" y="499" on="0"/>
        <pt x="188" y="544" on="0"/>
        <pt x="224" y="544" on="1"/>
        <pt x="260" y="544" on="0"/>
        <pt x="308" y="499" on="0"/>
        <pt x="308" y="460" on="1"/>
        <pt x="308" y="420" on="0"/>
        <pt x="260" y="376" on="0"/>
        <pt x="224" y="376" on="1"/>
        <pt x="188" y="376" on="0"/>
        <pt x="140" y="420" on="0"/>
        <pt x="140" y="460" on="1"/>
      </contour>
    </TTGlyph>
    <TTGlyph name="dkshade" xMin="0" yMin="-192" xMax="384" yMax="832">
      <contour>
        <pt x="64" y="-128" on="1"/>
        <pt x="0" y="-128" on="1"/>
        <pt x="0" y="64" on="1"/>
        <pt x="64" y="64" on="1"/>
        <pt x="64" y="128" on="1"/>
        <pt x="0" y="128" on="1"/>
        <pt x="0" y="320" on="1"/>
        <pt x="64" y="320" on="1"/>
        <pt x="64" y="384" on="1"/>
        <pt x="0" y="384" on="1"/>
        <pt x="0" y="576" on="1"/>
        <pt x="64" y="576" on="1"/>
        <pt x="64" y="640" on="1"/>
        <pt x="0" y="640" on="1"/>
        <pt x="0" y="832" on="1"/>
        <pt x="384" y="832" on="1"/>
        <pt x="384" y="768" on="1"/>
        <pt x="320" y="768" on="1"/>
        <pt x="320" y="704" on="1"/>
        <pt x="384" y="704" on="1"/>
        <pt x="384" y="512" on="1"/>
        <pt x="320" y="512" on="1"/>
        <pt x="320" y="448" on="1"/>
        <pt x="384" y="448" on="1"/>
        <pt x="384" y="256" on="1"/>
        <pt x="320" y="256" on="1"/>
        <pt x="320" y="192" on="1"/>
        <pt x="384" y="192" on="1"/>
        <pt x="384" y="0" on="1"/>
        <pt x="320" y="0" on="1"/>
        <pt x="320" y="-64" on="1"/>
        <pt x="384" y="-64" on="1"/>
        <pt x="384" y="-192" on="1"/>
        <pt x="320" y="-192" on="1"/>
        <pt x="320" y="-128" on="1"/>
        <pt x="256" y="-128" on="1"/>
        <pt x="256" y="-192" on="1"/>
        <pt x="192" y="-192" on="1"/>
        <pt x="192" y="-128" on="1"/>
        <pt x="128" y="-128" on="1"/>
        <pt x="128" y="-192" on="1"/>
        <pt x="64" y="-192" on="1"/>
      </contour>
      <contour>
        <pt x="128" y="-64" on="1"/>
        <pt x="128" y="0" on="1"/>
        <pt x="64" y="0" on="1"/>
        <pt x="64" y="-64" on="1"/>
      </contour>
      <contour>
        <pt x="128" y="192" on="1"/>
        <pt x="128" y="256" on="1"/>
        <pt x="64" y="256" on="1"/>
        <pt x="64" y="192" on="1"/>
      </contour>
      <contour>
        <pt x="128" y="448" on="1"/>
        <pt x="128" y="512" on="1"/>
        <pt x="64" y="512" on="1"/>
        <pt x="64" y="448" on="1"/>
      </contour>
      <contour>
        <pt x="128" y="704" on="1"/>
        <pt x="128" y="768" on="1"/>
        <pt x="64" y="768" on="1"/>
        <pt x="64" y="704" on="1"/>
      </contour>
      <contour>
        <pt x="192" y="64" on="1"/>
        <pt x="192" y="128" on="1"/>
        <pt x="128" y="128" on="1"/>
        <pt x="128" y="64" on="1"/>
      </contour>
      <contour>
        <pt x="192" y="320" on="1"/>
        <pt x="192" y="384" on="1"/>
        <pt x="128" y="384" on="1"/>
        <pt x="128" y="320" on="1"/>
      </contour>
      <contour>
        <pt x="192" y="576" on="1"/>
        <pt x="192" y="640" on="1"/>
        <pt x="128" y="640" on="1"/>
        <pt x="128" y="576" on="1"/>
      </contour>
      <contour>
        <pt x="256" y="-64" on="1"/>
        <pt x="256" y="0" on="1"/>
        <pt x="192" y="0" on="1"/>
        <pt x="192" y="-64" on="1"/>
      </contour>
      <contour>
        <pt x="256" y="192" on="1"/>
        <pt x="256" y="256" on="1"/>
        <pt x="192" y="256" on="1"/>
        <pt x="192" y="192" on="1"/>
      </contour>
      <contour>
        <pt x="256" y="448" on="1"/>
        <pt x="256" y="512" on="1"/>
        <pt x="192" y="512" on="1"/>
        <pt x="192" y="448" on="1"/>
      </contour>
      <contour>
        <pt x="256" y="704" on="1"/>
        <pt x="256" y="768" on="1"/>
        <pt x="192" y="768" on="1"/>
        <pt x="192" y="704" on="1"/>
      </contour>
      <contour>
        <pt x="320" y="64" on="1"/>
        <pt x="320" y="128" on="1"/>
        <pt x="256" y="128" on="1"/>
        <pt x="256" y="64" on="1"/>
      </contour>
      <contour>
        <pt x="320" y="320" on="1"/>
        <pt x="320" y="384" on="1"/>
        <pt x="256" y="384" on="1"/>
        <pt x="256" y="320" on="1"/>
      </contour>
      <contour>
        <pt x="320" y="576" on="1"/>
        <pt x="320" y="640" on="1"/>
        <pt x="256" y="640" on="1"/>
        <pt x="256" y="576" on="1"/>
      </contour>
    </TTGlyph>
    <TTGlyph name="dnblock" xMin="-5" yMin="-197" xMax="453" yMax="325">
      <contour>
        <pt x="-5" y="-197" on="1"/>
        <pt x="-5" y="325" on="1"/>
        <pt x="453" y="325" on="1"/>
        <pt x="453" y="-197" on="1"/>
      </contour>
    </TTGlyph>
    <TTGlyph name="dollar" xMin="37" yMin="-128" xMax="401" yMax="704">
      <contour>
        <pt x="172" y="-7" on="1"/>
        <pt x="95" y="-2" on="0"/>
        <pt x="37" y="24" on="1"/>
        <pt x="61" y="98" on="1"/>
        <pt x="92" y="87" on="0"/>
        <pt x="147" y="74" on="0"/>
        <pt x="178" y="74" on="1"/>
        <pt x="285" y="74" on="0"/>
        <pt x="285" y="138" on="1"/>
        <pt x="285" y="168" on="0"/>
        <pt x="242" y="201" on="0"/>
        <pt x="196" y="220" on="1"/>
        <pt x="150" y="240" on="0"/>
        <pt x="92" y="276" on="0"/>
        <pt x="49" y="349" on="0"/>
        <pt x="49" y="407" on="1"/>
        <pt x="49" y="469" on="0"/>
        <pt x="111" y="555" on="0"/>
        <pt x="172" y="573" on="1"/>
        <pt x="172" y="704" on="1"/>
        <pt x="276" y="704" on="1"/>
        <pt x="276" y="584" on="1"/>
        <pt x="340" y="581" on="0"/>
        <pt x="390" y="562" on="1"/>
        <pt x="370" y="485" on="1"/>
        <pt x="315" y="502" on="0"/>
        <pt x="273" y="502" on="1"/>
        <pt x="211" y="502" on="0"/>
        <pt x="165" y="458" on="0"/>
        <pt x="165" y="418" on="1"/>
        <pt x="165" y="389" on="0"/>
        <pt x="192" y="350" on="0"/>
        <pt x="231" y="327" on="0"/>
        <pt x="267" y="311" on="1"/>
        <pt x="311" y="291" on="0"/>
        <pt x="364" y="257" on="0"/>
        <pt x="401" y="193" on="0"/>
        <pt x="401" y="143" on="1"/>
        <pt x="401" y="26" on="0"/>
        <pt x="276" y="-1" on="1"/>
        <pt x="276" y="-128" on="1"/>
        <pt x="172" y="-128" on="1"/>
      </contour>
    </TTGlyph>
    <TTGlyph name="dong" xMin="31" yMin="-144" xMax="448" yMax="640">
      <component glyphName="dcroat" x="0" y="0" flags="0x400"/>
      <component glyphName="minus" x="0" y="-384" flags="0x404"/>
    </TTGlyph>
    <TTGlyph name="dotaccent" xMin="155" yMin="520" xMax="293" yMax="658">
      <component glyphName="uni0307" x="0" y="0" flags="0x400"/>
    </TTGlyph>
    <TTGlyph name="dotbelowcomb" xMin="155" yMin="-190" xMax="293" yMax="-52">
      <component glyphName="uni0307" x="0" y="-710" flags="0x404"/>
    </TTGlyph>
    <TTGlyph name="dotlessi" xMin="20" yMin="0" xMax="204" yMax="448">
      <contour>
        <pt x="92" y="366" on="1"/>
        <pt x="20" y="372" on="1"/>
        <pt x="20" y="448" on="1"/>
        <pt x="204" y="448" on="1"/>
        <pt x="204" y="0" on="1"/>
        <pt x="92" y="0" on="1"/>
      </contour>
    </TTGlyph>
    <TTGlyph name="dotlessi.cv02" xMin="56" yMin="0" xMax="168" yMax="448">
      <contour>
        <pt x="56" y="448" on="1"/>
        <pt x="168" y="448" on="1"/>
        <pt x="168" y="0" on="1"/>
        <pt x="56" y="0" on="1"/>
      </contour>
    </TTGlyph>
    <TTGlyph name="dotmath" xMin="76" yMin="204" xMax="244" yMax="372">
      <component glyphName="period" x="32" y="214" flags="0x404"/>
    </TTGlyph>
    <TTGlyph name="e" xMin="34" yMin="-13" xMax="390" yMax="461">
      <contour>
        <pt x="34" y="330" on="0"/>
        <pt x="121" y="461" on="0"/>
        <pt x="213" y="461" on="1"/>
        <pt x="299" y="461" on="0"/>
        <pt x="390" y="343" on="0"/>
        <pt x="390" y="246" on="1"/>
        <pt x="390" y="215" on="0"/>
        <pt x="386" y="188" on="1"/>
        <pt x="151" y="188" on="1"/>
        <pt x="155" y="122" on="0"/>
        <pt x="199" y="67" on="0"/>
        <pt x="247" y="67" on="1"/>
        <pt x="290" y="67" on="0"/>
        <pt x="354" y="90" on="1"/>
        <pt x="372" y="18" on="1"/>
        <pt x="292" y="-13" on="0"/>
        <pt x="231" y="-13" on="1"/>
        <pt x="34" y="-13" on="0"/>
        <pt x="34" y="224" on="1"/>
      </contour>
      <contour>
        <pt x="275" y="266" on="1"/>
        <pt x="274" y="381" on="0"/>
        <pt x="213" y="381" on="1"/>
        <pt x="184" y="381" on="0"/>
        <pt x="154" y="327" on="0"/>
        <pt x="151" y="266" on="1"/>
      </contour>
    </TTGlyph>
    <TTGlyph name="eacute" xMin="34" yMin="-13" xMax="390" yMax="704">
      <component glyphName="e" x="0" y="0" flags="0x400"/>
      <component glyphName="acutecomb" x="-11" y="0" flags="0x400"/>
    </TTGlyph>
    <TTGlyph name="ebreve" xMin="34" yMin="-13" xMax="390" yMax="654">
      <component glyphName="e" x="0" y="0" flags="0x400"/>
      <component glyphName="uni0306" x="-11" y="0" flags="0x400"/>
    </TTGlyph>
    <TTGlyph name="ecaron" xMin="34" yMin="-13" xMax="390" yMax="654">
      <component glyphName="e" x="0" y="0" flags="0x400"/>
      <component glyphName="uni030C" x="-11" y="0" flags="0x400"/>
    </TTGlyph>
    <TTGlyph name="ecircumflex" xMin="34" yMin="-13" xMax="390" yMax="650">
      <component glyphName="e" x="0" y="0" flags="0x400"/>
      <component glyphName="uni0302" x="-11" y="0" flags="0x400"/>
    </TTGlyph>
    <TTGlyph name="edieresis" xMin="34" yMin="-13" xMax="390" yMax="658">
      <component glyphName="e" x="0" y="0" flags="0x400"/>
      <component glyphName="uni0308" x="-11" y="0" flags="0x400"/>
    </TTGlyph>
    <TTGlyph name="edotaccent" xMin="34" yMin="-13" xMax="390" yMax="658">
      <component glyphName="e" x="0" y="0" flags="0x400"/>
      <component glyphName="uni0307" x="-11" y="0" flags="0x400"/>
    </TTGlyph>
    <TTGlyph name="egrave" xMin="34" yMin="-13" xMax="390" yMax="704">
      <component glyphName="e" x="0" y="0" flags="0x400"/>
      <component glyphName="gravecomb" x="-11" y="0" flags="0x400"/>
    </TTGlyph>
    <TTGlyph name="eight" xMin="22" yMin="-11" xMax="425" yMax="586">
      <contour>
        <pt x="161" y="-11" on="0"/>
        <pt x="69" y="31" on="0"/>
        <pt x="22" y="105" on="0"/>
        <pt x="22" y="152" on="1"/>
        <pt x="22" y="199" on="0"/>
        <pt x="66" y="276" on="0"/>
        <pt x="103" y="305" on="1"/>
        <pt x="73" y="334" on="0"/>
        <pt x="48" y="396" on="0"/>
        <pt x="48" y="431" on="1"/>
        <pt x="48" y="475" on="0"/>
        <pt x="93" y="546" on="0"/>
        <pt x="174" y="586" on="0"/>
        <pt x="224" y="586" on="1"/>
        <pt x="302" y="586" on="0"/>
        <pt x="400" y="499" on="0"/>
        <pt x="400" y="427" on="1"/>
        <pt x="400" y="389" on="0"/>
        <pt x="369" y="313" on="0"/>
        <pt x="337" y="281" on="1"/>
        <pt x="382" y="252" on="0"/>
        <pt x="425" y="187" on="0"/>
        <pt x="425" y="141" on="1"/>
        <pt x="425" y="101" on="0"/>
        <pt x="377" y="31" on="0"/>
        <pt x="286" y="-11" on="0"/>
        <pt x="224" y="-11" on="1"/>
      </contour>
      <contour>
        <pt x="136" y="121" on="0"/>
        <pt x="180" y="69" on="0"/>
        <pt x="224" y="69" on="1"/>
        <pt x="267" y="69" on="0"/>
        <pt x="311" y="114" on="0"/>
        <pt x="311" y="142" on="1"/>
        <pt x="311" y="160" on="0"/>
        <pt x="292" y="189" on="0"/>
        <pt x="241" y="223" on="0"/>
        <pt x="190" y="248" on="1"/>
        <pt x="174" y="256" on="1"/>
        <pt x="152" y="236" on="0"/>
        <pt x="136" y="189" on="0"/>
        <pt x="136" y="159" on="1"/>
      </contour>
      <contour>
        <pt x="162" y="398" on="0"/>
        <pt x="198" y="355" on="0"/>
        <pt x="254" y="325" on="1"/>
        <pt x="286" y="366" on="0"/>
        <pt x="286" y="425" on="1"/>
        <pt x="286" y="458" on="0"/>
        <pt x="255" y="506" on="0"/>
        <pt x="224" y="506" on="1"/>
        <pt x="192" y="506" on="0"/>
        <pt x="162" y="461" on="0"/>
        <pt x="162" y="429" on="1"/>
      </contour>
    </TTGlyph>
    <TTGlyph name="eight.dnom" xMin="28" yMin="-198" xMax="292" yMax="134">
      <component glyphName="uni2078" x="0" y="-512" flags="0x404"/>
    </TTGlyph>
    <TTGlyph name="eight.numr" xMin="28" yMin="314" xMax="292" yMax="646">
      <component glyphName="uni2078" x="0" y="0" flags="0x400"/>
    </TTGlyph>
    <TTGlyph name="eight.osf" xMin="22" yMin="-11" xMax="425" yMax="586">
      <component glyphName="eight" x="0" y="0" flags="0x400"/>
    </TTGlyph>
    <TTGlyph name="eight_fraction_nine" xMin="20" yMin="-198" xMax="428" yMax="646">
      <component glyphName="eight.numr" x="0" y="0" flags="0x400"/>
      <component glyphName="fraction.alt" x="192" y="0" flags="0x400"/>
      <component glyphName="nine.dnom" x="128" y="0" flags="0x400"/>
    </TTGlyph>
    <TTGlyph name="ellipsis" xMin="44" yMin="-10" xMax="724" yMax="158">
      <component glyphName="period" x="0" y="0" flags="0x400"/>
      <component glyphName="period" x="256" y="0" flags="0x400"/>
      <component glyphName="period" x="512" y="0" flags="0x400"/>
    </TTGlyph>
    <TTGlyph name="emacron" xMin="34" yMin="-13" xMax="390" yMax="640">
      <component glyphName="e" x="0" y="0" flags="0x400"/>
      <component glyphName="uni0304" x="-11" y="0" flags="0x400"/>
    </TTGlyph>
    <TTGlyph name="emdash" xMin="-10" yMin="240" xMax="458" yMax="336">
      <contour>
        <pt x="-10" y="240" on="1"/>
        <pt x="-10" y="336" on="1"/>
        <pt x="458" y="336" on="1"/>
        <pt x="458" y="240" on="1"/>
      </contour>
    </TTGlyph>
    <TTGlyph name="emptyset" xMin="-20" yMin="-20" xMax="468" yMax="596">
      <contour>
        <pt x="198" y="47" on="0"/>
        <pt x="179" y="51" on="1"/>
        <pt x="147" y="-20" on="1"/>
        <pt x="45" y="24" on="1"/>
        <pt x="76" y="93" on="1"/>
        <pt x="31" y="126" on="0"/>
        <pt x="-20" y="227" on="0"/>
        <pt x="-20" y="288" on="1"/>
        <pt x="-20" y="357" on="0"/>
        <pt x="43" y="467" on="0"/>
        <pt x="155" y="530" on="0"/>
        <pt x="224" y="530" on="1"/>
        <pt x="250" y="530" on="0"/>
        <pt x="270" y="526" on="1"/>
        <pt x="301" y="596" on="1"/>
        <pt x="403" y="552" on="1"/>
        <pt x="372" y="483" on="1"/>
        <pt x="417" y="450" on="0"/>
        <pt x="468" y="349" on="0"/>
        <pt x="468" y="288" on="1"/>
        <pt x="468" y="220" on="0"/>
        <pt x="404" y="110" on="0"/>
        <pt x="293" y="47" on="0"/>
        <pt x="224" y="47" on="1"/>
      </contour>
      <contour>
        <pt x="89" y="226" on="0"/>
        <pt x="116" y="183" on="1"/>
        <pt x="237" y="453" on="1"/>
        <pt x="233" y="454" on="0"/>
        <pt x="224" y="454" on="1"/>
        <pt x="163" y="454" on="0"/>
        <pt x="89" y="362" on="0"/>
        <pt x="89" y="288" on="1"/>
      </contour>
      <contour>
        <pt x="215" y="123" on="0"/>
        <pt x="224" y="123" on="1"/>
        <pt x="285" y="123" on="0"/>
        <pt x="359" y="214" on="0"/>
        <pt x="359" y="288" on="1"/>
        <pt x="359" y="350" on="0"/>
        <pt x="332" y="394" on="1"/>
        <pt x="211" y="124" on="1"/>
      </contour>
    </TTGlyph>
    <TTGlyph name="endash" xMin="64" yMin="240" xMax="384" yMax="336">
      <component glyphName="hyphen" x="0" y="0" flags="0x400"/>
    </TTGlyph>
    <TTGlyph name="eng" xMin="48" yMin="-196" xMax="398" yMax="452">
      <contour>
        <pt x="50" y="384" on="1"/>
        <pt x="48" y="448" on="1"/>
        <pt x="149" y="448" on="1"/>
        <pt x="154" y="407" on="1"/>
        <pt x="212" y="452" on="0"/>
        <pt x="272" y="452" on="1"/>
        <pt x="331" y="452" on="0"/>
        <pt x="398" y="384" on="0"/>
        <pt x="398" y="314" on="1"/>
        <pt x="398" y="-5" on="1"/>
        <pt x="398" y="-82" on="0"/>
        <pt x="339" y="-170" on="0"/>
        <pt x="266" y="-196" on="1"/>
        <pt x="228" y="-116" on="1"/>
        <pt x="261" y="-100" on="0"/>
        <pt x="286" y="-57" on="0"/>
        <pt x="286" y="-13" on="1"/>
        <pt x="286" y="306" on="1"/>
        <pt x="286" y="368" on="0"/>
        <pt x="234" y="368" on="1"/>
        <pt x="200" y="368" on="0"/>
        <pt x="162" y="333" on="1"/>
        <pt x="162" y="0" on="1"/>
        <pt x="50" y="0" on="1"/>
      </contour>
    </TTGlyph>
    <TTGlyph name="eogonek" xMin="34" yMin="-197" xMax="390" yMax="461">
      <component glyphName="e" x="0" y="0" flags="0x400"/>
      <component glyphName="uni0328" x="-77" y="0" flags="0x400"/>
    </TTGlyph>
    <TTGlyph name="epsilon" xMin="42" yMin="-7" xMax="396" yMax="455">
      <contour>
        <pt x="133" y="-7" on="0"/>
        <pt x="42" y="66" on="0"/>
        <pt x="42" y="122" on="1"/>
        <pt x="42" y="198" on="0"/>
        <pt x="118" y="230" on="1"/>
        <pt x="48" y="259" on="0"/>
        <pt x="48" y="328" on="1"/>
        <pt x="48" y="381" on="0"/>
        <pt x="139" y="455" on="0"/>
        <pt x="236" y="455" on="1"/>
        <pt x="317" y="455" on="0"/>
        <pt x="384" y="431" on="1"/>
        <pt x="365" y="359" on="1"/>
        <pt x="306" y="375" on="0"/>
        <pt x="255" y="375" on="1"/>
        <pt x="162" y="375" on="0"/>
        <pt x="162" y="322" on="1"/>
        <pt x="162" y="271" on="0"/>
        <pt x="241" y="271" on="1"/>
        <pt x="324" y="271" on="1"/>
        <pt x="324" y="193" on="1"/>
        <pt x="241" y="193" on="1"/>
        <pt x="197" y="193" on="0"/>
        <pt x="156" y="162" on="0"/>
        <pt x="156" y="135" on="1"/>
        <pt x="156" y="103" on="0"/>
        <pt x="205" y="73" on="0"/>
        <pt x="258" y="73" on="1"/>
        <pt x="309" y="73" on="0"/>
        <pt x="374" y="91" on="1"/>
        <pt x="396" y="18" on="1"/>
        <pt x="319" y="-7" on="0"/>
        <pt x="235" y="-7" on="1"/>
      </contour>
    </TTGlyph>
    <TTGlyph name="epsilontonos" xMin="42" yMin="-7" xMax="396" yMax="704">
      <contour>
        <pt x="133" y="-7" on="0"/>
        <pt x="42" y="66" on="0"/>
        <pt x="42" y="122" on="1"/>
        <pt x="42" y="198" on="0"/>
        <pt x="118" y="230" on="1"/>
        <pt x="48" y="259" on="0"/>
        <pt x="48" y="328" on="1"/>
        <pt x="48" y="381" on="0"/>
        <pt x="139" y="455" on="0"/>
        <pt x="236" y="455" on="1"/>
        <pt x="317" y="455" on="0"/>
        <pt x="384" y="431" on="1"/>
        <pt x="365" y="359" on="1"/>
        <pt x="306" y="375" on="0"/>
        <pt x="255" y="375" on="1"/>
        <pt x="162" y="375" on="0"/>
        <pt x="162" y="322" on="1"/>
        <pt x="162" y="271" on="0"/>
        <pt x="241" y="271" on="1"/>
        <pt x="324" y="271" on="1"/>
        <pt x="324" y="193" on="1"/>
        <pt x="241" y="193" on="1"/>
        <pt x="197" y="193" on="0"/>
        <pt x="156" y="162" on="0"/>
        <pt x="156" y="135" on="1"/>
        <pt x="156" y="103" on="0"/>
        <pt x="205" y="73" on="0"/>
        <pt x="258" y="73" on="1"/>
        <pt x="309" y="73" on="0"/>
        <pt x="374" y="91" on="1"/>
        <pt x="396" y="18" on="1"/>
        <pt x="319" y="-7" on="0"/>
        <pt x="235" y="-7" on="1"/>
      </contour>
      <contour>
        <pt x="313" y="704" on="1"/>
        <pt x="268" y="512" on="1"/>
        <pt x="172" y="512" on="1"/>
        <pt x="165" y="704" on="1"/>
      </contour>
    </TTGlyph>
    <TTGlyph name="equal" xMin="32" yMin="152" xMax="416" yMax="424">
      <contour>
        <pt x="32" y="152" on="1"/>
        <pt x="32" y="248" on="1"/>
        <pt x="416" y="248" on="1"/>
        <pt x="416" y="152" on="1"/>
      </contour>
      <contour>
        <pt x="32" y="424" on="1"/>
        <pt x="416" y="424" on="1"/>
        <pt x="416" y="328" on="1"/>
        <pt x="32" y="328" on="1"/>
      </contour>
    </TTGlyph>
    <TTGlyph name="equivalence" xMin="32" yMin="78" xMax="416" yMax="498">
      <contour>
        <pt x="32" y="78" on="1"/>
        <pt x="32" y="174" on="1"/>
        <pt x="416" y="174" on="1"/>
        <pt x="416" y="78" on="1"/>
      </contour>
      <contour>
        <pt x="32" y="336" on="1"/>
        <pt x="416" y="336" on="1"/>
        <pt x="416" y="240" on="1"/>
        <pt x="32" y="240" on="1"/>
      </contour>
      <contour>
        <pt x="32" y="498" on="1"/>
        <pt x="416" y="498" on="1"/>
        <pt x="416" y="402" on="1"/>
        <pt x="32" y="402" on="1"/>
      </contour>
    </TTGlyph>
    <TTGlyph name="estimated" xMin="50" yMin="-13" xMax="398" yMax="461">
      <contour>
        <pt x="296" y="-13" on="0"/>
        <pt x="238" y="-13" on="1"/>
        <pt x="138" y="-13" on="0"/>
        <pt x="50" y="122" on="0"/>
        <pt x="50" y="224" on="1"/>
        <pt x="50" y="326" on="0"/>
        <pt x="139" y="461" on="0"/>
        <pt x="229" y="461" on="1"/>
        <pt x="317" y="461" on="0"/>
        <pt x="398" y="333" on="0"/>
        <pt x="398" y="224" on="1"/>
        <pt x="398" y="191" on="1"/>
        <pt x="164" y="191" on="1"/>
        <pt x="166" y="109" on="0"/>
        <pt x="202" y="41" on="0"/>
        <pt x="249" y="41" on="1"/>
        <pt x="297" y="41" on="0"/>
        <pt x="348" y="57" on="1"/>
        <pt x="362" y="8" on="1"/>
      </contour>
      <contour>
        <pt x="284" y="247" on="1"/>
        <pt x="282" y="335" on="0"/>
        <pt x="256" y="407" on="0"/>
        <pt x="225" y="407" on="1"/>
        <pt x="192" y="407" on="0"/>
        <pt x="166" y="335" on="0"/>
        <pt x="164" y="247" on="1"/>
      </contour>
    </TTGlyph>
    <TTGlyph name="eta" xMin="48" yMin="-192" xMax="398" yMax="452">
      <contour>
        <pt x="50" y="384" on="1"/>
        <pt x="48" y="448" on="1"/>
        <pt x="149" y="448" on="1"/>
        <pt x="154" y="407" on="1"/>
        <pt x="212" y="452" on="0"/>
        <pt x="272" y="452" on="1"/>
        <pt x="331" y="452" on="0"/>
        <pt x="398" y="384" on="0"/>
        <pt x="398" y="314" on="1"/>
        <pt x="398" y="-192" on="1"/>
        <pt x="286" y="-192" on="1"/>
        <pt x="286" y="306" on="1"/>
        <pt x="286" y="368" on="0"/>
        <pt x="234" y="368" on="1"/>
        <pt x="200" y="368" on="0"/>
        <pt x="162" y="333" on="1"/>
        <pt x="162" y="0" on="1"/>
        <pt x="50" y="0" on="1"/>
      </contour>
    </TTGlyph>
    <TTGlyph name="etatonos" xMin="48" yMin="-192" xMax="398" yMax="704">
      <component glyphName="eta" x="0" y="0" flags="0x400"/>
      <component glyphName="tonos" x="0" y="0" flags="0x400"/>
    </TTGlyph>
    <TTGlyph name="eth" xMin="37" yMin="-8" xMax="410" yMax="648">
      <contour>
        <pt x="216" y="620" on="0"/>
        <pt x="243" y="596" on="1"/>
        <pt x="314" y="645" on="1"/>
        <pt x="355" y="588" on="1"/>
        <pt x="296" y="547" on="1"/>
        <pt x="410" y="423" on="0"/>
        <pt x="410" y="252" on="1"/>
        <pt x="410" y="124" on="0"/>
        <pt x="313" y="-8" on="0"/>
        <pt x="221" y="-8" on="1"/>
        <pt x="137" y="-8" on="0"/>
        <pt x="37" y="106" on="0"/>
        <pt x="37" y="203" on="1"/>
        <pt x="37" y="269" on="0"/>
        <pt x="84" y="364" on="0"/>
        <pt x="165" y="414" on="0"/>
        <pt x="215" y="414" on="1"/>
        <pt x="238" y="414" on="0"/>
        <pt x="268" y="407" on="1"/>
        <pt x="250" y="447" on="0"/>
        <pt x="212" y="489" on="1"/>
        <pt x="134" y="435" on="1"/>
        <pt x="93" y="492" on="1"/>
        <pt x="158" y="537" on="1"/>
        <pt x="147" y="546" on="0"/>
        <pt x="114" y="569" on="1"/>
        <pt x="172" y="648" on="1"/>
      </contour>
      <contour>
        <pt x="151" y="72" on="0"/>
        <pt x="224" y="72" on="1"/>
        <pt x="265" y="72" on="0"/>
        <pt x="297" y="164" on="0"/>
        <pt x="297" y="251" on="1"/>
        <pt x="297" y="293" on="0"/>
        <pt x="292" y="322" on="1"/>
        <pt x="261" y="334" on="0"/>
        <pt x="234" y="334" on="1"/>
        <pt x="187" y="334" on="0"/>
        <pt x="151" y="263" on="0"/>
        <pt x="151" y="203" on="1"/>
      </contour>
    </TTGlyph>
    <TTGlyph name="exclam" xMin="140" yMin="-10" xMax="308" yMax="640">
      <contour>
        <pt x="158" y="640" on="1"/>
        <pt x="290" y="640" on="1"/>
        <pt x="274" y="212" on="1"/>
        <pt x="174" y="212" on="1"/>
      </contour>
      <contour>
        <pt x="140" y="98" on="0"/>
        <pt x="188" y="138" on="0"/>
        <pt x="224" y="138" on="1"/>
        <pt x="260" y="138" on="0"/>
        <pt x="308" y="98" on="0"/>
        <pt x="308" y="64" on="1"/>
        <pt x="308" y="29" on="0"/>
        <pt x="260" y="-10" on="0"/>
        <pt x="224" y="-10" on="1"/>
        <pt x="188" y="-10" on="0"/>
        <pt x="140" y="29" on="0"/>
        <pt x="140" y="64" on="1"/>
      </contour>
    </TTGlyph>
    <TTGlyph name="exclamdbl" xMin="34" yMin="-10" xMax="414" yMax="640">
      <component glyphName="exclam" x="-106" y="0" flags="0x400"/>
      <component glyphName="exclam" x="106" y="0" flags="0x400"/>
    </TTGlyph>
    <TTGlyph name="exclamdown" xMin="140" yMin="-192" xMax="308" yMax="458">
      <contour>
        <pt x="290" y="-192" on="1"/>
        <pt x="158" y="-192" on="1"/>
        <pt x="174" y="236" on="1"/>
        <pt x="274" y="236" on="1"/>
      </contour>
      <contour>
        <pt x="140" y="419" on="0"/>
        <pt x="188" y="458" on="0"/>
        <pt x="224" y="458" on="1"/>
        <pt x="260" y="458" on="0"/>
        <pt x="308" y="419" on="0"/>
        <pt x="308" y="384" on="1"/>
        <pt x="308" y="350" on="0"/>
        <pt x="260" y="310" on="0"/>
        <pt x="224" y="310" on="1"/>
        <pt x="188" y="310" on="0"/>
        <pt x="140" y="350" on="0"/>
        <pt x="140" y="384" on="1"/>
      </contour>
    </TTGlyph>
    <TTGlyph name="f" xMin="16" yMin="0" xMax="364" yMax="648">
      <contour>
        <pt x="16" y="366" on="1"/>
        <pt x="16" y="448" on="1"/>
        <pt x="91" y="448" on="1"/>
        <pt x="91" y="504" on="1"/>
        <pt x="91" y="577" on="0"/>
        <pt x="173" y="648" on="0"/>
        <pt x="245" y="648" on="1"/>
        <pt x="271" y="648" on="0"/>
        <pt x="339" y="639" on="0"/>
        <pt x="364" y="633" on="1"/>
        <pt x="352" y="561" on="1"/>
        <pt x="310" y="568" on="0"/>
        <pt x="273" y="568" on="1"/>
        <pt x="203" y="568" on="0"/>
        <pt x="203" y="506" on="1"/>
        <pt x="203" y="448" on="1"/>
        <pt x="327" y="448" on="1"/>
        <pt x="327" y="364" on="1"/>
        <pt x="203" y="364" on="1"/>
        <pt x="203" y="0" on="1"/>
        <pt x="91" y="0" on="1"/>
        <pt x="91" y="363" on="1"/>
      </contour>
    </TTGlyph>
    <TTGlyph name="female" xMin="54" yMin="-114" xMax="394" yMax="456">
      <contour>
        <pt x="190" y="-16" on="1"/>
        <pt x="94" y="-16" on="1"/>
        <pt x="94" y="48" on="1"/>
        <pt x="190" y="48" on="1"/>
        <pt x="190" y="123" on="1"/>
        <pt x="130" y="134" on="0"/>
        <pt x="54" y="226" on="0"/>
        <pt x="54" y="288" on="1"/>
        <pt x="54" y="335" on="0"/>
        <pt x="99" y="412" on="0"/>
        <pt x="177" y="456" on="0"/>
        <pt x="224" y="456" on="1"/>
        <pt x="271" y="456" on="0"/>
        <pt x="349" y="412" on="0"/>
        <pt x="394" y="335" on="0"/>
        <pt x="394" y="288" on="1"/>
        <pt x="394" y="226" on="0"/>
        <pt x="318" y="134" on="0"/>
        <pt x="258" y="123" on="1"/>
        <pt x="258" y="48" on="1"/>
        <pt x="354" y="48" on="1"/>
        <pt x="354" y="-16" on="1"/>
        <pt x="258" y="-16" on="1"/>
        <pt x="258" y="-114" on="1"/>
        <pt x="190" y="-114" on="1"/>
      </contour>
      <contour>
        <pt x="124" y="244" on="0"/>
        <pt x="181" y="184" on="0"/>
        <pt x="224" y="184" on="1"/>
        <pt x="267" y="184" on="0"/>
        <pt x="324" y="244" on="0"/>
        <pt x="324" y="288" on="1"/>
        <pt x="324" y="332" on="0"/>
        <pt x="267" y="392" on="0"/>
        <pt x="224" y="392" on="1"/>
        <pt x="181" y="392" on="0"/>
        <pt x="124" y="332" on="0"/>
        <pt x="124" y="288" on="1"/>
      </contour>
    </TTGlyph>
    <TTGlyph name="filledbox" xMin="62" yMin="128" xMax="386" yMax="448">
      <contour>
        <pt x="386" y="128" on="1"/>
        <pt x="62" y="128" on="1"/>
        <pt x="62" y="448" on="1"/>
        <pt x="386" y="448" on="1"/>
      </contour>
    </TTGlyph>
    <TTGlyph name="filledrect" xMin="16" yMin="192" xMax="432" yMax="384">
      <contour>
        <pt x="432" y="192" on="1"/>
        <pt x="16" y="192" on="1"/>
        <pt x="16" y="384" on="1"/>
        <pt x="432" y="384" on="1"/>
      </contour>
    </TTGlyph>
    <TTGlyph name="five" xMin="43" yMin="0" xMax="406" yMax="576">
      <contour>
        <pt x="137" y="80" on="0"/>
        <pt x="187" y="80" on="1"/>
        <pt x="242" y="80" on="0"/>
        <pt x="290" y="123" on="0"/>
        <pt x="290" y="172" on="1"/>
        <pt x="290" y="217" on="0"/>
        <pt x="254" y="253" on="0"/>
        <pt x="206" y="253" on="1"/>
        <pt x="169" y="253" on="0"/>
        <pt x="106" y="240" on="1"/>
        <pt x="58" y="271" on="1"/>
        <pt x="71" y="576" on="1"/>
        <pt x="384" y="576" on="1"/>
        <pt x="384" y="496" on="1"/>
        <pt x="180" y="496" on="1"/>
        <pt x="173" y="329" on="1"/>
        <pt x="197" y="333" on="0"/>
        <pt x="236" y="333" on="1"/>
        <pt x="311" y="333" on="0"/>
        <pt x="406" y="257" on="0"/>
        <pt x="406" y="175" on="1"/>
        <pt x="406" y="0" on="0"/>
        <pt x="212" y="0" on="1"/>
        <pt x="127" y="0" on="0"/>
        <pt x="43" y="27" on="1"/>
        <pt x="61" y="99" on="1"/>
      </contour>
    </TTGlyph>
    <TTGlyph name="five.dnom" xMin="38" yMin="-198" xMax="274" yMax="128">
      <component glyphName="uni2075" x="0" y="-512" flags="0x404"/>
    </TTGlyph>
    <TTGlyph name="five.numr" xMin="38" yMin="314" xMax="274" yMax="640">
      <component glyphName="uni2075" x="0" y="0" flags="0x400"/>
    </TTGlyph>
    <TTGlyph name="five.osf" xMin="43" yMin="-128" xMax="406" yMax="448">
      <contour>
        <pt x="137" y="-48" on="0"/>
        <pt x="187" y="-48" on="1"/>
        <pt x="242" y="-48" on="0"/>
        <pt x="290" y="-5" on="0"/>
        <pt x="290" y="44" on="1"/>
        <pt x="290" y="89" on="0"/>
        <pt x="254" y="125" on="0"/>
        <pt x="206" y="125" on="1"/>
        <pt x="169" y="125" on="0"/>
        <pt x="106" y="112" on="1"/>
        <pt x="58" y="143" on="1"/>
        <pt x="71" y="448" on="1"/>
        <pt x="384" y="448" on="1"/>
        <pt x="384" y="368" on="1"/>
        <pt x="180" y="368" on="1"/>
        <pt x="173" y="201" on="1"/>
        <pt x="197" y="205" on="0"/>
        <pt x="236" y="205" on="1"/>
        <pt x="311" y="205" on="0"/>
        <pt x="406" y="129" on="0"/>
        <pt x="406" y="47" on="1"/>
        <pt x="406" y="-128" on="0"/>
        <pt x="212" y="-128" on="1"/>
        <pt x="127" y="-128" on="0"/>
        <pt x="43" y="-101" on="1"/>
        <pt x="61" y="-29" on="1"/>
      </contour>
    </TTGlyph>
    <TTGlyph name="five_fraction_nine" xMin="20" yMin="-198" xMax="428" yMax="640">
      <component glyphName="five.numr" x="0" y="0" flags="0x400"/>
      <component glyphName="fraction.alt" x="192" y="0" flags="0x400"/>
      <component glyphName="nine.dnom" x="128" y="0" flags="0x400"/>
    </TTGlyph>
    <TTGlyph name="five_fraction_seven" xMin="20" yMin="-198" xMax="428" yMax="640">
      <component glyphName="five.numr" x="0" y="0" flags="0x400"/>
      <component glyphName="fraction.alt" x="192" y="0" flags="0x400"/>
      <component glyphName="seven.dnom" x="128" y="0" flags="0x400"/>
    </TTGlyph>
    <TTGlyph name="fiveeighths" xMin="20" yMin="-198" xMax="428" yMax="640">
      <component glyphName="five.numr" x="0" y="0" flags="0x400"/>
      <component glyphName="fraction.alt" x="192" y="0" flags="0x400"/>
      <component glyphName="eight.dnom" x="128" y="0" flags="0x400"/>
    </TTGlyph>
    <TTGlyph name="florin" xMin="59" yMin="-196" xMax="407" yMax="648">
      <contour>
        <pt x="109" y="-100" on="0"/>
        <pt x="134" y="-57" on="0"/>
        <pt x="134" y="-13" on="1"/>
        <pt x="134" y="363" on="1"/>
        <pt x="59" y="366" on="1"/>
        <pt x="59" y="448" on="1"/>
        <pt x="134" y="448" on="1"/>
        <pt x="134" y="504" on="1"/>
        <pt x="134" y="577" on="0"/>
        <pt x="216" y="648" on="0"/>
        <pt x="288" y="648" on="1"/>
        <pt x="314" y="648" on="0"/>
        <pt x="382" y="639" on="0"/>
        <pt x="407" y="633" on="1"/>
        <pt x="395" y="561" on="1"/>
        <pt x="353" y="568" on="0"/>
        <pt x="316" y="568" on="1"/>
        <pt x="246" y="568" on="0"/>
        <pt x="246" y="506" on="1"/>
        <pt x="246" y="448" on="1"/>
        <pt x="370" y="448" on="1"/>
        <pt x="370" y="364" on="1"/>
        <pt x="246" y="364" on="1"/>
        <pt x="246" y="-5" on="1"/>
        <pt x="246" y="-82" on="0"/>
        <pt x="187" y="-170" on="0"/>
        <pt x="114" y="-196" on="1"/>
        <pt x="76" y="-116" on="1"/>
      </contour>
    </TTGlyph>
    <TTGlyph name="four" xMin="31" yMin="0" xMax="433" yMax="592">
      <contour>
        <pt x="247" y="120" on="1"/>
        <pt x="31" y="120" on="1"/>
        <pt x="39" y="332" on="0"/>
        <pt x="199" y="568" on="0"/>
        <pt x="359" y="592" on="1"/>
        <pt x="359" y="200" on="1"/>
        <pt x="433" y="200" on="1"/>
        <pt x="433" y="120" on="1"/>
        <pt x="359" y="120" on="1"/>
        <pt x="359" y="0" on="1"/>
        <pt x="247" y="0" on="1"/>
      </contour>
      <contour>
        <pt x="247" y="200" on="1"/>
        <pt x="247" y="392" on="1"/>
        <pt x="251" y="459" on="1"/>
        <pt x="163" y="381" on="0"/>
        <pt x="147" y="200" on="1"/>
      </contour>
    </TTGlyph>
    <TTGlyph name="four.dnom" xMin="46" yMin="-192" xMax="296" yMax="128">
      <component glyphName="uni2074" x="0" y="-512" flags="0x404"/>
    </TTGlyph>
    <TTGlyph name="four.numr" xMin="46" yMin="320" xMax="296" yMax="640">
      <component glyphName="uni2074" x="0" y="0" flags="0x400"/>
    </TTGlyph>
    <TTGlyph name="four.osf" xMin="31" yMin="-128" xMax="433" yMax="464">
      <contour>
        <pt x="247" y="-8" on="1"/>
        <pt x="31" y="-8" on="1"/>
        <pt x="39" y="204" on="0"/>
        <pt x="199" y="440" on="0"/>
        <pt x="359" y="464" on="1"/>
        <pt x="359" y="72" on="1"/>
        <pt x="433" y="72" on="1"/>
        <pt x="433" y="-8" on="1"/>
        <pt x="359" y="-8" on="1"/>
        <pt x="359" y="-128" on="1"/>
        <pt x="247" y="-128" on="1"/>
      </contour>
      <contour>
        <pt x="247" y="72" on="1"/>
        <pt x="247" y="264" on="1"/>
        <pt x="251" y="331" on="1"/>
        <pt x="163" y="253" on="0"/>
        <pt x="147" y="72" on="1"/>
      </contour>
    </TTGlyph>
    <TTGlyph name="four_fraction_nine" xMin="20" yMin="-198" xMax="428" yMax="640">
      <component glyphName="four.numr" x="0" y="0" flags="0x400"/>
      <component glyphName="fraction.alt" x="192" y="0" flags="0x400"/>
      <component glyphName="nine.dnom" x="128" y="0" flags="0x400"/>
    </TTGlyph>
    <TTGlyph name="four_fraction_seven" xMin="20" yMin="-198" xMax="428" yMax="640">
      <component glyphName="four.numr" x="0" y="0" flags="0x400"/>
      <component glyphName="fraction.alt" x="192" y="0" flags="0x400"/>
      <component glyphName="seven.dnom" x="128" y="0" flags="0x400"/>
    </TTGlyph>
    <TTGlyph name="fraction" xMin="-29" yMin="-69" xMax="221" yMax="710">
      <contour>
        <pt x="-29" y="-57" on="1"/>
        <pt x="110" y="710" on="1"/>
        <pt x="221" y="698" on="1"/>
        <pt x="82" y="-69" on="1"/>
      </contour>
    </TTGlyph>
    <TTGlyph name="fraction.alt" xMin="-172" yMin="160" xMax="236" yMax="288">
      <contour>
        <pt x="226" y="288" on="1"/>
        <pt x="236" y="217" on="1"/>
        <pt x="-162" y="160" on="1"/>
        <pt x="-172" y="231" on="1"/>
      </contour>
    </TTGlyph>
    <TTGlyph name="fraction.percent" xMin="19" yMin="175" xMax="430" yMax="465">
      <contour>
        <pt x="388" y="465" on="1"/>
        <pt x="430" y="396" on="1"/>
        <pt x="60" y="175" on="1"/>
        <pt x="19" y="244" on="1"/>
      </contour>
    </TTGlyph>
</ttFont>
